<svg id="svg" version="1.1" xmlns="http://www.w3.org/2000/svg" xmlns:xlink="http://www.w3.org/1999/xlink" width="400" height="400" viewBox="0, 0, 400,400"><g id="svgg"><path id="path0" d="M204.062 108.324 C 203.589 108.536,203.326 108.790,203.169 109.187 C 202.144 111.787,199.213 117.563,197.443 120.473 C 196.960 121.267,196.521 122.029,196.468 122.167 C 196.391 122.362,193.837 125.958,193.212 126.750 C 193.140 126.842,192.669 127.441,192.165 128.082 C 191.105 129.432,190.682 129.951,190.333 130.326 C 190.196 130.474,189.664 131.117,189.151 131.756 C 188.638 132.394,187.953 133.217,187.628 133.583 C 187.303 133.950,186.270 135.150,185.333 136.250 C 181.133 141.179,175.625 146.957,172.583 149.626 C 170.772 151.216,168.755 152.691,168.710 152.458 C 168.688 152.344,168.588 151.237,168.488 150.000 C 168.119 145.424,168.114 145.392,167.679 144.930 C 167.082 144.294,165.986 144.322,165.318 144.990 C 165.049 145.259,164.683 145.525,164.505 145.582 C 164.028 145.733,163.333 146.631,163.333 147.096 C 163.333 147.318,163.263 147.500,163.178 147.500 C 163.092 147.500,162.971 147.663,162.908 147.862 C 162.844 148.061,162.726 148.305,162.644 148.404 C 162.563 148.503,162.341 148.790,162.152 149.043 C 161.963 149.295,161.157 149.963,160.362 150.526 C 159.567 151.089,158.879 151.596,158.833 151.653 C 158.645 151.889,157.614 152.471,155.167 153.725 C 153.746 154.453,152.171 155.262,151.667 155.522 C 151.162 155.783,150.695 155.997,150.628 155.998 C 150.561 155.999,150.016 156.300,149.417 156.667 C 148.818 157.033,148.294 157.333,148.252 157.333 C 148.211 157.333,147.649 157.675,147.005 158.092 C 146.360 158.509,145.026 159.236,144.041 159.707 C 142.270 160.555,140.219 161.719,139.250 162.428 C 137.976 163.359,134.353 164.770,132.589 165.022 C 128.493 165.606,128.850 165.635,127.583 164.626 C 123.935 161.724,123.192 159.698,123.670 153.962 C 123.745 153.064,123.719 152.976,123.219 152.476 C 122.272 151.528,120.333 151.943,120.333 153.093 C 120.333 153.225,120.267 153.333,120.186 153.333 C 120.037 153.333,118.864 155.639,118.151 157.333 C 117.789 158.194,116.395 160.650,116.165 160.833 C 116.025 160.945,114.004 164.331,113.330 165.583 C 112.405 167.304,110.620 169.997,109.134 171.917 C 107.661 173.819,105.151 176.339,102.654 178.422 C 99.354 181.174,90.132 185.500,87.565 185.500 C 87.218 185.500,86.734 185.669,86.369 185.917 C 86.032 186.146,85.684 186.333,85.596 186.333 C 85.408 186.333,81.762 187.495,75.917 189.417 C 73.625 190.170,70.400 191.177,68.750 191.655 C 67.100 192.132,65.563 192.587,65.333 192.665 C 65.104 192.744,64.354 192.970,63.667 193.167 C 62.979 193.364,62.229 193.589,62.000 193.667 C 61.771 193.745,61.021 193.970,60.333 194.167 C 59.646 194.364,58.896 194.589,58.667 194.667 C 58.438 194.745,57.725 194.961,57.083 195.146 C 56.442 195.332,55.017 195.757,53.917 196.091 C 52.817 196.425,51.523 196.803,51.042 196.932 C 49.369 197.380,48.411 197.647,47.500 197.920 C 46.183 198.314,45.249 198.568,41.500 199.551 C 40.629 199.779,39.354 200.053,38.667 200.160 C 34.803 200.762,34.303 201.762,35.411 206.684 C 35.656 207.770,35.958 209.568,36.417 212.667 C 36.546 213.537,36.768 214.963,36.911 215.833 C 37.053 216.704,37.241 217.942,37.328 218.583 C 37.553 220.250,38.251 224.233,38.744 226.667 C 39.883 232.285,40.485 235.078,40.901 236.667 C 41.032 237.171,41.297 238.183,41.488 238.917 C 41.999 240.879,43.093 241.550,44.336 240.665 C 45.209 240.043,50.670 238.398,56.250 237.074 C 58.814 236.467,59.470 236.320,60.750 236.066 C 61.483 235.921,62.571 235.703,63.167 235.583 C 63.762 235.463,64.887 235.238,65.667 235.083 C 66.446 234.928,67.571 234.703,68.167 234.583 C 71.022 234.008,73.485 233.557,76.333 233.087 C 77.112 232.959,79.100 232.619,80.750 232.333 C 82.400 232.047,84.425 231.702,85.250 231.567 C 86.075 231.432,87.388 231.214,88.167 231.083 C 91.399 230.542,93.709 230.160,97.250 229.585 C 98.075 229.451,99.425 229.230,100.250 229.094 C 101.075 228.957,102.425 228.734,103.250 228.598 C 104.075 228.462,105.200 228.272,105.750 228.176 C 106.300 228.080,107.111 228.001,107.553 228.001 C 107.994 228.000,108.489 227.928,108.652 227.841 C 108.816 227.754,109.429 227.600,110.016 227.500 C 112.401 227.092,114.167 226.805,115.708 226.576 C 116.602 226.442,118.065 226.224,118.958 226.091 C 121.190 225.758,125.668 225.048,128.417 224.591 C 129.242 224.454,130.610 224.228,131.458 224.088 C 135.241 223.464,136.005 223.335,137.417 223.086 C 139.800 222.665,141.793 222.336,143.500 222.083 C 145.540 221.781,147.851 221.416,149.792 221.091 C 153.364 220.493,154.474 220.312,155.500 220.161 C 156.096 220.074,157.221 219.891,158.000 219.755 C 158.779 219.620,160.129 219.389,161.000 219.244 C 161.871 219.098,163.296 218.830,164.167 218.648 C 166.745 218.109,168.154 217.849,169.870 217.597 C 170.762 217.466,171.550 217.322,171.621 217.278 C 171.737 217.206,173.190 217.091,181.402 216.504 C 182.832 216.402,183.660 216.407,183.870 216.520 C 184.248 216.722,185.141 216.559,185.529 216.217 C 185.686 216.079,186.565 215.866,187.529 215.733 C 188.476 215.602,189.775 215.420,190.417 215.329 C 191.058 215.237,193.121 215.049,195.000 214.910 C 198.582 214.646,199.881 214.497,202.083 214.095 C 203.764 213.789,206.072 213.366,207.583 213.089 C 208.225 212.971,209.575 212.711,210.583 212.512 C 213.597 211.915,214.670 211.710,216.333 211.415 C 217.204 211.260,218.442 211.032,219.083 210.908 C 219.725 210.784,220.700 210.634,221.250 210.576 C 221.800 210.518,222.549 210.394,222.915 210.301 C 223.280 210.209,224.817 210.111,226.331 210.085 C 228.301 210.051,229.391 209.955,230.167 209.746 C 231.126 209.488,231.717 209.469,235.333 209.578 C 237.579 209.646,239.604 209.706,239.833 209.711 C 241.662 209.756,244.342 209.502,244.731 209.247 C 245.601 208.677,245.614 206.733,244.756 205.667 C 244.051 204.790,243.788 202.526,243.978 198.958 C 244.148 195.751,244.069 195.925,245.852 194.896 C 248.482 193.379,249.366 191.831,248.306 190.599 C 247.893 190.119,247.644 190.031,244.225 189.167 C 242.124 188.636,239.500 187.847,239.250 187.671 C 239.158 187.607,238.596 187.377,238.000 187.159 C 235.885 186.389,234.386 185.152,234.143 183.978 C 233.833 182.484,238.428 179.006,242.583 177.590 C 243.317 177.340,244.142 177.033,244.417 176.908 C 244.692 176.784,245.517 176.524,246.250 176.331 C 246.983 176.138,248.146 175.824,248.833 175.633 C 249.521 175.442,250.908 175.112,251.917 174.898 C 255.536 174.133,256.176 173.526,256.901 170.167 C 257.609 166.888,256.082 165.332,253.635 166.837 C 252.157 167.746,251.013 167.983,251.809 167.215 C 252.224 166.814,254.000 164.386,254.001 164.217 C 254.001 164.144,254.226 163.746,254.500 163.333 C 255.447 161.909,254.946 160.359,253.449 160.078 C 251.058 159.630,247.548 161.259,244.663 164.157 C 243.160 165.665,242.953 165.903,241.885 167.343 C 240.750 168.875,238.019 170.564,236.000 170.984 C 235.588 171.070,234.511 171.296,233.609 171.487 C 232.706 171.677,231.593 171.833,231.136 171.833 L 230.303 171.833 231.140 171.172 C 231.600 170.808,232.243 170.152,232.569 169.714 C 232.895 169.275,233.228 168.836,233.309 168.739 C 233.562 168.433,234.893 166.505,236.351 164.333 C 237.120 163.188,237.791 162.212,237.842 162.167 C 237.893 162.121,238.114 161.783,238.333 161.417 C 238.553 161.050,238.778 160.712,238.833 160.667 C 238.889 160.621,239.115 160.283,239.336 159.917 C 239.557 159.550,239.841 159.144,239.967 159.015 C 240.093 158.886,240.388 158.473,240.622 158.098 C 241.291 157.027,242.620 155.403,243.688 154.352 C 245.787 152.285,244.358 150.212,241.646 151.389 C 241.153 151.602,240.075 151.945,239.250 152.149 C 238.425 152.354,237.458 152.598,237.101 152.691 C 236.745 152.785,236.107 152.922,235.685 152.996 C 235.262 153.070,234.167 153.283,233.250 153.470 C 225.159 155.117,226.051 155.055,225.918 153.975 C 225.792 152.945,226.075 148.900,226.343 147.917 C 226.730 146.496,227.202 144.902,227.331 144.583 C 227.405 144.400,227.709 143.575,228.007 142.750 C 228.522 141.320,229.062 140.218,230.400 137.859 C 230.730 137.277,231.000 136.772,231.000 136.737 C 231.000 136.701,231.229 136.202,231.510 135.628 C 233.298 131.966,233.484 131.249,233.233 129.000 C 232.626 123.574,230.311 121.569,228.075 124.531 C 227.100 125.823,226.396 126.590,225.782 127.033 L 225.313 127.370 225.582 126.727 C 225.873 126.030,226.654 124.635,226.829 124.500 C 226.888 124.454,227.230 123.929,227.588 123.333 C 227.946 122.737,228.628 121.681,229.104 120.986 C 230.157 119.447,231.667 116.536,231.667 116.045 C 231.667 115.848,231.742 115.640,231.833 115.583 C 231.925 115.527,232.000 115.103,232.000 114.641 C 232.000 113.171,230.941 112.278,229.750 112.742 C 229.475 112.849,228.800 113.035,228.250 113.154 C 227.700 113.273,226.800 113.503,226.250 113.665 C 225.700 113.827,224.950 114.042,224.583 114.143 C 223.551 114.426,220.205 115.487,219.000 115.912 C 214.675 117.438,214.409 117.537,212.833 118.215 C 212.421 118.392,211.423 118.863,210.617 119.261 C 209.650 119.739,209.130 119.917,209.091 119.784 C 209.058 119.674,208.865 118.796,208.662 117.833 C 208.458 116.871,208.188 115.596,208.061 115.000 C 207.934 114.404,207.723 113.392,207.593 112.750 C 206.910 109.381,206.621 108.812,205.319 108.268 C 204.789 108.047,204.669 108.052,204.062 108.324 M205.735 119.417 C 205.963 120.517,206.345 122.579,206.585 124.000 C 207.229 127.817,207.400 128.167,208.628 128.167 C 209.941 128.167,210.240 127.081,209.735 124.153 C 209.636 123.581,209.666 123.535,210.473 123.017 C 212.923 121.445,219.794 118.801,225.735 117.143 C 226.736 116.864,227.661 116.594,227.793 116.544 C 228.165 116.401,227.531 117.530,225.537 120.556 C 221.868 126.125,221.385 128.041,223.210 129.789 C 224.663 131.179,226.525 130.837,228.603 128.799 C 229.950 127.478,229.885 127.447,230.095 129.507 C 230.228 130.821,229.888 131.748,227.771 135.833 C 225.549 140.120,225.232 140.819,224.373 143.333 C 223.022 147.283,222.762 148.724,222.756 152.303 L 222.750 155.356 221.366 155.241 C 219.327 155.071,218.338 156.353,219.562 157.577 C 220.891 158.906,224.523 158.590,236.462 156.108 C 238.213 155.744,238.326 155.738,238.128 156.021 C 237.606 156.767,236.518 158.363,233.992 162.083 C 229.883 168.136,229.781 168.263,228.010 169.501 C 227.159 170.096,226.125 170.935,225.713 171.365 C 225.300 171.795,224.653 172.293,224.273 172.472 C 222.865 173.135,222.471 174.313,223.393 175.105 C 224.138 175.746,225.252 175.559,226.716 174.548 L 227.349 174.111 228.466 174.514 C 230.606 175.286,234.051 175.002,238.025 173.726 C 240.586 172.904,242.977 171.147,244.984 168.613 C 246.727 166.411,248.243 165.036,250.167 163.910 C 250.456 163.741,250.472 163.717,249.043 165.599 C 246.349 169.148,248.315 172.149,252.485 170.851 C 253.303 170.596,253.500 170.579,253.500 170.764 C 253.500 171.131,252.825 171.469,251.747 171.642 C 251.196 171.730,249.733 172.081,248.497 172.421 C 247.261 172.761,245.944 173.101,245.570 173.176 C 244.143 173.463,237.925 175.897,236.764 176.623 C 234.320 178.154,231.667 181.019,231.667 182.129 C 231.667 182.247,231.551 182.388,231.411 182.442 C 229.573 183.147,231.733 187.575,234.721 189.227 C 236.342 190.124,239.183 191.131,243.083 192.192 L 243.750 192.374 243.335 192.645 C 242.414 193.247,241.688 194.045,241.354 194.823 C 240.433 196.962,240.475 203.967,241.421 206.231 C 241.548 206.533,241.466 206.539,239.151 206.408 C 234.919 206.168,231.144 206.256,229.025 206.645 C 227.668 206.895,226.797 206.965,225.942 206.894 C 224.213 206.751,219.792 207.441,208.750 209.579 C 200.090 211.256,198.917 211.436,195.144 211.663 C 192.484 211.823,191.027 211.978,187.952 212.428 C 185.810 212.741,185.833 212.743,185.833 212.240 C 185.833 212.006,185.761 211.500,185.672 211.115 C 185.583 210.731,185.323 209.442,185.093 208.250 C 184.213 203.692,182.822 198.426,181.174 193.417 C 180.450 191.217,179.590 188.455,179.263 187.280 C 177.742 181.817,176.249 180.362,174.402 182.545 C 173.982 183.041,173.752 183.492,172.912 185.470 L 172.606 186.189 172.209 185.053 C 171.991 184.428,171.547 183.286,171.222 182.515 C 170.392 180.540,168.031 173.160,166.420 167.500 C 166.094 166.354,165.398 164.073,164.874 162.430 C 164.278 160.563,163.989 159.420,164.102 159.383 C 164.202 159.349,164.951 158.943,165.767 158.479 C 172.847 154.452,179.547 148.117,190.685 134.917 C 197.280 127.100,199.446 123.935,203.263 116.541 L 204.576 113.998 204.948 115.707 C 205.153 116.647,205.507 118.317,205.735 119.417 M165.463 153.646 L 165.417 155.208 164.251 155.869 C 163.346 156.382,163.029 156.489,162.834 156.348 C 161.588 155.443,160.165 156.120,160.167 157.617 C 160.168 157.873,160.698 159.621,161.346 161.500 C 161.994 163.379,162.961 166.417,163.494 168.250 C 165.829 176.271,167.826 182.490,168.500 183.833 C 168.661 184.154,169.112 185.392,169.504 186.583 C 170.656 190.094,171.156 190.834,172.369 190.833 C 173.405 190.832,173.916 190.329,174.923 188.321 C 175.435 187.300,175.880 186.492,175.911 186.524 C 175.943 186.557,176.234 187.558,176.557 188.750 C 176.880 189.942,177.715 192.642,178.412 194.750 C 179.109 196.858,179.819 199.146,179.989 199.833 C 180.158 200.521,180.594 202.246,180.957 203.667 C 181.753 206.782,181.909 207.476,182.255 209.417 C 182.402 210.242,182.592 211.231,182.678 211.615 C 183.062 213.343,183.458 213.200,177.226 213.576 C 173.129 213.824,168.483 214.445,164.917 215.223 C 162.165 215.823,161.224 215.984,147.667 218.174 C 145.971 218.448,139.821 219.456,134.000 220.413 C 128.179 221.370,121.167 222.495,118.417 222.913 C 112.552 223.805,109.366 224.318,108.955 224.438 C 108.614 224.538,108.230 223.762,107.342 221.176 C 106.980 220.124,106.432 219.035,105.692 217.897 C 105.082 216.960,104.299 215.756,103.951 215.221 C 103.603 214.687,102.700 213.200,101.944 211.917 C 101.188 210.633,100.252 209.115,99.863 208.543 C 99.230 207.612,98.500 206.171,98.500 205.853 C 98.500 205.788,98.980 205.765,99.567 205.802 C 100.727 205.876,103.063 205.475,103.969 205.047 C 105.651 204.251,105.769 201.766,104.139 201.434 C 101.706 200.938,101.852 201.016,100.507 199.496 C 99.228 198.051,98.748 197.594,94.864 194.118 C 92.692 192.175,90.349 189.670,89.910 188.820 L 89.683 188.382 91.300 187.829 C 102.995 183.832,109.831 178.061,116.460 166.587 C 117.149 165.394,118.356 163.386,119.141 162.127 L 120.568 159.837 120.779 160.664 C 121.867 164.916,127.163 169.446,130.147 168.678 C 130.479 168.593,131.603 168.398,132.645 168.244 C 135.673 167.799,138.618 166.655,141.433 164.832 C 142.268 164.290,143.932 163.359,145.130 162.762 C 146.328 162.165,148.084 161.197,149.031 160.612 C 149.978 160.026,152.629 158.605,154.922 157.453 C 157.879 155.967,159.699 154.930,161.183 153.887 C 163.797 152.049,163.962 151.913,164.671 151.024 L 165.250 150.298 165.380 151.191 C 165.452 151.682,165.489 152.786,165.463 153.646 M203.059 151.999 C 202.863 152.078,202.588 152.306,202.447 152.507 C 202.208 152.849,202.170 152.855,201.809 152.602 C 200.849 151.930,199.500 152.579,199.500 153.713 C 199.500 154.281,199.619 154.472,201.148 156.351 C 201.550 156.845,202.406 158.037,203.050 159.000 C 206.094 163.547,207.368 165.182,209.901 167.791 C 210.813 168.730,211.691 169.699,211.852 169.945 C 212.458 170.869,216.230 174.692,216.845 175.006 C 220.847 177.048,223.815 167.956,220.685 163.242 C 217.494 158.436,205.719 150.925,203.059 151.999 M205.917 155.679 C 210.013 157.626,215.206 161.337,217.477 163.941 C 219.034 165.727,219.503 168.826,218.530 170.905 C 218.248 171.507,217.984 172.000,217.943 172.000 C 217.816 172.000,215.586 169.643,214.643 168.512 C 214.152 167.922,212.813 166.457,211.667 165.255 C 209.713 163.206,207.876 160.796,205.116 156.662 C 203.828 154.733,203.856 154.699,205.917 155.679 M195.583 156.281 C 190.054 157.529,189.937 160.000,195.148 165.417 C 197.082 167.427,198.608 169.169,200.596 171.638 C 204.532 176.526,205.190 177.671,204.844 179.020 C 204.397 180.765,205.896 181.852,207.173 180.708 C 208.841 179.213,207.968 176.015,204.817 172.083 C 202.947 169.750,202.888 169.848,205.250 171.372 C 205.892 171.786,207.054 172.444,207.833 172.834 C 208.612 173.224,209.568 173.762,209.957 174.029 C 211.824 175.310,212.874 175.558,213.654 174.902 C 214.636 174.076,214.213 172.867,212.667 172.084 C 212.227 171.861,211.541 171.463,211.142 171.199 C 210.743 170.936,209.768 170.393,208.975 169.992 C 206.954 168.970,203.325 166.519,202.908 165.894 C 202.596 165.427,202.207 163.853,201.687 160.948 C 201.128 157.830,198.300 155.667,195.583 156.281 M197.399 159.493 C 198.171 159.787,198.614 160.748,198.977 162.917 C 199.162 164.018,199.362 165.068,199.422 165.251 C 199.586 165.745,195.848 161.892,195.136 160.831 L 194.522 159.917 195.136 159.629 C 195.822 159.308,196.764 159.252,197.399 159.493 M187.495 161.339 C 187.309 161.525,187.112 161.896,187.059 162.163 C 187.006 162.431,186.820 162.778,186.648 162.934 C 186.203 163.336,186.242 164.360,186.739 165.309 C 186.962 165.735,187.423 166.758,187.762 167.583 C 188.102 168.408,188.891 170.096,189.515 171.333 C 190.140 172.571,190.949 174.446,191.312 175.500 C 191.676 176.554,192.318 178.384,192.740 179.567 C 193.161 180.749,193.684 182.399,193.902 183.233 C 194.563 185.759,195.165 187.842,195.666 189.333 C 195.927 190.112,196.190 191.112,196.249 191.554 C 196.482 193.285,198.361 193.749,199.072 192.251 C 199.452 191.449,199.406 191.043,198.675 188.785 C 197.808 186.107,197.147 183.797,197.225 183.719 C 197.260 183.685,197.721 183.586,198.251 183.500 C 198.781 183.414,199.625 183.224,200.125 183.078 C 200.626 182.933,201.057 182.837,201.083 182.865 C 201.549 183.379,202.667 185.834,202.667 186.344 C 202.667 188.257,205.010 188.518,205.782 186.691 C 206.113 185.909,205.965 185.426,204.707 183.191 C 203.235 180.573,203.169 180.446,203.168 180.218 C 203.167 180.108,203.018 179.915,202.837 179.788 C 202.556 179.591,199.259 175.099,195.835 170.250 C 195.317 169.517,194.043 167.717,193.003 166.250 C 191.963 164.783,190.790 163.082,190.397 162.468 C 189.417 160.941,188.320 160.514,187.495 161.339 M180.742 163.909 C 180.028 164.624,180.097 165.043,181.712 169.750 C 182.215 171.217,183.130 173.983,183.744 175.897 L 184.861 179.378 183.978 180.272 C 182.929 181.335,182.795 181.359,182.462 180.542 C 181.937 179.251,178.843 171.474,177.739 168.667 C 176.487 165.483,176.051 164.833,175.167 164.833 C 174.540 164.833,173.667 165.614,173.667 166.175 C 173.667 166.836,179.929 182.517,183.248 190.167 C 184.110 192.154,185.698 196.428,186.332 198.471 C 187.050 200.782,187.957 201.382,189.108 200.308 C 190.021 199.456,189.081 196.171,185.578 187.968 C 183.912 184.067,183.955 184.411,185.014 183.420 C 186.102 182.402,185.880 182.100,187.697 187.083 C 187.965 187.817,188.547 189.317,188.990 190.417 C 189.770 192.353,190.487 194.498,190.841 195.958 C 191.186 197.382,192.544 197.840,193.402 196.821 C 194.114 195.975,193.768 194.277,191.926 189.583 C 188.401 180.597,188.232 180.084,188.554 179.408 C 189.016 178.438,188.512 177.167,187.666 177.167 C 187.312 177.167,187.285 177.100,185.771 172.417 C 184.035 167.052,183.324 164.951,183.055 164.395 C 182.602 163.458,181.437 163.214,180.742 163.909 M195.340 174.750 C 196.385 176.217,197.673 178.005,198.204 178.723 C 198.734 179.442,199.130 180.092,199.083 180.167 C 198.984 180.327,196.760 180.725,196.482 180.633 C 196.310 180.575,195.222 177.695,194.260 174.750 C 194.050 174.108,193.713 173.171,193.511 172.667 C 193.057 171.537,193.024 171.499,195.340 174.750 M160.191 177.755 C 159.585 178.265,159.389 178.841,159.240 180.542 C 159.103 182.117,159.259 182.133,157.427 180.360 C 155.412 178.411,154.213 178.216,153.579 179.734 C 153.209 180.620,153.243 180.735,155.680 186.917 C 156.427 188.811,156.738 189.825,156.754 190.417 C 156.786 191.592,156.793 191.616,157.198 191.994 C 157.730 192.489,158.825 192.458,159.318 191.933 C 160.188 191.007,160.080 189.709,158.897 186.863 C 158.566 186.068,158.256 185.315,158.207 185.191 C 158.136 185.012,158.216 185.017,158.601 185.216 C 159.511 185.687,160.477 185.638,161.129 185.089 L 161.617 184.679 161.991 186.202 C 162.424 187.970,162.669 188.410,163.351 188.648 C 164.593 189.081,165.674 187.752,165.167 186.416 C 165.011 186.007,164.897 185.511,164.237 182.362 C 163.318 177.978,161.877 176.337,160.191 177.755 M139.717 184.328 C 136.180 186.067,135.833 186.341,135.833 187.399 C 135.833 188.279,136.485 188.721,137.936 188.824 L 139.250 188.917 139.693 189.845 C 140.327 191.175,141.323 194.164,141.505 195.284 L 141.661 196.239 140.843 196.955 C 139.892 197.787,139.683 198.392,140.081 199.162 C 140.695 200.349,141.626 200.220,143.423 198.700 C 144.153 198.083,145.194 197.317,145.736 196.998 C 147.736 195.818,148.334 194.938,147.806 193.947 C 147.316 193.028,146.413 192.923,145.317 193.659 C 144.427 194.257,144.518 194.357,143.730 191.917 C 143.374 190.817,142.738 189.224,142.317 188.378 C 141.446 186.630,141.407 186.762,143.000 186.083 C 145.229 185.133,145.806 184.253,144.902 183.179 C 144.159 182.297,143.597 182.421,139.717 184.328 M150.229 183.797 C 148.983 183.986,148.781 185.420,149.736 187.309 C 150.076 187.983,150.315 188.574,150.266 188.623 C 150.000 188.889,148.333 187.114,148.333 186.564 C 148.333 185.094,146.198 184.102,145.421 185.210 C 143.753 187.593,148.515 192.499,151.463 191.435 C 152.133 191.194,152.210 191.198,152.713 191.505 C 153.457 191.958,153.944 191.915,154.513 191.346 C 155.287 190.572,155.178 189.994,153.974 188.475 C 153.731 188.168,153.215 187.204,152.829 186.333 C 151.863 184.158,151.323 183.631,150.229 183.797 M131.417 188.474 C 126.611 189.931,126.563 190.428,130.461 198.244 C 130.871 199.066,131.311 200.093,131.440 200.526 C 131.739 201.532,132.316 202.003,133.231 201.989 C 133.608 201.983,134.179 202.026,134.500 202.085 C 136.567 202.464,138.689 197.819,138.168 194.055 C 137.513 189.322,135.126 187.349,131.417 188.474 M87.382 190.458 C 87.784 191.077,88.832 192.371,89.712 193.333 C 91.183 194.944,91.904 195.617,95.755 198.968 C 96.491 199.609,97.569 200.707,98.150 201.410 L 99.207 202.687 97.775 202.571 C 94.277 202.287,94.162 205.264,97.474 210.396 C 98.014 211.232,99.094 213.004,99.875 214.333 C 100.655 215.662,101.938 217.712,102.727 218.887 C 103.515 220.062,104.242 221.327,104.342 221.699 C 104.442 222.070,104.742 222.941,105.009 223.634 C 105.276 224.327,105.473 224.916,105.446 224.943 C 105.419 224.970,102.852 225.409,99.740 225.918 C 78.861 229.339,72.467 230.446,65.018 231.933 C 56.597 233.614,52.808 234.517,47.655 236.068 C 45.953 236.581,44.516 237.000,44.460 237.000 C 44.221 237.000,43.666 234.761,42.519 229.167 C 42.246 227.838,41.906 226.188,41.764 225.500 C 41.400 223.740,40.333 217.167,39.329 210.500 C 39.046 208.621,38.669 206.467,38.491 205.714 C 38.014 203.702,38.037 203.534,38.792 203.426 C 41.000 203.111,53.090 199.768,62.917 196.755 C 64.200 196.361,66.825 195.575,68.750 195.008 C 71.944 194.067,78.773 191.895,84.250 190.078 C 85.442 189.683,86.469 189.354,86.534 189.346 C 86.598 189.339,86.980 189.840,87.382 190.458 M133.900 191.399 C 135.045 191.877,135.540 195.166,134.829 197.563 C 134.350 199.173,134.263 199.221,133.768 198.134 C 133.547 197.648,132.797 196.053,132.100 194.590 C 130.695 191.636,130.689 191.833,132.192 191.428 C 133.323 191.124,133.245 191.125,133.900 191.399 M121.307 192.552 C 120.817 192.947,119.912 193.599,119.295 194.002 C 117.300 195.302,117.235 196.063,118.916 198.417 C 120.818 201.079,121.451 202.053,122.322 203.659 C 123.329 205.516,123.546 205.780,124.175 205.918 C 124.845 206.066,126.633 205.212,127.186 204.481 C 129.862 200.946,130.262 198.591,128.187 198.591 C 127.342 198.591,127.171 198.754,126.067 200.604 C 125.227 202.011,124.833 202.459,124.833 202.008 C 124.833 201.921,124.574 201.419,124.256 200.892 L 123.679 199.934 124.590 198.979 C 125.374 198.157,125.500 197.934,125.500 197.375 C 125.500 195.756,123.728 195.430,122.430 196.810 C 121.920 197.352,121.682 197.319,121.327 196.654 C 121.200 196.418,121.317 196.271,121.961 195.858 C 124.096 194.486,124.729 193.222,123.789 192.208 C 123.208 191.581,122.366 191.697,121.307 192.552 M112.628 196.487 L 112.083 196.975 112.095 198.571 C 112.109 200.483,112.201 200.463,110.526 198.921 C 108.686 197.226,107.580 197.099,106.995 198.513 C 106.196 200.442,110.110 209.270,112.871 211.764 C 114.659 213.380,116.378 211.477,114.865 209.557 C 113.384 207.677,110.989 203.623,111.221 203.390 C 111.250 203.361,111.565 203.487,111.922 203.669 C 113.388 204.417,114.815 203.757,115.076 202.210 L 115.194 201.512 116.972 203.886 C 120.093 208.053,120.553 208.500,121.713 208.500 C 123.248 208.500,123.497 207.007,122.199 205.587 C 121.374 204.684,118.452 200.853,116.780 198.481 C 115.044 196.019,113.812 195.427,112.628 196.487 M82.217 199.489 C 81.726 199.792,81.167 201.002,81.167 201.761 C 81.167 202.413,80.595 203.674,80.347 203.570 C 77.198 202.238,75.167 202.440,75.167 204.083 C 75.167 204.952,75.692 205.394,77.102 205.713 C 78.440 206.015,80.167 206.733,80.167 206.987 C 80.167 207.081,80.374 207.265,80.627 207.396 C 80.972 207.575,81.230 207.983,81.656 209.026 C 81.968 209.791,82.916 211.811,83.763 213.515 C 85.442 216.895,85.833 217.883,85.833 218.743 C 85.833 220.160,87.362 220.831,88.346 219.846 C 89.356 218.836,88.919 217.007,86.524 212.223 C 85.705 210.588,84.730 208.517,84.357 207.620 C 83.984 206.724,83.568 205.833,83.434 205.640 C 83.215 205.328,83.224 205.200,83.520 204.449 C 84.939 200.850,84.251 198.232,82.217 199.489 M71.278 202.042 C 67.902 205.447,66.745 208.909,68.251 211.096 C 69.122 212.360,69.769 212.813,72.759 214.249 C 76.984 216.279,77.965 218.132,76.386 221.106 C 75.260 223.228,76.858 224.949,78.464 223.344 C 81.745 220.063,80.048 214.384,75.083 212.031 C 70.724 209.964,70.333 209.622,70.746 208.230 C 71.056 207.188,71.984 205.761,73.314 204.284 C 75.483 201.873,73.553 199.747,71.278 202.042 M56.249 207.736 C 55.550 208.435,55.563 208.827,56.377 211.727 C 56.793 213.206,57.484 215.692,57.912 217.250 C 58.341 218.808,58.917 220.826,59.192 221.735 C 59.467 222.643,59.760 223.797,59.841 224.299 C 60.236 226.722,62.829 226.488,62.895 224.024 C 62.915 223.266,62.973 223.166,63.873 222.344 L 64.830 221.470 66.123 222.651 C 67.690 224.083,68.275 224.329,69.043 223.880 C 70.347 223.118,70.108 222.307,67.942 220.142 C 66.023 218.224,65.261 217.235,62.358 212.896 C 58.815 207.602,57.497 206.488,56.249 207.736 M50.167 210.150 C 44.929 212.250,44.290 213.090,45.386 216.441 C 45.712 217.436,46.286 219.396,46.662 220.798 C 47.412 223.591,48.115 225.614,48.785 226.909 C 49.126 227.567,49.213 227.955,49.184 228.689 C 49.103 230.784,50.209 230.840,53.590 228.911 C 57.101 226.908,57.674 226.148,56.533 225.008 C 55.849 224.323,55.317 224.356,54.000 225.167 C 52.755 225.933,52.658 225.951,52.250 225.500 C 52.084 225.317,51.812 225.167,51.645 225.167 C 51.282 225.167,51.019 224.682,50.437 222.939 C 49.946 221.468,49.908 221.168,50.208 221.163 C 50.644 221.157,54.079 219.650,54.447 219.304 C 55.019 218.768,54.990 217.648,54.394 217.179 C 53.757 216.677,53.228 216.744,51.146 217.592 C 48.995 218.467,49.171 218.542,48.579 216.500 C 48.327 215.629,48.087 214.826,48.045 214.715 C 47.998 214.590,48.724 214.156,49.934 213.586 C 52.608 212.324,53.025 211.843,52.432 210.697 C 52.012 209.885,51.273 209.706,50.167 210.150 M62.371 219.539 L 61.867 220.043 61.431 218.616 C 60.631 215.992,60.665 215.904,61.833 217.559 L 62.875 219.035 62.371 219.539 " stroke="none" fill="#050505" fill-rule="evenodd"></path><path id="path1" d="M203.250 116.789 C 200.589 122.007,197.571 126.683,194.186 130.833 C 192.270 133.183,189.545 136.448,188.901 137.167 C 188.613 137.487,187.374 138.912,186.147 140.333 C 178.132 149.616,170.873 156.016,164.944 159.025 C 164.188 159.409,163.996 159.582,164.080 159.801 C 164.473 160.821,166.187 166.309,167.343 170.250 C 169.129 176.334,170.370 180.169,171.254 182.333 C 171.647 183.296,172.120 184.496,172.305 185.000 L 172.640 185.917 172.939 185.167 C 173.953 182.621,174.793 181.667,176.019 181.667 C 177.454 181.667,178.174 182.943,179.576 187.973 C 179.977 189.409,180.832 192.158,181.478 194.084 C 182.124 196.009,182.797 198.184,182.975 198.917 C 183.152 199.650,183.596 201.412,183.961 202.833 C 184.614 205.378,184.990 207.031,185.326 208.833 C 185.792 211.341,186.012 212.401,186.078 212.467 C 186.117 212.506,187.748 212.344,189.700 212.106 C 191.653 211.867,194.487 211.593,196.000 211.495 C 197.512 211.398,199.612 211.167,200.667 210.981 C 201.721 210.796,203.183 210.541,203.917 210.416 C 204.650 210.291,206.563 209.928,208.167 209.610 C 210.901 209.067,213.224 208.623,216.167 208.081 C 217.389 207.855,218.630 207.644,222.167 207.061 C 223.229 206.886,224.657 206.784,225.802 206.802 C 227.064 206.822,228.111 206.738,228.969 206.548 C 230.276 206.259,234.501 206.174,239.197 206.342 C 241.456 206.423,241.386 206.455,241.104 205.492 C 240.600 203.770,240.444 201.487,240.639 198.693 C 240.906 194.877,241.344 193.827,243.161 192.650 L 243.572 192.384 242.661 192.176 C 240.340 191.645,235.958 190.048,234.440 189.180 C 231.633 187.574,229.687 183.456,231.251 182.431 C 231.480 182.281,231.667 182.039,231.667 181.891 C 231.667 180.895,234.183 178.195,236.498 176.708 C 238.091 175.684,242.855 173.823,246.078 172.965 C 247.089 172.696,248.479 172.325,249.167 172.140 C 249.854 171.955,250.979 171.696,251.666 171.564 C 252.353 171.432,253.023 171.215,253.156 171.082 C 253.538 170.700,253.275 170.638,252.567 170.943 C 250.242 171.944,247.885 170.799,247.701 168.578 C 247.616 167.559,247.930 166.877,249.312 165.083 C 250.020 164.163,250.042 164.108,249.582 164.397 C 247.817 165.507,246.414 166.863,244.648 169.167 C 242.573 171.874,239.673 173.586,235.750 174.420 C 235.017 174.575,234.192 174.765,233.917 174.840 C 232.166 175.320,229.363 175.121,228.009 174.421 C 227.551 174.185,227.480 174.204,226.314 174.879 C 224.775 175.770,223.859 175.840,223.236 175.116 C 222.386 174.128,222.775 173.150,224.353 172.309 C 224.909 172.013,225.559 171.515,225.797 171.204 C 226.035 170.892,226.684 170.331,227.240 169.958 C 229.591 168.377,230.054 167.803,235.418 159.833 C 236.497 158.229,237.520 156.738,237.690 156.519 C 238.205 155.858,238.098 155.854,235.292 156.429 C 222.087 159.132,219.000 159.145,219.000 156.494 C 219.000 155.343,219.709 154.919,221.320 155.106 L 222.653 155.262 222.557 153.756 C 222.294 149.622,223.743 143.525,226.064 139.000 C 230.183 130.969,230.359 130.472,229.855 128.295 L 229.750 127.840 228.667 128.880 C 225.878 131.557,222.989 131.220,222.154 128.121 C 221.775 126.711,222.525 124.975,225.406 120.601 C 227.706 117.109,227.998 116.581,227.558 116.709 C 219.851 118.952,214.911 120.734,211.667 122.442 C 209.491 123.587,209.646 123.334,209.965 125.208 C 210.296 127.153,210.186 127.617,209.292 128.055 C 208.015 128.680,207.170 127.989,206.853 126.064 C 206.316 122.792,205.920 120.721,204.889 115.792 C 204.546 114.148,204.620 114.102,203.250 116.789 M164.441 151.440 C 164.088 151.847,163.263 152.552,162.608 153.007 C 161.953 153.462,160.892 154.201,160.250 154.648 C 159.608 155.096,157.246 156.384,155.000 157.511 C 152.754 158.637,150.542 159.797,150.083 160.089 C 148.547 161.068,146.025 162.480,145.133 162.861 C 144.185 163.266,142.202 164.398,141.026 165.206 C 139.547 166.223,134.818 168.167,133.824 168.167 C 133.638 168.167,132.945 168.271,132.285 168.398 C 128.796 169.071,128.793 169.072,127.927 168.689 C 125.112 167.443,121.693 163.917,120.917 161.457 C 120.765 160.976,120.606 160.475,120.563 160.343 C 120.484 160.096,119.973 160.881,117.559 164.962 C 109.598 178.417,103.584 183.729,91.750 187.758 C 90.742 188.102,89.891 188.404,89.859 188.430 C 89.511 188.713,92.630 192.063,96.083 195.116 C 98.729 197.454,100.130 198.823,100.920 199.841 C 101.474 200.554,102.202 200.967,103.250 201.163 C 105.396 201.565,106.002 202.530,105.088 204.090 C 104.431 205.212,101.676 206.086,99.458 205.875 C 98.962 205.828,98.667 205.866,98.667 205.978 C 98.667 206.281,99.215 207.375,99.846 208.333 C 100.783 209.754,102.210 212.107,103.082 213.667 C 103.517 214.446,104.162 215.471,104.516 215.946 C 105.731 217.576,107.049 219.918,107.438 221.140 C 107.914 222.632,108.664 224.333,108.846 224.333 C 108.919 224.333,110.053 224.152,111.365 223.930 C 112.677 223.708,115.550 223.256,117.750 222.927 C 122.615 222.197,122.764 222.173,132.833 220.494 C 137.279 219.752,142.567 218.893,144.583 218.584 C 146.600 218.275,149.825 217.756,151.750 217.431 C 153.675 217.105,156.871 216.575,158.852 216.252 C 160.833 215.930,163.271 215.487,164.269 215.269 C 165.267 215.051,166.871 214.744,167.833 214.586 C 168.796 214.428,170.155 214.198,170.853 214.074 C 172.049 213.862,173.221 213.761,179.774 213.311 C 183.089 213.082,182.905 213.191,182.593 211.654 C 182.455 210.973,182.190 209.629,182.004 208.667 C 181.186 204.432,179.776 199.139,178.163 194.250 C 177.437 192.050,176.636 189.481,176.383 188.542 C 175.824 186.464,175.901 186.466,174.934 188.497 C 174.091 190.269,173.602 190.784,172.611 190.945 C 171.266 191.163,170.644 190.318,169.418 186.605 C 169.021 185.402,168.502 184.004,168.265 183.500 C 167.642 182.174,165.336 174.967,163.412 168.333 C 162.519 165.254,161.969 163.541,160.577 159.502 C 159.901 157.541,159.908 157.039,160.617 156.298 C 161.125 155.768,162.048 155.665,162.593 156.078 C 163.057 156.429,163.195 156.401,164.321 155.731 L 165.333 155.128 165.333 152.990 C 165.333 150.515,165.298 150.453,164.441 151.440 M206.250 152.420 C 211.608 154.552,219.397 160.504,221.117 163.780 C 222.878 167.135,222.387 171.710,219.995 174.240 C 217.956 176.396,216.927 175.887,212.090 170.333 C 211.331 169.462,210.059 168.075,209.262 167.250 C 207.614 165.544,205.187 162.387,203.026 159.136 C 202.215 157.915,201.094 156.372,200.536 155.706 C 199.416 154.369,199.250 154.023,199.415 153.363 C 199.660 152.381,200.707 151.913,201.630 152.373 C 202.079 152.597,202.144 152.586,202.589 152.203 C 203.210 151.669,204.564 151.749,206.250 152.420 M204.629 155.792 C 204.898 156.135,205.327 156.754,205.581 157.167 C 206.138 158.070,208.082 160.838,209.209 162.333 C 209.658 162.929,210.792 164.204,211.728 165.167 C 212.664 166.129,213.791 167.367,214.232 167.917 C 214.976 168.846,217.801 171.833,217.935 171.833 C 218.093 171.833,218.837 170.119,218.923 169.555 C 219.109 168.347,218.728 166.063,218.182 165.115 C 216.684 162.509,209.397 157.079,205.205 155.444 C 204.171 155.041,204.082 155.094,204.629 155.792 M197.955 156.401 C 200.225 156.888,201.522 158.732,202.000 162.151 C 202.536 165.981,203.617 167.148,209.417 170.157 C 214.277 172.679,215.124 173.568,213.867 174.826 C 213.031 175.661,211.828 175.420,209.750 173.999 C 209.383 173.749,208.371 173.186,207.500 172.749 C 206.629 172.313,205.504 171.678,205.000 171.340 C 203.669 170.446,203.526 170.374,203.854 170.763 C 207.546 175.140,208.799 178.137,207.771 180.127 C 206.897 181.815,204.514 181.499,204.647 179.713 C 204.795 177.738,204.772 177.614,204.053 176.403 C 202.847 174.373,198.374 168.932,195.155 165.579 C 190.419 160.646,190.003 158.625,193.393 157.014 C 195.344 156.087,196.049 155.992,197.955 156.401 M195.333 159.606 C 195.012 159.749,194.723 159.891,194.691 159.922 C 194.659 159.953,195.047 160.527,195.555 161.198 C 196.560 162.525,199.443 165.434,199.276 164.953 C 199.219 164.789,199.092 164.152,198.994 163.536 C 198.447 160.112,198.168 159.624,196.646 159.437 C 196.171 159.379,195.713 159.438,195.333 159.606 M189.252 161.031 C 189.491 161.140,190.087 161.833,190.578 162.573 C 191.803 164.419,192.823 165.875,196.310 170.750 C 201.520 178.037,202.434 179.283,202.866 179.692 C 203.123 179.935,203.333 180.220,203.333 180.325 C 203.333 180.431,203.933 181.592,204.667 182.907 C 206.128 185.525,206.273 186.133,205.675 187.114 C 204.758 188.618,202.232 187.977,202.561 186.324 C 202.619 186.029,202.440 185.516,201.977 184.657 C 201.030 182.901,201.049 182.914,199.977 183.223 C 199.485 183.365,198.690 183.533,198.208 183.595 C 197.727 183.658,197.333 183.780,197.333 183.865 C 197.333 184.135,198.172 187.014,198.765 188.776 C 199.472 190.883,199.514 191.927,198.917 192.636 C 197.873 193.877,196.167 193.172,196.167 191.499 C 196.167 191.236,195.985 190.509,195.763 189.885 C 195.344 188.707,194.770 186.772,193.752 183.107 C 192.612 179.007,190.448 173.226,189.064 170.583 C 188.584 169.667,187.914 168.242,187.576 167.417 C 187.237 166.592,186.782 165.563,186.564 165.131 C 186.057 164.127,186.062 163.540,186.583 162.833 C 186.813 162.523,187.000 162.130,187.000 161.960 C 187.000 161.133,188.300 160.597,189.252 161.031 M182.505 163.615 C 183.041 163.982,183.110 164.092,183.434 165.083 C 183.583 165.542,184.140 167.192,184.670 168.750 C 185.201 170.308,186.024 172.802,186.500 174.292 C 187.154 176.340,187.432 177.001,187.641 177.005 C 188.580 177.023,189.140 178.491,188.602 179.523 C 188.390 179.929,188.452 180.172,189.438 182.773 C 190.024 184.319,190.659 186.033,190.850 186.583 C 191.040 187.133,191.462 188.221,191.786 189.000 C 193.373 192.809,194.109 195.584,193.755 196.431 C 193.031 198.163,191.120 197.721,190.676 195.718 C 190.418 194.551,189.444 191.694,188.529 189.417 C 188.161 188.500,187.477 186.737,187.009 185.500 C 186.541 184.262,186.104 183.122,186.037 182.965 C 185.936 182.726,185.777 182.814,185.038 183.523 L 184.158 184.365 185.498 187.516 C 189.253 196.347,190.128 199.398,189.179 200.346 C 188.021 201.505,186.973 200.869,186.271 198.581 C 185.539 196.194,184.095 192.414,182.166 187.833 C 181.182 185.496,179.920 182.495,179.362 181.166 C 178.804 179.836,177.524 176.649,176.518 174.082 C 175.512 171.516,174.418 168.748,174.087 167.931 C 173.314 166.021,173.505 165.148,174.779 164.762 C 175.952 164.407,176.442 165.063,178.017 169.104 C 179.312 172.425,182.208 179.702,182.579 180.566 L 182.858 181.215 183.812 180.271 L 184.766 179.327 183.618 175.789 C 182.986 173.842,182.033 170.975,181.499 169.417 C 179.919 164.799,179.863 164.282,180.884 163.659 C 181.539 163.260,181.968 163.248,182.505 163.615 M193.768 173.078 C 193.915 173.442,194.319 174.567,194.666 175.578 C 195.014 176.589,195.538 178.110,195.831 178.958 L 196.363 180.500 196.973 180.496 C 197.604 180.492,198.796 180.260,198.943 180.112 C 198.990 180.066,198.521 179.328,197.903 178.473 C 197.285 177.617,196.160 176.054,195.405 175.000 C 193.464 172.293,193.441 172.266,193.768 173.078 M162.690 177.969 C 163.345 178.666,163.897 180.198,164.413 182.750 C 164.562 183.483,164.829 184.675,165.008 185.398 C 165.508 187.417,165.390 188.269,164.557 188.648 C 163.108 189.309,162.168 188.273,161.749 185.555 L 161.642 184.860 161.048 185.263 C 160.364 185.728,159.484 185.787,158.774 185.416 C 158.434 185.239,158.323 185.227,158.384 185.376 C 160.298 190.023,160.440 191.201,159.205 192.172 C 158.025 193.101,156.123 191.846,156.642 190.481 C 156.761 190.168,156.651 189.714,156.141 188.415 C 152.950 180.281,152.813 179.617,154.182 178.909 C 155.246 178.358,156.097 178.774,158.070 180.807 C 159.031 181.798,159.165 181.774,159.171 180.615 C 159.185 177.572,161.021 176.191,162.690 177.969 M144.846 182.987 C 145.939 184.080,145.435 185.051,143.235 186.086 C 141.454 186.924,141.542 186.809,142.058 187.628 C 142.516 188.355,143.481 190.750,143.988 192.417 C 144.498 194.096,144.504 194.101,145.255 193.591 C 146.455 192.776,147.466 192.902,147.955 193.926 C 148.446 194.956,147.801 195.906,145.813 197.079 C 145.297 197.383,144.223 198.165,143.426 198.816 C 141.752 200.185,141.016 200.364,140.242 199.591 C 139.507 198.855,139.657 197.932,140.668 196.983 L 141.503 196.199 141.349 195.141 C 141.173 193.926,140.256 191.154,139.612 189.887 C 139.152 188.982,138.797 188.752,138.120 188.922 C 136.977 189.209,135.802 188.416,135.773 187.339 C 135.748 186.384,136.293 185.923,139.083 184.538 C 143.841 182.177,143.995 182.136,144.846 182.987 M151.657 184.125 C 151.946 184.393,152.470 185.310,152.918 186.333 C 153.352 187.325,153.986 188.440,154.380 188.908 C 155.867 190.671,154.616 192.591,152.645 191.572 C 152.247 191.366,152.030 191.348,151.628 191.489 C 148.962 192.418,145.000 189.226,145.000 186.150 C 145.000 183.899,147.567 184.099,148.415 186.417 C 148.701 187.197,149.901 188.655,150.097 188.459 C 150.145 188.410,149.919 187.847,149.593 187.207 C 148.316 184.702,149.833 182.437,151.657 184.125 M134.242 188.249 C 136.875 188.696,138.233 191.077,138.234 195.250 C 138.235 198.855,136.659 202.148,134.914 202.185 C 132.623 202.233,131.333 201.664,131.333 200.605 C 131.333 200.391,130.933 199.399,130.444 198.400 C 127.216 191.805,126.999 191.090,127.924 190.091 C 128.708 189.245,132.385 187.881,133.333 188.084 C 133.471 188.113,133.880 188.188,134.242 188.249 M84.583 190.074 C 80.791 191.323,70.833 194.509,69.750 194.820 C 69.108 195.004,65.208 196.163,61.083 197.396 C 47.784 201.371,39.999 203.500,38.765 203.500 C 38.062 203.500,38.064 203.481,38.497 205.284 C 38.825 206.653,38.934 207.294,39.738 212.583 C 41.123 221.703,41.353 223.015,42.826 230.205 C 43.364 232.829,44.332 237.000,44.404 237.000 C 44.428 237.000,44.891 236.847,45.432 236.660 C 49.556 235.235,55.843 233.670,64.151 232.003 C 68.581 231.114,71.310 230.608,78.083 229.423 C 80.515 228.998,97.457 226.189,102.466 225.382 C 104.819 225.002,105.335 224.871,105.273 224.667 C 104.434 221.919,103.259 219.558,101.736 217.556 C 101.446 217.175,100.812 216.162,100.328 215.306 C 99.289 213.470,97.861 211.116,97.008 209.833 C 94.049 205.386,94.504 201.786,97.938 202.476 C 98.461 202.581,98.919 202.637,98.955 202.601 C 99.137 202.419,96.553 199.795,93.899 197.466 C 90.787 194.734,88.358 192.171,87.288 190.489 C 86.558 189.343,86.727 189.368,84.583 190.074 M131.783 191.603 C 130.804 191.903,130.733 191.598,132.741 195.750 L 134.273 198.917 134.675 197.750 C 135.138 196.407,135.203 194.685,134.851 193.101 C 134.472 191.393,133.697 191.014,131.783 191.603 M123.846 192.154 C 124.849 193.157,123.889 195.020,121.817 196.092 C 121.276 196.372,121.248 196.457,121.565 196.875 C 121.862 197.266,121.868 197.264,122.687 196.500 C 124.459 194.847,126.573 196.532,125.166 198.475 C 124.890 198.855,124.599 199.167,124.518 199.167 C 123.911 199.167,123.821 200.022,124.335 200.920 C 125.051 202.172,125.017 202.182,126.070 200.417 C 127.088 198.711,127.328 198.500,128.247 198.500 C 129.687 198.500,130.062 199.837,129.109 201.569 C 127.298 204.860,126.092 206.000,124.421 206.000 C 123.628 206.000,123.314 205.654,122.074 203.417 C 121.465 202.317,120.543 200.834,120.025 200.121 C 117.794 197.051,117.667 196.833,117.667 196.087 C 117.667 195.174,118.063 194.671,119.520 193.737 C 120.144 193.337,120.939 192.756,121.286 192.446 C 122.349 191.495,123.101 191.409,123.846 192.154 M114.646 196.073 C 115.295 196.408,116.040 197.274,117.894 199.848 C 120.095 202.904,121.437 204.638,122.375 205.640 C 123.387 206.721,123.475 207.544,122.654 208.235 C 121.402 209.288,120.487 208.706,117.832 205.167 C 117.247 204.387,116.418 203.283,115.989 202.713 L 115.209 201.676 115.119 202.351 C 114.911 203.899,113.376 204.535,111.795 203.727 C 111.348 203.499,111.343 203.503,111.495 203.904 C 112.004 205.242,113.807 208.138,115.078 209.660 C 116.817 211.741,114.329 213.557,112.479 211.557 C 110.537 209.456,107.966 204.445,107.075 201.026 C 106.156 197.498,107.905 196.333,110.489 198.750 C 112.117 200.272,111.988 200.286,111.949 198.598 C 111.898 196.377,113.085 195.265,114.646 196.073 M84.013 199.654 C 84.693 200.334,84.581 201.752,83.641 204.357 C 83.331 205.216,83.324 205.331,83.559 205.690 C 83.700 205.906,84.113 206.796,84.475 207.667 C 84.838 208.537,85.888 210.773,86.809 212.636 C 89.164 217.401,89.494 219.158,88.224 220.158 C 87.106 221.037,85.924 220.240,85.677 218.440 C 85.546 217.490,85.182 216.600,83.526 213.190 C 82.429 210.931,81.436 208.807,81.319 208.469 C 80.910 207.281,78.073 205.667,76.396 205.667 C 75.835 205.667,75.000 204.822,75.000 204.255 C 75.000 202.529,76.432 202.126,79.212 203.070 C 80.663 203.563,80.678 203.553,81.089 201.695 C 81.646 199.175,82.758 198.399,84.013 199.654 M74.013 201.487 C 74.847 202.321,74.680 202.971,73.231 204.545 C 71.728 206.176,70.667 207.978,70.667 208.898 C 70.667 209.637,71.591 210.293,74.554 211.658 C 77.557 213.042,79.005 214.481,79.831 216.901 C 81.016 220.373,78.621 225.179,76.423 223.739 C 75.619 223.212,75.567 222.085,76.298 221.042 C 78.013 218.598,76.689 216.126,72.706 214.333 C 67.263 211.884,66.222 209.376,68.827 204.991 C 70.711 201.820,72.880 200.354,74.013 201.487 M59.169 208.451 C 59.766 209.074,61.259 211.083,62.487 212.917 C 65.556 217.499,65.810 217.829,67.900 219.955 C 70.211 222.306,70.401 222.781,69.417 223.764 C 68.596 224.586,67.535 224.191,65.840 222.436 C 64.929 221.492,64.944 221.492,63.872 222.430 C 63.064 223.136,63.000 223.247,63.000 223.938 C 63.000 225.292,62.400 226.000,61.253 226.000 C 60.451 226.000,59.833 225.396,59.833 224.612 C 59.833 224.298,59.723 223.728,59.588 223.345 C 59.333 222.623,58.430 219.463,57.084 214.583 C 56.654 213.025,56.160 211.273,55.985 210.691 C 54.966 207.296,56.814 205.995,59.169 208.451 M52.210 210.257 C 52.706 210.716,52.825 211.560,52.484 212.196 C 52.380 212.392,51.395 212.973,50.171 213.563 L 48.039 214.589 48.261 215.170 C 48.383 215.489,48.644 216.294,48.841 216.958 C 49.263 218.383,49.068 218.341,51.205 217.465 C 53.789 216.405,55.000 216.652,55.000 218.237 C 55.000 219.300,54.580 219.574,50.297 221.301 C 50.035 221.407,50.053 221.541,50.508 222.891 C 51.134 224.747,51.272 225.000,51.655 225.000 C 51.826 225.000,52.139 225.181,52.352 225.402 C 52.788 225.855,53.120 225.763,54.315 224.854 C 55.779 223.741,57.648 225.004,56.897 226.598 C 56.572 227.288,54.590 228.612,51.714 230.062 C 50.085 230.883,48.869 230.261,49.048 228.700 C 49.123 228.047,49.047 227.723,48.588 226.750 C 47.869 225.227,47.228 223.287,46.182 219.475 C 45.714 217.765,45.218 216.099,45.082 215.772 C 44.163 213.574,44.913 212.474,48.452 210.828 C 50.875 209.701,51.507 209.605,52.210 210.257 M61.057 216.917 C 61.110 217.100,61.304 217.804,61.489 218.482 C 61.895 219.970,61.856 219.925,62.319 219.432 C 62.746 218.977,62.690 218.784,61.780 217.583 C 61.057 216.631,60.947 216.529,61.057 216.917 " stroke="none" fill="#b3bbc3" fill-rule="evenodd"></path><path id="path2" d="M178.663 148.292 L 177.250 149.750 178.708 148.337 C 180.063 147.025,180.243 146.833,180.121 146.833 C 180.096 146.833,179.440 147.490,178.663 148.292 M222.561 152.750 C 222.561 153.667,222.589 154.020,222.623 153.536 C 222.657 153.052,222.656 152.302,222.622 151.869 C 222.588 151.437,222.560 151.833,222.561 152.750 M165.379 152.667 C 165.379 153.079,165.411 153.248,165.451 153.042 C 165.491 152.835,165.491 152.498,165.451 152.292 C 165.411 152.085,165.379 152.254,165.379 152.667 M222.208 158.455 C 222.552 158.491,223.115 158.491,223.458 158.455 C 223.802 158.419,223.521 158.389,222.833 158.389 C 222.146 158.389,221.865 158.419,222.208 158.455 M211.167 164.750 C 211.478 165.071,211.770 165.333,211.815 165.333 C 211.861 165.333,211.644 165.071,211.333 164.750 C 211.022 164.429,210.730 164.167,210.685 164.167 C 210.639 164.167,210.856 164.429,211.167 164.750 M210.333 168.385 C 210.333 168.414,210.577 168.658,210.875 168.927 L 211.417 169.417 210.927 168.875 C 210.471 168.370,210.333 168.257,210.333 168.385 M128.708 168.948 C 128.869 168.990,129.131 168.990,129.292 168.948 C 129.452 168.906,129.321 168.872,129.000 168.872 C 128.679 168.872,128.548 168.906,128.708 168.948 M243.491 170.458 L 242.917 171.083 243.542 170.509 C 244.123 169.974,244.243 169.833,244.116 169.833 C 244.088 169.833,243.807 170.115,243.491 170.458 M108.833 177.083 C 108.428 177.496,108.135 177.833,108.181 177.833 C 108.226 177.833,108.595 177.496,109.000 177.083 C 109.405 176.671,109.699 176.333,109.653 176.333 C 109.607 176.333,109.238 176.671,108.833 177.083 M106.740 179.208 L 106.250 179.750 106.792 179.260 C 107.090 178.991,107.333 178.748,107.333 178.719 C 107.333 178.590,107.196 178.703,106.740 179.208 M184.240 179.875 L 183.750 180.417 184.292 179.927 C 184.797 179.471,184.910 179.333,184.781 179.333 C 184.752 179.333,184.509 179.577,184.240 179.875 M240.560 201.000 C 240.560 201.871,240.588 202.227,240.623 201.792 C 240.657 201.356,240.657 200.644,240.623 200.208 C 240.588 199.773,240.560 200.129,240.560 201.000 M73.573 204.042 L 73.083 204.583 73.625 204.094 C 74.130 203.638,74.243 203.500,74.115 203.500 C 74.086 203.500,73.842 203.744,73.573 204.042 M194.708 211.615 C 194.869 211.657,195.131 211.657,195.292 211.615 C 195.452 211.573,195.321 211.539,195.000 211.539 C 194.679 211.539,194.548 211.573,194.708 211.615 M185.886 212.248 C 185.906 212.442,186.058 212.594,186.252 212.614 C 186.492 212.638,186.506 212.624,186.302 212.564 C 186.147 212.517,185.983 212.353,185.936 212.198 C 185.876 211.994,185.862 212.008,185.886 212.248 M175.375 213.615 C 175.535 213.657,175.798 213.657,175.958 213.615 C 176.119 213.573,175.987 213.539,175.667 213.539 C 175.346 213.539,175.215 213.573,175.375 213.615 M88.872 218.500 C 88.872 218.821,88.906 218.952,88.948 218.792 C 88.990 218.631,88.990 218.369,88.948 218.208 C 88.906 218.048,88.872 218.179,88.872 218.500 M62.576 218.804 C 62.652 218.937,62.548 219.202,62.314 219.471 L 61.926 219.917 62.415 219.461 C 62.823 219.081,62.867 218.969,62.678 218.794 C 62.494 218.623,62.475 218.625,62.576 218.804 M67.833 220.083 C 68.144 220.404,68.436 220.667,68.482 220.667 C 68.528 220.667,68.311 220.404,68.000 220.083 C 67.689 219.762,67.397 219.500,67.351 219.500 C 67.305 219.500,67.522 219.762,67.833 220.083 " stroke="none" fill="#74767d" fill-rule="evenodd"></path><path id="path3" d="M216.417 170.500 C 216.775 170.867,217.105 171.167,217.151 171.167 C 217.197 171.167,216.941 170.867,216.583 170.500 C 216.225 170.133,215.895 169.833,215.849 169.833 C 215.803 169.833,216.059 170.133,216.417 170.500 " stroke="none" fill="#5c5c64" fill-rule="evenodd"></path><path id="path4" d="M182.073 144.708 L 181.583 145.250 182.125 144.760 C 182.630 144.304,182.743 144.167,182.615 144.167 C 182.586 144.167,182.342 144.410,182.073 144.708 M165.320 154.708 C 165.271 155.066,165.296 155.271,165.380 155.187 C 165.460 155.106,165.499 154.825,165.466 154.562 C 165.411 154.121,165.400 154.133,165.320 154.708 M196.167 162.219 C 196.167 162.248,196.410 162.491,196.708 162.760 L 197.250 163.250 196.760 162.708 C 196.304 162.203,196.167 162.090,196.167 162.219 M194.667 165.083 C 195.165 165.587,195.609 166.000,195.655 166.000 C 195.701 166.000,195.331 165.587,194.833 165.083 C 194.335 164.579,193.891 164.167,193.845 164.167 C 193.799 164.167,194.169 164.579,194.667 165.083 M246.667 166.583 C 246.262 166.996,245.968 167.333,246.014 167.333 C 246.060 167.333,246.428 166.996,246.833 166.583 C 247.238 166.171,247.532 165.833,247.486 165.833 C 247.440 165.833,247.072 166.171,246.667 166.583 M222.050 168.833 C 222.050 169.337,222.081 169.544,222.119 169.292 C 222.158 169.040,222.158 168.627,222.119 168.375 C 222.081 168.123,222.050 168.329,222.050 168.833 M110.333 198.719 C 110.333 198.748,110.577 198.991,110.875 199.260 L 111.417 199.750 110.927 199.208 C 110.471 198.703,110.333 198.590,110.333 198.719 M96.000 199.219 C 96.000 199.248,96.244 199.491,96.542 199.760 L 97.083 200.250 96.594 199.708 C 96.138 199.203,96.000 199.090,96.000 199.219 M226.627 206.951 C 226.834 206.991,227.134 206.990,227.294 206.948 C 227.453 206.906,227.283 206.874,226.917 206.875 C 226.550 206.877,226.420 206.911,226.627 206.951 " stroke="none" fill="#565c5c" fill-rule="evenodd"></path></g></svg>