<svg id="svg" version="1.1" xmlns="http://www.w3.org/2000/svg" xmlns:xlink="http://www.w3.org/1999/xlink" width="400" height="400" viewBox="0, 0, 400,400"><g id="svgg"><path id="path0" d="M204.062 108.324 C 203.589 108.536,203.326 108.790,203.169 109.187 C 202.144 111.787,199.213 117.563,197.443 120.473 C 196.960 121.267,196.521 122.029,196.468 122.167 C 196.391 122.362,193.837 125.958,193.212 126.750 C 193.140 126.842,192.669 127.441,192.165 128.082 C 191.105 129.432,190.682 129.951,190.333 130.326 C 190.196 130.474,189.664 131.117,189.151 131.756 C 188.638 132.394,187.953 133.217,187.628 133.583 C 187.303 133.950,186.270 135.150,185.333 136.250 C 181.133 141.179,175.625 146.957,172.583 149.626 C 170.772 151.216,168.755 152.691,168.710 152.458 C 168.688 152.344,168.588 151.237,168.488 150.000 C 168.119 145.424,168.114 145.392,167.679 144.930 C 167.082 144.294,165.986 144.322,165.318 144.990 C 165.049 145.259,164.683 145.525,164.505 145.582 C 164.028 145.733,163.333 146.631,163.333 147.096 C 163.333 147.318,163.263 147.500,163.178 147.500 C 163.092 147.500,162.971 147.663,162.908 147.862 C 162.844 148.061,162.726 148.305,162.644 148.404 C 162.563 148.503,162.341 148.790,162.152 149.043 C 161.963 149.295,161.157 149.963,160.362 150.526 C 159.567 151.089,158.879 151.596,158.833 151.653 C 158.645 151.889,157.614 152.471,155.167 153.725 C 153.746 154.453,152.171 155.262,151.667 155.522 C 151.162 155.783,150.695 155.997,150.628 155.998 C 150.561 155.999,150.016 156.300,149.417 156.667 C 148.818 157.033,148.294 157.333,148.252 157.333 C 148.211 157.333,147.649 157.675,147.005 158.092 C 146.360 158.509,145.026 159.236,144.041 159.707 C 142.270 160.555,140.219 161.719,139.250 162.428 C 137.976 163.359,134.353 164.770,132.589 165.022 C 128.493 165.606,128.850 165.635,127.583 164.626 C 123.935 161.724,123.192 159.698,123.670 153.962 C 123.745 153.064,123.719 152.976,123.219 152.476 C 122.272 151.528,120.333 151.943,120.333 153.093 C 120.333 153.225,120.267 153.333,120.186 153.333 C 120.037 153.333,118.864 155.639,118.151 157.333 C 117.789 158.194,116.395 160.650,116.165 160.833 C 116.025 160.945,114.004 164.331,113.330 165.583 C 112.405 167.304,110.620 169.997,109.134 171.917 C 107.661 173.819,105.151 176.339,102.654 178.422 C 99.354 181.174,90.132 185.500,87.565 185.500 C 87.218 185.500,86.734 185.669,86.369 185.917 C 86.032 186.146,85.684 186.333,85.596 186.333 C 85.408 186.333,81.762 187.495,75.917 189.417 C 73.625 190.170,70.400 191.177,68.750 191.655 C 67.100 192.132,65.563 192.587,65.333 192.665 C 65.104 192.744,64.354 192.970,63.667 193.167 C 62.979 193.364,62.229 193.589,62.000 193.667 C 61.771 193.745,61.021 193.970,60.333 194.167 C 59.646 194.364,58.896 194.589,58.667 194.667 C 58.438 194.745,57.725 194.961,57.083 195.146 C 56.442 195.332,55.017 195.757,53.917 196.091 C 52.817 196.425,51.523 196.803,51.042 196.932 C 49.369 197.380,48.411 197.647,47.500 197.920 C 46.183 198.314,45.249 198.568,41.500 199.551 C 40.629 199.779,39.354 200.053,38.667 200.160 C 34.803 200.762,34.303 201.762,35.411 206.684 C 35.656 207.770,35.958 209.568,36.417 212.667 C 36.546 213.537,36.768 214.963,36.911 215.833 C 37.053 216.704,37.241 217.942,37.328 218.583 C 37.553 220.250,38.251 224.233,38.744 226.667 C 39.883 232.285,40.485 235.078,40.901 236.667 C 41.032 237.171,41.297 238.183,41.488 238.917 C 41.999 240.879,43.093 241.550,44.336 240.665 C 45.209 240.043,50.670 238.398,56.250 237.074 C 58.814 236.467,59.470 236.320,60.750 236.066 C 61.483 235.921,62.571 235.703,63.167 235.583 C 63.762 235.463,64.887 235.238,65.667 235.083 C 66.446 234.928,67.571 234.703,68.167 234.583 C 71.022 234.008,73.485 233.557,76.333 233.087 C 77.112 232.959,79.100 232.619,80.750 232.333 C 82.400 232.047,84.425 231.702,85.250 231.567 C 86.075 231.432,87.388 231.214,88.167 231.083 C 91.399 230.542,93.709 230.160,97.250 229.585 C 98.075 229.451,99.425 229.230,100.250 229.094 C 101.075 228.957,102.425 228.734,103.250 228.598 C 104.075 228.462,105.200 228.272,105.750 228.176 C 106.300 228.080,107.111 228.001,107.553 228.001 C 107.994 228.000,108.489 227.928,108.652 227.841 C 108.816 227.754,109.429 227.600,110.016 227.500 C 112.401 227.092,114.167 226.805,115.708 226.576 C 116.602 226.442,118.065 226.224,118.958 226.091 C 121.190 225.758,125.668 225.048,128.417 224.591 C 129.242 224.454,130.610 224.228,131.458 224.088 C 135.241 223.464,136.005 223.335,137.417 223.086 C 139.800 222.665,141.793 222.336,143.500 222.083 C 145.540 221.781,147.851 221.416,149.792 221.091 C 153.364 220.493,154.474 220.312,155.500 220.161 C 156.096 220.074,157.221 219.891,158.000 219.755 C 158.779 219.620,160.129 219.389,161.000 219.244 C 161.871 219.098,163.296 218.830,164.167 218.648 C 166.745 218.109,168.154 217.849,169.870 217.597 C 170.762 217.466,171.550 217.322,171.621 217.278 C 171.737 217.206,173.190 217.091,181.402 216.504 C 182.832 216.402,183.660 216.407,183.870 216.520 C 184.248 216.722,185.141 216.559,185.529 216.217 C 185.686 216.079,186.565 215.866,187.529 215.733 C 188.476 215.602,189.775 215.420,190.417 215.329 C 191.058 215.237,193.121 215.049,195.000 214.910 C 198.582 214.646,199.881 214.497,202.083 214.095 C 203.764 213.789,206.072 213.366,207.583 213.089 C 208.225 212.971,209.575 212.711,210.583 212.512 C 213.597 211.915,214.670 211.710,216.333 211.415 C 217.204 211.260,218.442 211.032,219.083 210.908 C 219.725 210.784,220.700 210.634,221.250 210.576 C 221.800 210.518,222.549 210.394,222.915 210.301 C 223.280 210.209,224.817 210.111,226.331 210.085 C 228.301 210.051,229.391 209.955,230.167 209.746 C 231.126 209.488,231.717 209.469,235.333 209.578 C 237.579 209.646,239.604 209.706,239.833 209.711 C 241.662 209.756,244.342 209.502,244.731 209.247 C 245.601 208.677,245.614 206.733,244.756 205.667 C 244.051 204.790,243.788 202.526,243.978 198.958 C 244.148 195.751,244.069 195.925,245.852 194.896 C 248.482 193.379,249.366 191.831,248.306 190.599 C 247.893 190.119,247.644 190.031,244.225 189.167 C 242.124 188.636,239.500 187.847,239.250 187.671 C 239.158 187.607,238.596 187.377,238.000 187.159 C 235.885 186.389,234.386 185.152,234.143 183.978 C 233.833 182.484,238.428 179.006,242.583 177.590 C 243.317 177.340,244.142 177.033,244.417 176.908 C 244.692 176.784,245.517 176.524,246.250 176.331 C 246.983 176.138,248.146 175.824,248.833 175.633 C 249.521 175.442,250.908 175.112,251.917 174.898 C 255.536 174.133,256.176 173.526,256.901 170.167 C 257.609 166.888,256.082 165.332,253.635 166.837 C 252.157 167.746,251.013 167.983,251.809 167.215 C 252.224 166.814,254.000 164.386,254.001 164.217 C 254.001 164.144,254.226 163.746,254.500 163.333 C 255.447 161.909,254.946 160.359,253.449 160.078 C 251.058 159.630,247.548 161.259,244.663 164.157 C 243.160 165.665,242.953 165.903,241.885 167.343 C 240.750 168.875,238.019 170.564,236.000 170.984 C 235.588 171.070,234.511 171.296,233.609 171.487 C 232.706 171.677,231.593 171.833,231.136 171.833 L 230.303 171.833 231.140 171.172 C 231.600 170.808,232.243 170.152,232.569 169.714 C 232.895 169.275,233.228 168.836,233.309 168.739 C 233.562 168.433,234.893 166.505,236.351 164.333 C 237.120 163.188,237.791 162.212,237.842 162.167 C 237.893 162.121,238.114 161.783,238.333 161.417 C 238.553 161.050,238.778 160.712,238.833 160.667 C 238.889 160.621,239.115 160.283,239.336 159.917 C 239.557 159.550,239.841 159.144,239.967 159.015 C 240.093 158.886,240.388 158.473,240.622 158.098 C 241.291 157.027,242.620 155.403,243.688 154.352 C 245.787 152.285,244.358 150.212,241.646 151.389 C 241.153 151.602,240.075 151.945,239.250 152.149 C 238.425 152.354,237.458 152.598,237.101 152.691 C 236.745 152.785,236.107 152.922,235.685 152.996 C 235.262 153.070,234.167 153.283,233.250 153.470 C 225.159 155.117,226.051 155.055,225.918 153.975 C 225.792 152.945,226.075 148.900,226.343 147.917 C 226.730 146.496,227.202 144.902,227.331 144.583 C 227.405 144.400,227.709 143.575,228.007 142.750 C 228.522 141.320,229.062 140.218,230.400 137.859 C 230.730 137.277,231.000 136.772,231.000 136.737 C 231.000 136.701,231.229 136.202,231.510 135.628 C 233.298 131.966,233.484 131.249,233.233 129.000 C 232.626 123.574,230.311 121.569,228.075 124.531 C 227.100 125.823,226.396 126.590,225.782 127.033 L 225.313 127.370 225.582 126.727 C 225.873 126.030,226.654 124.635,226.829 124.500 C 226.888 124.454,227.230 123.929,227.588 123.333 C 227.946 122.737,228.628 121.681,229.104 120.986 C 230.157 119.447,231.667 116.536,231.667 116.045 C 231.667 115.848,231.742 115.640,231.833 115.583 C 231.925 115.527,232.000 115.103,232.000 114.641 C 232.000 113.171,230.941 112.278,229.750 112.742 C 229.475 112.849,228.800 113.035,228.250 113.154 C 227.700 113.273,226.800 113.503,226.250 113.665 C 225.700 113.827,224.950 114.042,224.583 114.143 C 223.551 114.426,220.205 115.487,219.000 115.912 C 214.675 117.438,214.409 117.537,212.833 118.215 C 212.421 118.392,211.423 118.863,210.617 119.261 C 209.650 119.739,209.130 119.917,209.091 119.784 C 209.058 119.674,208.865 118.796,208.662 117.833 C 208.458 116.871,208.188 115.596,208.061 115.000 C 207.934 114.404,207.723 113.392,207.593 112.750 C 206.910 109.381,206.621 108.812,205.319 108.268 C 204.789 108.047,204.669 108.052,204.062 108.324 M205.733 119.583 C 206.130 121.505,206.497 123.531,206.864 125.833 C 207.143 127.581,207.584 128.167,208.619 128.167 C 209.901 128.167,210.260 127.337,209.897 125.211 L 209.625 123.616 210.021 123.306 C 210.749 122.734,214.726 120.876,216.917 120.084 C 221.709 118.351,227.584 116.528,227.772 116.716 C 227.895 116.839,227.240 117.943,225.281 120.917 C 224.375 122.292,223.325 124.017,222.947 124.750 C 220.456 129.581,224.671 132.759,228.496 128.933 C 229.182 128.248,229.763 127.707,229.788 127.732 C 229.813 127.757,229.916 128.392,230.017 129.144 C 230.255 130.910,230.166 131.140,226.481 138.333 C 223.864 143.443,222.762 147.544,222.755 152.208 C 222.749 155.730,222.881 155.460,221.315 155.163 C 219.833 154.882,218.822 155.642,219.085 156.841 C 219.358 158.082,220.517 158.430,223.900 158.286 C 226.075 158.193,226.839 158.066,234.726 156.479 C 236.547 156.113,238.061 155.839,238.092 155.869 C 238.122 155.900,237.032 157.573,235.669 159.587 C 230.069 167.862,229.627 168.415,227.402 169.914 C 226.860 170.280,226.079 170.928,225.667 171.354 C 225.254 171.781,224.538 172.319,224.075 172.551 C 222.759 173.209,222.476 174.168,223.341 175.033 C 224.047 175.739,225.099 175.647,226.433 174.761 L 227.369 174.139 228.310 174.477 C 230.139 175.133,231.848 175.211,234.021 174.735 C 234.697 174.587,235.745 174.367,236.349 174.246 C 239.654 173.585,242.495 171.761,244.907 168.750 C 246.185 167.154,247.794 165.531,248.700 164.923 C 250.407 163.777,250.470 163.772,249.562 164.859 C 248.186 166.506,247.752 167.347,247.756 168.356 C 247.767 170.610,249.873 171.799,252.313 170.927 C 253.216 170.604,253.516 170.597,253.399 170.901 C 253.281 171.211,252.627 171.470,251.500 171.655 C 250.996 171.738,249.477 172.112,248.126 172.486 C 246.774 172.861,245.591 173.167,245.498 173.167 C 244.937 173.167,238.485 175.654,237.167 176.378 C 234.711 177.727,231.667 180.846,231.667 182.011 C 231.667 182.115,231.442 182.410,231.167 182.667 C 230.296 183.480,230.570 184.644,232.201 187.048 C 233.543 189.028,236.895 190.638,242.873 192.173 L 243.662 192.375 242.760 193.022 C 241.543 193.893,241.071 194.878,240.814 197.080 C 240.562 199.250,240.716 204.106,241.074 205.235 C 241.515 206.626,241.621 206.562,239.125 206.408 C 235.194 206.166,230.913 206.230,229.330 206.554 C 228.500 206.724,226.941 206.865,225.580 206.894 C 222.684 206.955,219.770 207.413,209.000 209.499 C 200.262 211.192,199.048 211.378,194.917 211.655 C 192.207 211.837,190.728 211.997,187.762 212.432 C 185.839 212.713,185.944 212.777,185.677 211.167 C 184.881 206.360,183.192 199.594,181.476 194.333 C 180.833 192.362,179.897 189.333,179.395 187.602 C 178.893 185.870,178.267 183.979,178.004 183.399 C 176.687 180.494,174.251 181.375,173.011 185.206 C 172.716 186.115,172.570 186.099,172.255 185.123 C 172.100 184.643,171.612 183.350,171.172 182.250 C 170.204 179.830,169.125 176.517,167.426 170.750 C 166.724 168.367,165.666 164.907,165.075 163.063 C 163.851 159.245,163.879 159.394,164.364 159.240 C 164.564 159.177,165.283 158.797,165.961 158.396 C 166.639 157.995,167.225 157.667,167.263 157.667 C 167.408 157.667,171.398 154.769,173.037 153.473 C 178.377 149.254,191.627 134.568,197.451 126.417 C 199.274 123.865,201.661 119.833,203.423 116.328 L 204.552 114.083 204.936 115.833 C 205.147 116.796,205.506 118.483,205.733 119.583 M165.484 153.386 C 165.504 155.012,165.411 155.180,164.088 155.920 L 163.014 156.521 162.521 156.156 C 160.917 154.970,159.665 156.846,160.513 159.167 C 161.537 161.971,162.465 164.829,163.433 168.167 C 165.548 175.455,167.175 180.578,168.108 182.882 C 168.524 183.909,169.198 185.749,169.605 186.971 C 170.694 190.239,171.142 190.833,172.515 190.833 C 173.463 190.833,174.202 190.047,175.067 188.117 C 175.875 186.312,175.858 186.309,176.405 188.375 C 176.654 189.315,177.485 191.996,178.251 194.333 C 180.240 200.399,182.812 210.799,182.831 212.853 C 182.834 213.174,182.377 213.229,176.750 213.581 C 172.211 213.864,169.354 214.274,163.491 215.484 C 162.157 215.759,160.357 216.092,159.491 216.225 C 157.048 216.599,145.316 218.513,133.750 220.424 C 127.975 221.379,121.225 222.464,118.750 222.836 C 116.275 223.208,113.125 223.697,111.750 223.922 C 110.375 224.147,109.120 224.332,108.962 224.332 C 108.597 224.334,108.196 223.542,107.498 221.446 C 106.967 219.850,106.580 219.158,104.115 215.395 C 103.582 214.582,102.453 212.754,101.605 211.333 C 100.758 209.912,99.827 208.375,99.538 207.917 C 99.248 207.458,98.895 206.802,98.753 206.458 L 98.496 205.833 99.755 205.833 C 103.224 205.833,105.333 204.756,105.333 202.985 C 105.333 202.000,104.820 201.539,103.417 201.266 C 101.805 200.952,101.812 200.957,100.567 199.526 C 99.465 198.259,98.255 197.109,95.033 194.269 C 93.268 192.714,91.091 190.424,90.194 189.181 L 89.663 188.445 92.290 187.499 C 103.323 183.526,110.044 177.775,116.244 167.000 C 119.212 161.842,120.664 159.658,120.671 160.339 C 120.704 163.340,126.531 169.044,129.297 168.782 C 134.513 168.289,138.309 167.023,141.826 164.604 C 142.298 164.280,143.561 163.586,144.633 163.062 C 145.706 162.539,147.687 161.445,149.036 160.632 C 150.385 159.818,151.810 159.010,152.203 158.836 C 157.164 156.634,163.563 152.647,164.713 151.041 L 165.250 150.292 165.359 151.188 C 165.418 151.680,165.474 152.670,165.484 153.386 M202.662 152.279 C 202.220 152.652,202.080 152.693,201.818 152.529 C 201.230 152.162,200.228 152.286,199.845 152.772 C 199.189 153.607,199.396 154.351,200.675 155.765 C 201.014 156.140,201.913 157.377,202.673 158.515 C 205.911 163.363,207.145 164.964,209.739 167.683 C 210.754 168.745,211.987 170.095,212.480 170.683 C 216.304 175.238,217.676 176.053,219.356 174.771 C 222.022 172.735,222.916 167.434,221.171 164.020 C 218.494 158.785,205.059 150.262,202.662 152.279 M206.262 155.881 C 211.984 158.784,217.416 163.098,218.537 165.629 C 219.167 167.051,219.151 169.619,218.506 170.930 L 217.962 172.036 216.888 170.976 C 216.298 170.393,215.388 169.395,214.866 168.758 C 214.344 168.121,212.979 166.616,211.833 165.414 C 210.688 164.211,209.112 162.339,208.333 161.254 C 206.876 159.225,204.167 155.214,204.167 155.086 C 204.167 154.972,205.368 155.427,206.262 155.881 M195.239 156.323 C 193.195 156.812,191.167 158.332,191.167 159.375 C 191.167 160.714,192.787 163.127,195.671 166.083 C 197.812 168.278,198.122 168.631,200.352 171.401 C 204.767 176.887,205.043 177.390,204.752 179.417 C 204.519 181.031,206.149 181.825,207.311 180.664 C 209.011 178.963,207.935 175.888,203.875 170.847 L 203.417 170.278 203.833 170.498 C 204.063 170.619,204.662 170.994,205.167 171.332 C 205.671 171.671,206.721 172.273,207.500 172.671 C 208.279 173.070,209.217 173.597,209.583 173.842 C 212.407 175.734,214.167 175.724,214.167 173.815 C 214.167 173.064,213.858 172.688,212.799 172.151 C 212.405 171.951,211.783 171.583,211.417 171.332 C 211.050 171.082,210.075 170.537,209.250 170.122 C 207.686 169.336,205.207 167.773,203.710 166.629 C 202.737 165.886,202.402 165.075,202.000 162.500 C 201.633 160.146,201.469 159.648,200.660 158.441 C 199.461 156.652,197.335 155.821,195.239 156.323 M197.774 159.686 C 198.169 160.015,198.648 161.070,198.761 161.860 C 198.903 162.863,199.305 164.893,199.436 165.270 C 199.590 165.715,196.433 162.483,195.470 161.210 C 195.028 160.627,194.667 160.078,194.667 159.992 C 194.667 159.428,197.167 159.183,197.774 159.686 M187.893 160.999 C 187.462 161.172,187.000 161.796,187.000 162.204 C 187.000 162.367,186.852 162.648,186.671 162.829 C 185.911 163.589,186.228 164.602,188.994 170.250 C 190.373 173.064,190.840 174.171,191.665 176.578 C 192.011 177.589,192.525 179.062,192.806 179.850 C 193.086 180.638,193.697 182.663,194.163 184.350 C 194.628 186.037,195.263 188.204,195.575 189.167 C 195.886 190.129,196.188 191.271,196.246 191.704 C 196.466 193.337,198.347 193.756,199.082 192.337 C 199.457 191.611,199.390 190.789,198.823 189.136 C 198.257 187.489,197.149 183.786,197.211 183.749 C 197.257 183.720,200.478 183.014,200.823 182.956 C 201.203 182.894,202.659 185.610,202.663 186.388 C 202.671 187.872,204.165 188.464,205.294 187.429 C 206.276 186.529,206.191 185.771,204.833 183.333 C 204.245 182.279,203.618 181.117,203.440 180.750 C 203.261 180.383,202.910 179.858,202.660 179.583 C 202.411 179.308,201.424 177.996,200.467 176.667 C 196.994 171.842,192.521 165.536,191.096 163.455 C 189.410 160.995,188.890 160.596,187.893 160.999 M180.718 163.902 C 180.046 164.480,180.125 165.255,181.163 168.250 C 181.640 169.625,182.665 172.700,183.440 175.083 L 184.850 179.417 183.898 180.292 C 182.739 181.357,182.828 181.357,182.394 180.291 C 181.718 178.629,178.652 170.908,177.646 168.333 C 176.513 165.433,176.072 164.833,175.073 164.833 C 173.467 164.833,173.338 165.900,174.571 168.987 C 175.069 170.232,176.110 172.862,176.884 174.833 C 178.193 178.164,182.012 187.418,183.419 190.667 C 184.278 192.650,186.059 197.527,186.419 198.883 C 186.978 200.984,188.792 201.543,189.501 199.831 C 189.870 198.941,188.446 194.616,185.520 187.734 C 183.913 183.954,183.957 184.387,185.083 183.425 L 185.999 182.642 186.180 183.113 C 186.698 184.454,187.425 186.394,187.845 187.553 C 188.105 188.269,188.613 189.581,188.973 190.469 C 189.828 192.572,190.447 194.401,190.683 195.519 C 191.029 197.154,191.772 197.739,192.903 197.266 C 194.208 196.721,194.091 195.139,192.426 190.833 C 192.089 189.963,191.024 187.165,190.059 184.616 L 188.304 179.981 188.591 179.377 C 189.016 178.482,188.777 177.701,187.934 177.229 L 187.284 176.865 185.164 170.485 C 183.578 165.713,182.949 164.029,182.670 163.802 C 182.139 163.373,181.282 163.417,180.718 163.902 M196.352 176.207 C 197.891 178.339,199.098 180.132,199.034 180.193 C 198.908 180.311,196.488 180.710,196.404 180.626 C 196.329 180.551,195.056 176.992,194.403 175.031 C 194.089 174.086,193.719 173.096,193.582 172.831 C 193.322 172.328,193.255 172.033,193.443 172.221 C 193.504 172.282,194.813 174.075,196.352 176.207 M160.130 177.721 C 159.593 178.219,159.351 178.969,159.200 180.604 L 159.078 181.917 157.590 180.455 C 155.537 178.440,154.487 178.194,153.667 179.538 C 153.125 180.427,153.276 180.977,155.886 187.593 C 156.645 189.517,156.794 190.057,156.720 190.611 C 156.428 192.785,159.501 193.075,159.907 190.912 C 160.062 190.085,159.890 189.332,159.063 187.223 C 158.662 186.200,158.333 185.323,158.333 185.275 C 158.333 185.226,158.673 185.303,159.087 185.444 C 159.962 185.742,160.467 185.656,161.116 185.097 L 161.582 184.697 161.962 186.223 C 162.516 188.449,163.193 189.139,164.350 188.660 C 165.259 188.283,165.525 187.337,165.102 185.988 C 164.974 185.582,164.740 184.612,164.581 183.833 C 163.825 180.118,163.174 178.293,162.384 177.671 C 161.773 177.190,160.676 177.215,160.130 177.721 M143.083 182.733 C 141.909 183.103,136.597 185.834,136.208 186.267 C 135.146 187.452,136.102 188.833,137.985 188.833 L 139.162 188.833 139.643 189.792 C 140.226 190.951,141.444 194.658,141.547 195.583 C 141.614 196.192,141.566 196.293,140.994 196.750 C 139.740 197.750,139.508 198.701,140.321 199.513 C 141.169 200.361,141.740 200.201,143.586 198.598 C 144.229 198.040,145.267 197.285,145.893 196.921 C 147.351 196.073,148.000 195.348,148.000 194.570 C 148.000 193.193,146.508 192.719,145.200 193.681 C 144.695 194.052,144.480 194.133,144.427 193.973 C 144.386 193.850,144.086 192.938,143.760 191.945 C 143.084 189.888,142.274 187.963,141.800 187.292 L 141.477 186.833 143.041 186.107 C 145.174 185.117,145.664 184.456,145.088 183.343 C 144.907 182.992,143.950 182.390,143.767 182.511 C 143.758 182.517,143.450 182.617,143.083 182.733 M149.815 183.917 C 148.819 184.458,148.800 185.520,149.753 187.362 C 150.455 188.718,150.457 188.739,149.853 188.427 C 149.406 188.196,148.333 186.804,148.333 186.455 C 148.333 186.036,147.735 185.125,147.319 184.909 C 145.732 184.088,144.652 185.380,145.350 187.265 C 146.573 190.571,149.304 192.380,151.615 191.414 C 152.152 191.190,152.249 191.190,152.495 191.412 C 152.902 191.780,153.731 191.900,154.188 191.656 C 155.275 191.077,155.302 190.048,154.262 188.830 C 153.857 188.354,153.358 187.542,153.154 187.024 C 151.999 184.090,151.076 183.231,149.815 183.917 M131.630 188.401 C 126.614 189.751,126.530 190.406,130.382 198.102 C 130.790 198.917,131.247 200.014,131.399 200.539 C 131.713 201.628,132.193 201.998,133.278 201.989 C 133.629 201.985,134.229 202.031,134.611 202.091 C 136.476 202.381,138.524 198.258,138.257 194.750 C 137.871 189.682,135.459 187.370,131.630 188.401 M87.305 190.418 C 88.065 191.690,90.932 194.786,93.013 196.583 C 95.560 198.783,99.282 202.572,98.957 202.635 C 98.811 202.663,98.300 202.615,97.822 202.528 C 94.277 201.884,94.155 205.400,97.541 210.583 C 98.140 211.500,99.194 213.234,99.884 214.437 C 100.573 215.641,101.621 217.328,102.211 218.187 C 103.696 220.348,104.068 221.035,104.637 222.667 C 104.909 223.446,105.208 224.279,105.302 224.518 L 105.474 224.953 103.195 225.318 C 71.108 230.464,56.907 233.207,47.431 236.092 C 45.789 236.592,44.409 236.965,44.365 236.921 C 43.909 236.465,41.323 223.369,40.168 215.667 C 39.276 209.720,38.823 206.944,38.588 206.000 C 38.463 205.496,38.312 204.746,38.253 204.333 L 38.145 203.583 40.031 203.216 C 42.686 202.699,50.790 200.430,61.750 197.135 C 63.583 196.584,66.808 195.625,68.917 195.004 C 72.242 194.025,78.928 191.898,84.417 190.073 C 86.660 189.327,86.652 189.326,87.305 190.418 M134.297 191.712 C 135.327 192.807,135.405 196.778,134.434 198.632 C 134.236 199.009,131.436 193.714,131.077 192.286 C 130.862 191.426,133.575 190.943,134.297 191.712 M122.417 191.789 C 122.233 191.835,121.746 192.154,121.333 192.497 C 120.921 192.840,120.043 193.466,119.382 193.888 C 117.289 195.225,117.181 195.962,118.748 198.204 C 120.874 201.245,121.693 202.512,122.437 203.910 C 124.132 207.097,125.909 206.706,128.425 202.591 C 129.794 200.351,129.928 199.735,129.200 199.008 C 128.155 197.963,127.328 198.389,125.994 200.661 C 125.508 201.489,125.075 202.131,125.031 202.087 C 124.988 202.043,124.669 201.537,124.323 200.962 L 123.695 199.917 124.597 198.971 C 126.683 196.785,124.798 194.643,122.585 196.683 L 121.855 197.355 121.561 196.906 C 121.276 196.470,121.277 196.449,121.618 196.187 C 124.202 194.199,124.581 193.668,124.154 192.636 C 123.983 192.224,123.060 191.578,122.797 191.686 C 122.771 191.697,122.600 191.743,122.417 191.789 M113.424 195.967 C 112.305 196.209,111.919 197.013,112.044 198.841 C 112.154 200.447,112.271 200.444,110.543 198.875 C 108.300 196.839,106.679 197.150,106.874 199.578 C 107.137 202.846,111.067 210.655,113.147 212.041 C 114.784 213.131,116.316 211.312,115.075 209.750 C 113.384 207.622,111.111 203.834,111.370 203.575 C 111.413 203.531,111.720 203.609,112.052 203.748 C 113.611 204.399,114.814 203.783,115.145 202.164 L 115.257 201.618 116.108 202.767 C 120.254 208.368,120.826 208.915,122.101 208.494 C 123.371 208.075,123.453 207.012,122.315 205.718 C 121.359 204.632,119.759 202.538,117.697 199.675 C 115.535 196.673,114.462 195.743,113.424 195.967 M82.034 199.580 C 81.630 199.920,81.479 200.268,81.184 201.539 C 80.683 203.696,80.797 203.610,79.148 203.082 C 77.200 202.458,76.147 202.445,75.554 203.037 C 74.543 204.048,75.157 205.336,76.814 205.679 C 78.014 205.927,80.000 206.660,80.000 206.855 C 80.000 206.937,80.233 207.146,80.517 207.319 C 80.903 207.554,81.170 207.965,81.572 208.942 C 81.868 209.661,82.799 211.625,83.641 213.305 C 85.294 216.603,85.833 217.984,85.833 218.919 C 85.833 220.382,87.925 220.941,88.589 219.655 C 89.228 218.419,88.787 216.696,86.844 212.833 C 86.130 211.412,85.266 209.612,84.926 208.833 C 84.586 208.054,84.081 206.943,83.804 206.364 L 83.301 205.311 83.726 203.947 C 84.446 201.638,84.581 200.640,84.259 200.017 C 83.791 199.112,82.818 198.921,82.034 199.580 M72.062 201.319 C 69.152 203.094,66.802 208.320,67.902 210.569 C 68.583 211.961,72.033 214.500,73.243 214.500 C 73.685 214.500,75.726 215.942,76.144 216.551 C 77.237 218.139,77.278 219.511,76.283 221.208 C 74.849 223.656,77.493 225.099,79.015 222.699 C 80.537 220.301,80.483 217.567,78.864 215.071 C 77.868 213.535,77.056 212.927,74.080 211.488 C 69.631 209.338,69.586 208.435,73.697 203.879 C 75.122 202.301,73.813 200.252,72.062 201.319 M56.098 207.846 C 55.539 208.511,55.548 209.039,56.153 211.096 C 56.421 212.006,56.992 214.025,57.421 215.583 C 57.851 217.142,58.542 219.579,58.957 221.000 C 59.373 222.421,59.765 223.952,59.830 224.403 C 60.155 226.674,62.917 226.437,62.917 224.138 C 62.917 223.272,62.940 223.228,63.880 222.344 L 64.844 221.437 65.797 222.370 C 67.663 224.196,68.423 224.490,69.321 223.735 C 70.336 222.881,70.122 222.272,68.111 220.285 C 66.164 218.362,65.198 217.108,62.250 212.674 C 58.793 207.474,57.359 206.348,56.098 207.846 M50.500 209.944 C 45.192 212.067,44.241 213.174,45.240 216.071 C 45.463 216.719,45.982 218.489,46.393 220.004 C 47.311 223.386,47.992 225.394,48.734 226.903 C 49.194 227.841,49.268 228.127,49.129 228.433 C 48.499 229.816,50.121 230.786,51.715 229.977 C 53.667 228.987,56.203 227.422,56.577 226.977 C 57.798 225.526,55.991 223.653,54.481 224.803 C 54.262 224.969,53.798 225.278,53.448 225.489 L 52.813 225.873 52.448 225.532 C 52.248 225.345,51.892 225.144,51.658 225.086 C 51.304 224.998,51.146 224.741,50.701 223.532 C 49.875 221.282,49.827 221.424,51.667 220.692 C 55.046 219.347,55.658 218.641,54.569 217.346 C 53.964 216.628,53.312 216.671,51.090 217.577 C 50.086 217.986,49.238 218.293,49.204 218.260 C 49.127 218.183,48.145 214.991,48.110 214.702 C 48.095 214.582,48.920 214.093,50.000 213.583 C 52.055 212.611,52.667 212.096,52.667 211.333 C 52.667 210.393,51.403 209.583,50.500 209.944 M61.995 217.814 L 62.864 219.045 62.434 219.475 C 61.887 220.022,61.799 219.918,61.340 218.182 C 61.136 217.412,60.928 216.662,60.877 216.516 C 60.733 216.102,61.029 216.446,61.995 217.814 " stroke="none" fill="#040404" fill-rule="evenodd"></path><path id="path1" d="M84.417 190.073 C 78.928 191.898,72.242 194.025,68.917 195.004 C 66.808 195.625,63.583 196.584,61.750 197.135 C 50.790 200.430,42.686 202.699,40.031 203.216 L 38.145 203.583 38.253 204.333 C 38.312 204.746,38.463 205.496,38.588 206.000 C 38.823 206.944,39.276 209.720,40.168 215.667 C 41.323 223.369,43.909 236.465,44.365 236.921 C 44.409 236.965,45.789 236.592,47.431 236.092 C 56.907 233.207,71.108 230.464,103.195 225.318 L 105.474 224.953 105.302 224.518 C 105.208 224.279,104.909 223.446,104.637 222.667 C 104.068 221.035,103.696 220.348,102.211 218.187 C 101.621 217.328,100.573 215.641,99.884 214.437 C 99.194 213.234,98.140 211.500,97.541 210.583 C 94.155 205.400,94.277 201.884,97.822 202.528 C 98.300 202.615,98.811 202.663,98.957 202.635 C 99.282 202.572,95.560 198.783,93.013 196.583 C 90.932 194.786,88.065 191.690,87.305 190.418 C 86.652 189.326,86.660 189.327,84.417 190.073 M83.565 199.326 C 84.634 199.733,84.675 200.903,83.726 203.947 L 83.301 205.311 83.804 206.364 C 84.081 206.943,84.586 208.054,84.926 208.833 C 85.266 209.612,86.130 211.412,86.844 212.833 C 88.787 216.696,89.228 218.419,88.589 219.655 C 87.925 220.941,85.833 220.382,85.833 218.919 C 85.833 217.984,85.294 216.603,83.641 213.305 C 82.799 211.625,81.868 209.661,81.572 208.942 C 81.170 207.965,80.903 207.554,80.517 207.319 C 80.233 207.146,80.000 206.937,80.000 206.855 C 80.000 206.660,78.014 205.927,76.814 205.679 C 75.157 205.336,74.543 204.048,75.554 203.037 C 76.147 202.445,77.200 202.458,79.148 203.082 C 80.797 203.610,80.683 203.696,81.184 201.539 C 81.663 199.475,82.329 198.856,83.565 199.326 M73.821 201.431 C 74.588 202.077,74.544 202.940,73.697 203.879 C 69.586 208.435,69.631 209.338,74.080 211.488 C 77.056 212.927,77.868 213.535,78.864 215.071 C 80.483 217.567,80.537 220.301,79.015 222.699 C 77.493 225.099,74.849 223.656,76.283 221.208 C 77.278 219.511,77.237 218.139,76.144 216.551 C 75.726 215.942,73.685 214.500,73.243 214.500 C 73.179 214.500,72.435 214.166,71.589 213.757 C 66.562 211.328,66.213 207.828,70.502 202.844 C 72.127 200.957,72.877 200.637,73.821 201.431 M59.132 208.449 C 59.710 209.062,61.113 210.964,62.250 212.674 C 65.198 217.108,66.164 218.362,68.111 220.285 C 70.122 222.272,70.336 222.881,69.321 223.735 C 68.423 224.490,67.663 224.196,65.797 222.370 L 64.844 221.437 63.880 222.344 C 62.940 223.228,62.917 223.272,62.917 224.138 C 62.917 226.437,60.155 226.674,59.830 224.403 C 59.765 223.952,59.373 222.421,58.957 221.000 C 58.542 219.579,57.851 217.142,57.421 215.583 C 56.992 214.025,56.421 212.006,56.153 211.096 C 55.057 207.371,56.721 205.892,59.132 208.449 M52.292 210.420 C 53.234 211.504,52.627 212.341,50.000 213.583 C 48.920 214.093,48.095 214.582,48.110 214.702 C 48.145 214.991,49.127 218.183,49.204 218.260 C 49.238 218.293,50.086 217.986,51.090 217.577 C 53.312 216.671,53.964 216.628,54.569 217.346 C 55.658 218.641,55.046 219.347,51.667 220.692 C 49.827 221.424,49.875 221.282,50.701 223.532 C 51.146 224.741,51.304 224.998,51.658 225.086 C 51.892 225.144,52.248 225.345,52.448 225.532 L 52.813 225.873 53.448 225.489 C 53.798 225.278,54.262 224.969,54.481 224.803 C 55.991 223.653,57.798 225.526,56.577 226.977 C 56.203 227.422,53.667 228.987,51.715 229.977 C 50.121 230.786,48.499 229.816,49.129 228.433 C 49.268 228.127,49.194 227.841,48.734 226.903 C 47.992 225.394,47.311 223.386,46.393 220.004 C 45.982 218.489,45.463 216.719,45.240 216.071 C 44.241 213.174,45.192 212.067,50.500 209.944 C 51.001 209.744,51.915 209.987,52.292 210.420 M60.877 216.516 C 60.928 216.662,61.136 217.412,61.340 218.182 C 61.799 219.918,61.887 220.022,62.434 219.475 L 62.864 219.045 61.995 217.814 C 61.029 216.446,60.733 216.102,60.877 216.516 " stroke="none" fill="#f9ba04" fill-rule="evenodd"></path><path id="path2" d="M222.045 127.333 C 222.045 127.746,222.078 127.915,222.118 127.708 C 222.157 127.502,222.157 127.165,222.118 126.958 C 222.078 126.752,222.045 126.921,222.045 127.333 M207.000 127.120 C 207.000 127.217,207.154 127.473,207.343 127.690 L 207.686 128.083 207.394 127.583 C 207.008 126.925,207.000 126.915,207.000 127.120 M229.321 128.112 L 228.917 128.557 229.370 128.237 C 229.619 128.061,229.825 127.860,229.828 127.792 C 229.837 127.586,229.745 127.644,229.321 128.112 M228.000 129.417 C 227.595 129.829,227.301 130.167,227.347 130.167 C 227.393 130.167,227.762 129.829,228.167 129.417 C 228.572 129.004,228.865 128.667,228.819 128.667 C 228.774 128.667,228.405 129.004,228.000 129.417 M230.042 130.250 C 230.044 130.617,230.078 130.747,230.118 130.540 C 230.158 130.332,230.156 130.032,230.115 129.873 C 230.073 129.714,230.040 129.883,230.042 130.250 M184.573 142.042 L 184.083 142.583 184.625 142.094 C 185.130 141.638,185.243 141.500,185.115 141.500 C 185.086 141.500,184.842 141.744,184.573 142.042 M183.242 143.542 L 182.583 144.250 183.292 143.591 C 183.681 143.229,184.000 142.910,184.000 142.883 C 184.000 142.757,183.855 142.883,183.242 143.542 M178.665 148.292 L 175.750 151.250 178.708 148.335 C 180.335 146.732,181.667 145.401,181.667 145.377 C 181.667 145.258,181.373 145.543,178.665 148.292 M165.114 150.458 C 165.074 150.527,165.102 150.733,165.176 150.917 C 165.293 151.208,165.311 151.192,165.322 150.792 C 165.333 150.339,165.255 150.214,165.114 150.458 M222.564 152.667 C 222.564 153.813,222.591 154.281,222.623 153.708 C 222.656 153.135,222.656 152.198,222.623 151.625 C 222.591 151.052,222.564 151.521,222.564 152.667 M174.573 152.208 L 174.083 152.750 174.625 152.260 C 175.130 151.804,175.243 151.667,175.115 151.667 C 175.086 151.667,174.842 151.910,174.573 152.208 M165.393 153.333 C 165.393 154.204,165.422 154.560,165.456 154.125 C 165.490 153.690,165.490 152.977,165.456 152.542 C 165.422 152.106,165.393 152.462,165.393 153.333 M202.487 152.292 L 202.083 152.750 202.583 152.333 C 202.858 152.104,203.115 151.898,203.153 151.875 C 203.191 151.852,203.148 151.833,203.057 151.833 C 202.966 151.833,202.710 152.040,202.487 152.292 M200.627 152.285 C 200.834 152.324,201.134 152.323,201.294 152.281 C 201.453 152.239,201.283 152.207,200.917 152.209 C 200.550 152.211,200.420 152.245,200.627 152.285 M199.679 152.772 C 199.234 153.338,199.234 154.184,199.680 154.690 L 200.027 155.083 199.763 154.671 C 199.399 154.101,199.434 153.295,199.845 152.772 C 200.035 152.531,200.153 152.333,200.108 152.333 C 200.062 152.333,199.869 152.531,199.679 152.772 M219.409 155.409 C 219.184 155.634,219.003 155.915,219.006 156.034 C 219.009 156.153,219.111 156.071,219.233 155.852 C 219.354 155.633,219.633 155.354,219.852 155.233 C 220.071 155.111,220.153 155.009,220.034 155.006 C 219.915 155.003,219.634 155.184,219.409 155.409 M222.250 155.167 L 221.750 155.294 222.292 155.314 C 222.590 155.324,222.833 155.258,222.833 155.167 C 222.833 155.075,222.815 155.009,222.792 155.020 C 222.769 155.031,222.525 155.097,222.250 155.167 M162.545 156.167 C 162.779 156.350,163.024 156.500,163.090 156.500 C 163.157 156.500,163.021 156.350,162.788 156.167 C 162.555 155.983,162.310 155.833,162.243 155.833 C 162.176 155.833,162.312 155.983,162.545 156.167 M206.833 156.241 C 206.833 156.287,207.058 156.441,207.333 156.583 C 207.608 156.726,207.833 156.804,207.833 156.759 C 207.833 156.713,207.608 156.559,207.333 156.417 C 207.058 156.274,206.833 156.196,206.833 156.241 M160.042 157.583 C 160.044 157.950,160.078 158.080,160.118 157.873 C 160.158 157.666,160.156 157.366,160.115 157.206 C 160.073 157.047,160.040 157.217,160.042 157.583 M191.740 158.042 L 191.250 158.583 191.792 158.094 C 192.297 157.638,192.410 157.500,192.281 157.500 C 192.252 157.500,192.009 157.744,191.740 158.042 M216.000 158.385 C 216.000 158.414,216.244 158.658,216.542 158.927 L 217.083 159.417 216.594 158.875 C 216.138 158.370,216.000 158.257,216.000 158.385 M222.131 158.456 C 222.615 158.490,223.365 158.490,223.797 158.456 C 224.230 158.421,223.833 158.394,222.917 158.394 C 222.000 158.395,221.646 158.423,222.131 158.456 M189.083 161.028 C 189.267 161.130,189.533 161.297,189.675 161.398 C 189.817 161.500,189.756 161.415,189.541 161.208 C 189.325 161.002,189.059 160.836,188.949 160.838 C 188.840 160.841,188.900 160.927,189.083 161.028 M201.872 161.667 C 201.872 161.987,201.906 162.119,201.948 161.958 C 201.990 161.798,201.990 161.535,201.948 161.375 C 201.906 161.215,201.872 161.346,201.872 161.667 M219.833 162.084 C 220.153 162.450,220.481 162.825,220.562 162.917 C 220.642 163.008,220.630 162.933,220.535 162.750 C 220.440 162.567,220.112 162.192,219.806 161.917 L 219.250 161.417 219.833 162.084 M180.718 163.766 L 180.250 164.199 180.731 163.850 C 181.392 163.369,182.242 163.394,182.758 163.909 C 182.983 164.134,183.167 164.252,183.167 164.171 C 183.167 163.396,181.428 163.109,180.718 163.766 M198.573 164.622 C 199.026 165.101,199.439 165.446,199.490 165.390 C 199.541 165.334,199.494 165.256,199.384 165.216 C 199.275 165.177,199.206 165.056,199.232 164.948 C 199.258 164.839,199.245 164.813,199.204 164.890 C 199.162 164.967,198.818 164.743,198.439 164.391 C 197.901 163.891,197.930 163.941,198.573 164.622 M211.917 165.500 C 212.830 166.417,213.615 167.167,213.660 167.167 C 213.706 167.167,212.997 166.417,212.083 165.500 C 211.170 164.583,210.385 163.833,210.340 163.833 C 210.294 163.833,211.003 164.583,211.917 165.500 M249.646 164.250 C 249.634 164.296,249.614 164.390,249.602 164.458 C 249.589 164.527,249.510 164.696,249.427 164.833 C 249.334 164.988,249.413 164.963,249.634 164.769 C 249.831 164.597,249.952 164.390,249.903 164.311 C 249.804 164.151,249.678 164.121,249.646 164.250 M175.681 164.875 C 175.719 164.898,175.975 165.104,176.250 165.333 L 176.750 165.750 176.346 165.292 C 176.124 165.040,175.867 164.833,175.777 164.833 C 175.686 164.833,175.642 164.852,175.681 164.875 M173.539 166.333 C 173.539 166.654,173.573 166.785,173.615 166.625 C 173.657 166.465,173.657 166.202,173.615 166.042 C 173.573 165.881,173.539 166.012,173.539 166.333 M124.653 166.561 C 124.875 166.834,125.500 167.247,125.500 167.121 C 125.500 167.089,125.256 166.884,124.958 166.666 C 124.623 166.421,124.507 166.381,124.653 166.561 M210.083 168.167 C 210.812 168.900,211.446 169.500,211.492 169.500 C 211.538 169.500,210.979 168.900,210.250 168.167 C 209.521 167.433,208.887 166.833,208.841 166.833 C 208.795 166.833,209.354 167.433,210.083 168.167 M197.000 167.583 C 197.311 167.904,197.603 168.167,197.649 168.167 C 197.695 168.167,197.478 167.904,197.167 167.583 C 196.856 167.262,196.564 167.000,196.518 167.000 C 196.472 167.000,196.689 167.262,197.000 167.583 M222.062 168.667 C 222.062 169.629,222.089 170.023,222.123 169.542 C 222.157 169.060,222.157 168.273,222.123 167.792 C 222.089 167.310,222.062 167.704,222.062 168.667 M218.892 168.667 C 218.892 169.446,218.920 169.765,218.955 169.375 C 218.990 168.985,218.990 168.348,218.955 167.958 C 218.920 167.569,218.892 167.887,218.892 168.667 M214.333 168.219 C 214.333 168.248,214.577 168.491,214.875 168.760 L 215.417 169.250 214.927 168.708 C 214.471 168.203,214.333 168.090,214.333 168.219 M130.875 168.615 C 131.035 168.657,131.298 168.657,131.458 168.615 C 131.619 168.573,131.487 168.539,131.167 168.539 C 130.846 168.539,130.715 168.573,130.875 168.615 M197.833 168.552 C 197.833 168.581,198.077 168.825,198.375 169.094 L 198.917 169.583 198.427 169.042 C 197.971 168.537,197.833 168.423,197.833 168.552 M128.625 168.951 C 128.831 168.991,129.169 168.991,129.375 168.951 C 129.581 168.911,129.412 168.879,129.000 168.879 C 128.587 168.879,128.419 168.911,128.625 168.951 M216.417 170.500 C 217.053 171.142,217.612 171.667,217.658 171.667 C 217.704 171.667,217.220 171.142,216.583 170.500 C 215.947 169.858,215.388 169.333,215.342 169.333 C 215.296 169.333,215.780 169.858,216.417 170.500 M243.409 170.542 L 242.750 171.250 243.458 170.591 C 244.117 169.978,244.243 169.833,244.117 169.833 C 244.090 169.833,243.771 170.152,243.409 170.542 M226.542 170.332 C 226.244 170.513,226.000 170.698,226.000 170.742 C 226.000 170.786,226.262 170.667,226.583 170.478 C 226.904 170.289,227.167 170.104,227.167 170.067 C 227.167 169.960,227.114 169.983,226.542 170.332 M212.500 170.917 C 212.811 171.237,213.103 171.500,213.149 171.500 C 213.195 171.500,212.978 171.237,212.667 170.917 C 212.356 170.596,212.064 170.333,212.018 170.333 C 211.972 170.333,212.189 170.596,212.500 170.917 M214.205 173.833 C 214.205 174.154,214.240 174.285,214.282 174.125 C 214.323 173.965,214.323 173.702,214.282 173.542 C 214.240 173.381,214.205 173.512,214.205 173.833 M223.459 175.292 C 223.734 175.554,224.037 175.660,224.468 175.646 L 225.083 175.625 224.381 175.510 C 223.995 175.447,223.541 175.288,223.373 175.156 C 223.205 175.024,223.244 175.085,223.459 175.292 M217.708 175.448 C 217.869 175.490,218.131 175.490,218.292 175.448 C 218.452 175.406,218.321 175.372,218.000 175.372 C 217.679 175.372,217.548 175.406,217.708 175.448 M200.333 176.500 C 200.529 176.775,200.727 177.000,200.773 177.000 C 200.819 177.000,200.696 176.775,200.500 176.500 C 200.304 176.225,200.106 176.000,200.061 176.000 C 200.015 176.000,200.138 176.225,200.333 176.500 M107.914 178.042 L 106.250 179.750 107.958 178.086 C 108.898 177.172,109.667 176.403,109.667 176.378 C 109.667 176.258,109.459 176.455,107.914 178.042 M187.681 177.050 C 187.719 177.078,187.975 177.233,188.250 177.394 L 188.750 177.686 188.357 177.343 C 188.140 177.154,187.884 177.000,187.787 177.000 C 187.690 177.000,187.642 177.023,187.681 177.050 M197.500 178.000 C 197.696 178.275,197.894 178.500,197.939 178.500 C 197.985 178.500,197.862 178.275,197.667 178.000 C 197.471 177.725,197.273 177.500,197.227 177.500 C 197.181 177.500,197.304 177.725,197.500 178.000 M208.039 178.167 C 208.039 178.487,208.073 178.619,208.115 178.458 C 208.157 178.298,208.157 178.035,208.115 177.875 C 208.073 177.715,208.039 177.846,208.039 178.167 M153.679 179.272 C 153.489 179.514,153.336 179.795,153.338 179.897 C 153.341 180.000,153.427 179.933,153.528 179.750 C 153.630 179.567,153.827 179.285,153.966 179.125 C 154.105 178.965,154.175 178.833,154.121 178.833 C 154.068 178.833,153.869 179.031,153.679 179.272 M156.167 179.052 C 156.167 179.081,156.410 179.325,156.708 179.594 L 157.250 180.083 156.760 179.542 C 156.304 179.037,156.167 178.923,156.167 179.052 M184.093 179.989 L 183.435 180.750 184.168 180.047 C 184.571 179.661,184.867 179.319,184.825 179.287 C 184.784 179.255,184.454 179.571,184.093 179.989 M202.950 179.829 C 203.059 179.972,203.223 180.276,203.314 180.503 C 203.424 180.778,203.482 180.822,203.489 180.634 C 203.495 180.479,203.331 180.175,203.125 179.959 C 202.919 179.744,202.840 179.685,202.950 179.829 M158.167 181.083 C 158.478 181.404,158.770 181.667,158.815 181.667 C 158.861 181.667,158.644 181.404,158.333 181.083 C 158.022 180.762,157.730 180.500,157.685 180.500 C 157.639 180.500,157.856 180.762,158.167 181.083 M103.500 181.854 C 102.919 182.363,102.919 182.364,103.453 182.008 C 103.748 181.812,104.034 181.580,104.088 181.492 C 104.249 181.232,104.116 181.314,103.500 181.854 M231.500 182.015 C 231.500 182.115,231.331 182.344,231.125 182.525 L 230.750 182.853 231.208 182.574 C 231.596 182.338,231.852 181.833,231.583 181.833 C 231.537 181.833,231.500 181.915,231.500 182.015 M230.539 183.833 C 230.539 184.154,230.573 184.285,230.615 184.125 C 230.657 183.965,230.657 183.702,230.615 183.542 C 230.573 183.381,230.539 183.512,230.539 183.833 M145.513 184.931 C 145.231 185.169,145.005 185.488,145.011 185.640 C 145.018 185.843,145.059 185.822,145.165 185.559 C 145.497 184.737,146.447 184.458,147.342 184.921 C 147.612 185.061,147.833 185.138,147.833 185.092 C 147.833 184.508,146.154 184.392,145.513 184.931 M161.408 184.847 C 161.347 184.946,161.061 185.171,160.773 185.346 C 160.486 185.522,160.320 185.666,160.406 185.666 C 160.624 185.667,161.664 184.944,161.666 184.792 C 161.667 184.610,161.537 184.638,161.408 184.847 M202.519 186.446 C 202.500 186.968,203.168 188.000,203.524 188.000 C 203.613 188.000,203.484 187.827,203.238 187.616 C 202.970 187.384,202.741 186.969,202.665 186.574 C 202.545 185.949,202.537 185.943,202.519 186.446 M205.206 187.505 C 204.906 187.777,204.724 188.000,204.800 188.000 C 204.875 188.000,205.153 187.775,205.417 187.500 C 206.029 186.861,205.911 186.863,205.206 187.505 M165.083 188.001 C 165.025 188.184,164.776 188.444,164.530 188.577 C 164.284 188.711,164.180 188.823,164.299 188.827 C 164.554 188.835,165.333 188.092,165.333 187.841 C 165.333 187.555,165.197 187.643,165.083 188.001 M132.875 188.115 C 133.035 188.157,133.298 188.157,133.458 188.115 C 133.619 188.073,133.487 188.039,133.167 188.039 C 132.846 188.039,132.715 188.073,132.875 188.115 M137.250 188.933 C 138.017 189.058,139.296 189.074,139.224 188.958 C 139.182 188.890,138.645 188.844,138.032 188.856 C 137.418 188.869,137.067 188.903,137.250 188.933 M155.039 190.333 C 155.039 190.654,155.073 190.785,155.115 190.625 C 155.157 190.465,155.157 190.202,155.115 190.042 C 155.073 189.881,155.039 190.012,155.039 190.333 M127.372 191.333 C 127.372 191.654,127.406 191.785,127.448 191.625 C 127.490 191.465,127.490 191.202,127.448 191.042 C 127.406 190.881,127.372 191.012,127.372 191.333 M172.127 190.951 C 172.334 190.991,172.634 190.990,172.794 190.948 C 172.953 190.906,172.783 190.874,172.417 190.875 C 172.050 190.877,171.920 190.911,172.127 190.951 M93.167 192.583 C 93.665 193.088,94.109 193.500,94.155 193.500 C 94.201 193.500,93.831 193.088,93.333 192.583 C 92.835 192.079,92.391 191.667,92.345 191.667 C 92.299 191.667,92.669 192.079,93.167 192.583 M146.652 193.161 C 147.988 193.377,148.427 194.597,147.564 195.696 L 147.129 196.250 147.648 195.706 C 148.682 194.621,148.012 192.973,146.554 193.021 L 145.917 193.042 146.652 193.161 M95.250 194.500 C 95.608 194.867,95.938 195.167,95.984 195.167 C 96.030 195.167,95.775 194.867,95.417 194.500 C 95.059 194.133,94.728 193.833,94.682 193.833 C 94.637 193.833,94.892 194.133,95.250 194.500 M141.375 195.250 C 141.377 195.617,141.411 195.747,141.451 195.540 C 141.491 195.332,141.490 195.032,141.448 194.873 C 141.406 194.714,141.374 194.883,141.375 195.250 M122.608 196.495 C 122.028 197.030,121.846 197.118,121.661 196.953 C 121.468 196.781,121.468 196.796,121.660 197.049 C 121.873 197.330,121.924 197.314,122.485 196.779 C 122.814 196.466,123.233 196.128,123.417 196.027 C 123.600 195.926,123.655 195.841,123.538 195.838 C 123.421 195.836,123.003 196.131,122.608 196.495 M124.750 196.026 C 125.864 196.635,125.805 197.705,124.586 198.983 C 123.730 199.881,123.688 199.963,123.930 200.263 C 124.183 200.577,124.185 200.577,124.024 200.252 C 123.885 199.973,124.002 199.770,124.763 198.972 C 125.989 197.687,125.911 195.808,124.633 195.838 C 124.514 195.841,124.567 195.926,124.750 196.026 M114.517 196.042 C 114.557 196.065,114.963 196.421,115.420 196.833 L 116.250 197.583 115.507 196.792 C 115.098 196.356,114.692 196.000,114.604 196.000 C 114.516 196.000,114.477 196.019,114.517 196.042 M98.083 197.000 C 98.441 197.367,98.772 197.667,98.818 197.667 C 98.863 197.667,98.608 197.367,98.250 197.000 C 97.892 196.633,97.562 196.333,97.516 196.333 C 97.470 196.333,97.725 196.633,98.083 197.000 M111.883 198.167 C 111.883 198.671,111.915 198.877,111.953 198.625 C 111.991 198.373,111.991 197.960,111.953 197.708 C 111.915 197.456,111.883 197.662,111.883 198.167 M109.833 198.250 C 110.144 198.571,110.436 198.833,110.482 198.833 C 110.528 198.833,110.311 198.571,110.000 198.250 C 109.689 197.929,109.397 197.667,109.351 197.667 C 109.305 197.667,109.522 197.929,109.833 198.250 M99.667 198.552 C 99.667 198.581,99.910 198.825,100.208 199.094 L 100.750 199.583 100.260 199.042 C 99.804 198.537,99.667 198.423,99.667 198.552 M126.987 198.958 L 126.583 199.417 127.083 199.000 C 127.358 198.771,127.615 198.565,127.653 198.542 C 127.691 198.519,127.648 198.500,127.557 198.500 C 127.466 198.500,127.210 198.706,126.987 198.958 M129.136 198.964 C 129.382 199.218,129.615 199.406,129.653 199.380 C 129.750 199.314,128.973 198.500,128.815 198.500 C 128.745 198.500,128.889 198.709,129.136 198.964 M240.565 200.750 C 240.565 201.942,240.592 202.407,240.624 201.785 C 240.656 201.162,240.656 200.187,240.623 199.618 C 240.591 199.049,240.564 199.558,240.565 200.750 M139.833 199.148 C 139.833 199.306,140.648 200.083,140.713 199.987 C 140.739 199.948,140.552 199.715,140.297 199.469 C 140.042 199.223,139.833 199.078,139.833 199.148 M111.567 199.792 C 111.742 199.998,111.948 200.167,112.026 200.167 C 112.103 200.167,112.158 199.998,112.147 199.792 C 112.132 199.490,112.113 199.477,112.049 199.721 C 111.973 200.015,111.959 200.015,111.610 199.721 L 111.250 199.417 111.567 199.792 M189.416 200.001 C 189.358 200.184,189.109 200.444,188.864 200.577 C 188.618 200.711,188.514 200.823,188.633 200.827 C 188.888 200.835,189.667 200.092,189.667 199.841 C 189.667 199.555,189.530 199.643,189.416 200.001 M100.833 199.885 C 100.833 199.914,101.077 200.158,101.375 200.427 L 101.917 200.917 101.427 200.375 C 100.971 199.870,100.833 199.757,100.833 199.885 M136.073 201.542 L 135.583 202.083 136.125 201.594 C 136.423 201.325,136.667 201.081,136.667 201.052 C 136.667 200.923,136.529 201.037,136.073 201.542 M105.325 202.879 C 105.406 203.566,105.410 203.569,105.466 203.020 C 105.498 202.711,105.461 202.394,105.383 202.316 C 105.306 202.239,105.279 202.492,105.325 202.879 M112.875 204.115 C 113.035 204.157,113.298 204.157,113.458 204.115 C 113.619 204.073,113.487 204.039,113.167 204.039 C 112.846 204.039,112.715 204.073,112.875 204.115 M122.426 205.844 C 122.788 206.262,123.117 206.578,123.158 206.547 C 123.200 206.515,122.904 206.172,122.501 205.786 L 121.769 205.083 122.426 205.844 M123.370 205.589 C 123.619 205.851,123.853 206.032,123.890 205.991 C 123.926 205.950,123.722 205.736,123.436 205.514 L 122.917 205.112 123.370 205.589 M99.792 205.951 C 99.998 205.991,100.335 205.991,100.542 205.951 C 100.748 205.911,100.579 205.879,100.167 205.879 C 99.754 205.879,99.585 205.911,99.792 205.951 M235.211 206.120 C 235.464 206.158,235.839 206.157,236.044 206.117 C 236.249 206.078,236.042 206.046,235.583 206.048 C 235.125 206.049,234.957 206.081,235.211 206.120 M238.042 206.448 C 238.202 206.490,238.465 206.490,238.625 206.448 C 238.785 206.406,238.654 206.372,238.333 206.372 C 238.012 206.372,237.881 206.406,238.042 206.448 M240.292 206.451 C 240.498 206.491,240.835 206.491,241.042 206.451 C 241.248 206.411,241.079 206.379,240.667 206.379 C 240.254 206.379,240.085 206.411,240.292 206.451 M224.794 206.785 C 225.001 206.824,225.301 206.823,225.460 206.781 C 225.620 206.739,225.450 206.707,225.083 206.709 C 224.717 206.711,224.586 206.745,224.794 206.785 M122.912 207.848 C 122.851 208.040,122.565 208.299,122.276 208.425 C 121.950 208.567,121.864 208.656,122.049 208.660 C 122.369 208.667,123.167 207.964,123.167 207.674 C 123.167 207.384,123.029 207.478,122.912 207.848 M194.628 211.621 C 194.928 211.658,195.378 211.657,195.628 211.619 C 195.878 211.581,195.633 211.551,195.083 211.552 C 194.533 211.553,194.328 211.584,194.628 211.621 M113.219 212.208 C 113.413 212.386,113.774 212.492,114.143 212.479 L 114.750 212.458 114.056 212.345 C 113.674 212.282,113.258 212.161,113.132 212.074 C 113.005 211.987,113.044 212.048,113.219 212.208 M185.889 212.167 C 185.909 212.473,186.017 212.589,186.294 212.606 C 186.588 212.623,186.599 212.611,186.346 212.554 C 186.167 212.513,185.985 212.315,185.941 212.115 C 185.875 211.811,185.867 211.820,185.889 212.167 M189.708 212.115 C 189.869 212.157,190.131 212.157,190.292 212.115 C 190.452 212.073,190.321 212.039,190.000 212.039 C 189.679 212.039,189.548 212.073,189.708 212.115 M178.708 213.448 C 178.869 213.490,179.131 213.490,179.292 213.448 C 179.452 213.406,179.321 213.372,179.000 213.372 C 178.679 213.372,178.548 213.406,178.708 213.448 M175.128 213.621 C 175.428 213.658,175.878 213.657,176.128 213.619 C 176.378 213.581,176.133 213.551,175.583 213.552 C 175.033 213.553,174.828 213.584,175.128 213.621 " stroke="none" fill="#9c9fa7" fill-rule="evenodd"></path><path id="path3" d="M203.359 116.713 C 201.285 120.730,199.424 123.919,198.014 125.871 C 197.502 126.579,196.789 127.573,196.430 128.079 C 196.070 128.585,195.657 129.130,195.512 129.291 C 195.366 129.452,194.989 129.921,194.673 130.333 C 193.941 131.291,190.172 135.862,189.932 136.085 C 189.832 136.178,189.339 136.740,188.836 137.335 C 188.333 137.930,187.845 138.500,187.752 138.602 C 187.659 138.704,187.171 139.266,186.667 139.850 C 184.008 142.930,182.767 144.260,179.135 147.917 C 174.680 152.402,172.374 154.376,168.750 156.803 C 168.383 157.048,168.002 157.325,167.903 157.416 C 167.803 157.508,166.922 158.029,165.944 158.574 C 164.967 159.119,164.167 159.623,164.167 159.693 C 164.167 159.764,164.551 160.968,165.021 162.369 C 165.491 163.770,165.972 165.292,166.091 165.750 C 166.209 166.208,166.418 166.958,166.556 167.417 C 166.694 167.875,166.966 168.813,167.162 169.500 C 168.402 173.856,170.657 180.778,171.359 182.382 C 171.712 183.189,172.000 183.927,172.000 184.024 C 172.000 184.121,172.106 184.436,172.235 184.725 C 172.364 185.014,172.506 185.362,172.549 185.500 C 172.610 185.695,172.655 185.676,172.752 185.417 C 174.507 180.710,176.929 180.155,178.440 184.113 C 178.886 185.282,179.054 185.834,179.748 188.417 C 179.969 189.242,180.749 191.719,181.481 193.923 C 182.675 197.516,183.452 200.237,184.083 203.027 C 184.200 203.547,184.339 204.041,184.392 204.126 C 184.444 204.211,184.563 204.686,184.656 205.182 C 184.750 205.678,184.944 206.646,185.088 207.333 C 185.388 208.768,185.803 210.961,185.946 211.875 C 186.055 212.571,186.028 212.563,187.417 212.332 C 188.977 212.072,194.214 211.537,196.333 211.420 C 198.606 211.295,202.140 210.738,207.833 209.607 C 210.753 209.027,213.417 208.521,215.917 208.070 C 216.650 207.938,217.588 207.758,218.000 207.670 C 218.412 207.582,219.313 207.435,220.000 207.343 C 220.688 207.251,222.037 207.055,223.000 206.908 C 224.120 206.736,225.152 206.678,225.866 206.746 C 226.668 206.822,227.520 206.754,228.899 206.503 C 231.019 206.118,235.065 206.015,239.140 206.243 C 241.329 206.366,241.361 206.362,241.185 206.035 C 240.556 204.860,240.321 199.964,240.742 196.833 C 241.020 194.771,241.252 194.250,242.374 193.175 C 243.285 192.301,243.295 192.331,242.000 192.077 C 241.327 191.945,238.577 191.069,238.083 190.830 C 237.900 190.741,237.236 190.484,236.607 190.259 C 232.544 188.805,229.275 184.370,230.941 182.572 C 231.184 182.311,231.629 181.624,231.929 181.047 C 232.524 179.907,232.831 179.564,234.561 178.104 C 236.608 176.376,237.889 175.698,241.750 174.301 C 244.925 173.151,249.890 171.761,252.062 171.414 C 252.699 171.312,253.333 171.015,253.333 170.819 C 253.333 170.763,252.940 170.854,252.458 171.020 C 248.128 172.516,245.956 168.523,249.208 165.042 C 249.659 164.559,249.468 164.563,248.748 165.053 C 247.722 165.749,246.239 167.254,245.014 168.839 C 243.344 170.999,240.912 172.865,238.657 173.716 C 237.798 174.041,234.790 174.759,233.171 175.026 C 231.646 175.278,229.620 175.132,228.399 174.682 L 227.382 174.306 226.405 174.931 C 224.757 175.986,223.388 175.904,222.894 174.722 C 222.478 173.726,223.013 172.668,224.067 172.405 C 224.333 172.339,224.970 171.860,225.483 171.341 C 225.997 170.821,226.903 170.068,227.498 169.665 C 228.984 168.660,229.876 167.806,230.695 166.604 C 231.078 166.043,231.657 165.208,231.981 164.750 C 232.305 164.292,233.104 163.129,233.755 162.167 C 234.407 161.204,235.597 159.454,236.399 158.276 C 237.202 157.099,237.829 156.107,237.793 156.070 C 237.756 156.034,236.795 156.195,235.655 156.428 C 223.288 158.957,220.230 159.137,219.154 157.397 C 218.156 155.782,219.417 154.692,221.833 155.081 L 222.583 155.201 222.528 153.087 C 222.389 147.798,223.814 142.935,227.536 136.000 C 227.954 135.221,228.687 133.698,229.165 132.615 L 230.033 130.647 229.916 129.323 C 229.851 128.595,229.774 128.000,229.744 128.000 C 229.714 128.000,229.178 128.487,228.553 129.083 C 226.155 131.369,223.645 131.335,222.446 129.000 C 221.457 127.073,222.332 124.798,226.170 119.317 C 226.336 119.078,226.774 118.391,227.143 117.789 L 227.813 116.694 227.115 116.913 C 226.731 117.033,225.967 117.260,225.417 117.416 C 223.226 118.039,217.362 119.985,216.417 120.403 C 216.142 120.525,215.542 120.763,215.083 120.931 C 212.214 121.988,209.629 123.545,209.837 124.092 C 210.123 124.844,210.235 127.145,210.006 127.572 C 209.194 129.090,207.159 128.347,206.845 126.417 C 206.455 124.022,205.812 120.467,205.518 119.083 C 204.426 113.928,204.662 114.187,203.359 116.713 M164.548 151.466 C 164.043 152.093,163.252 152.693,160.250 154.724 C 159.517 155.220,157.079 156.548,154.833 157.676 C 152.587 158.803,150.338 159.988,149.835 160.310 C 148.296 161.293,146.171 162.489,145.282 162.871 C 144.303 163.292,142.414 164.358,141.333 165.098 C 139.061 166.655,135.604 167.967,132.583 168.418 C 131.575 168.569,130.520 168.761,130.238 168.846 C 127.356 169.713,122.029 165.316,120.664 160.944 L 120.464 160.304 119.911 161.194 C 119.607 161.683,118.645 163.283,117.775 164.750 C 114.894 169.603,114.098 170.847,112.518 172.974 C 109.551 176.967,105.863 180.495,101.917 183.114 C 99.352 184.816,94.556 186.994,90.794 188.164 C 90.452 188.270,90.129 188.427,90.077 188.511 C 89.843 188.889,92.892 192.268,95.411 194.423 C 97.907 196.558,99.573 198.155,101.006 199.788 C 101.907 200.814,101.931 200.828,103.250 201.086 C 108.013 202.020,104.919 206.281,99.708 205.964 C 99.135 205.929,98.667 205.927,98.667 205.960 C 98.667 206.112,99.717 208.112,99.912 208.333 C 100.152 208.603,102.668 212.755,103.512 214.272 C 103.797 214.783,104.348 215.625,104.736 216.143 C 105.966 217.781,107.110 219.869,107.578 221.331 C 108.234 223.381,108.700 224.337,109.000 224.249 C 109.361 224.142,113.090 223.560,119.750 222.569 C 120.667 222.433,121.829 222.249,122.333 222.160 C 122.837 222.071,125.575 221.624,128.417 221.167 C 131.258 220.710,133.996 220.259,134.500 220.166 C 135.004 220.073,135.867 219.925,136.417 219.837 C 136.967 219.749,138.092 219.557,138.917 219.411 C 140.420 219.145,141.904 218.911,145.167 218.427 C 146.129 218.284,147.592 218.050,148.417 217.908 C 149.242 217.766,150.554 217.547,151.333 217.423 C 159.425 216.127,161.270 215.803,166.000 214.850 C 167.352 214.578,170.089 214.124,172.583 213.758 C 172.950 213.704,175.066 213.550,177.285 213.416 C 183.232 213.057,182.837 213.198,182.503 211.554 C 182.414 211.112,182.179 209.925,181.981 208.917 C 181.494 206.426,181.239 205.265,180.920 204.083 C 180.645 203.066,180.354 201.928,179.931 200.208 C 179.598 198.856,179.440 198.345,178.167 194.500 C 177.545 192.621,176.798 190.221,176.507 189.167 C 175.832 186.721,175.860 186.735,175.030 188.458 C 174.004 190.588,173.576 191.000,172.392 191.000 C 171.049 191.000,170.635 190.421,169.477 186.917 C 169.113 185.817,168.749 184.767,168.667 184.583 C 167.944 182.963,167.250 181.125,166.683 179.333 C 166.495 178.737,166.181 177.762,165.987 177.167 C 165.677 176.219,165.389 175.270,164.420 172.000 C 164.298 171.588,163.785 169.825,163.279 168.083 C 162.329 164.806,161.612 162.591,160.593 159.783 C 159.851 157.740,159.829 157.030,160.486 156.294 C 161.068 155.643,162.213 155.522,162.798 156.051 C 163.121 156.343,163.160 156.333,164.190 155.704 L 165.250 155.056 165.298 153.449 C 165.324 152.566,165.285 151.610,165.211 151.325 L 165.077 150.807 164.548 151.466 M204.886 151.915 C 208.575 152.519,218.340 159.372,220.796 163.079 C 223.978 167.884,220.967 177.298,216.901 175.257 C 216.041 174.826,213.453 172.207,211.799 170.095 C 211.435 169.630,210.335 168.425,209.354 167.417 C 207.567 165.578,206.487 164.280,205.194 162.417 C 204.812 161.867,204.359 161.229,204.186 161.000 C 204.013 160.771,203.302 159.721,202.605 158.667 C 201.909 157.612,200.888 156.230,200.336 155.595 C 198.586 153.581,199.471 151.209,201.595 152.222 C 201.974 152.403,202.189 152.431,202.264 152.311 C 202.448 152.013,203.392 151.672,203.833 151.743 C 204.063 151.780,204.536 151.858,204.886 151.915 M205.825 157.385 C 209.054 162.169,209.733 163.045,212.104 165.487 C 213.134 166.548,214.200 167.717,214.473 168.083 C 214.746 168.450,215.643 169.442,216.466 170.288 L 217.964 171.827 218.399 170.909 C 219.233 169.148,218.908 165.987,217.749 164.583 C 215.030 161.290,209.252 157.156,204.962 155.436 L 204.341 155.187 205.825 157.385 M197.969 156.327 C 199.972 156.687,202.000 159.375,202.000 161.670 C 202.000 162.005,202.150 162.867,202.333 163.583 C 202.517 164.300,202.667 165.014,202.667 165.169 C 202.667 165.478,204.178 166.985,204.838 167.333 C 205.064 167.452,205.850 167.942,206.583 168.422 C 207.317 168.901,208.444 169.557,209.089 169.880 C 209.734 170.204,210.971 170.891,211.839 171.408 C 212.707 171.925,213.529 172.406,213.667 172.477 C 214.980 173.156,214.312 175.500,212.806 175.500 C 212.298 175.500,210.595 174.717,209.750 174.095 C 209.475 173.892,208.537 173.365,207.667 172.922 C 206.796 172.480,205.646 171.822,205.112 171.461 C 204.010 170.715,203.806 170.703,204.474 171.423 C 208.060 175.290,209.260 179.914,206.984 181.092 C 205.460 181.880,203.814 180.261,204.698 178.845 C 205.376 177.760,200.530 171.137,194.810 165.333 C 191.873 162.353,190.556 159.841,191.238 158.522 C 191.833 157.372,195.224 155.858,196.667 156.098 C 196.896 156.136,197.482 156.239,197.969 156.327 M195.292 159.694 C 194.750 159.892,194.743 159.933,195.141 160.583 C 195.465 161.110,198.159 164.052,198.757 164.530 L 199.107 164.811 198.797 162.864 C 198.313 159.818,197.346 158.943,195.292 159.694 M189.697 161.292 C 189.932 161.544,190.262 161.975,190.431 162.250 C 190.823 162.888,192.559 165.351,196.928 171.466 C 198.847 174.151,200.830 176.939,201.336 177.661 C 201.842 178.383,202.535 179.246,202.878 179.578 C 203.220 179.911,203.500 180.312,203.500 180.471 C 203.500 180.629,203.602 180.907,203.726 181.088 C 203.923 181.376,204.638 182.684,205.816 184.914 C 206.408 186.035,206.119 187.193,205.088 187.831 C 203.804 188.624,202.688 188.010,202.492 186.402 C 202.390 185.573,201.479 183.590,200.961 183.072 C 200.922 183.033,200.558 183.114,200.153 183.252 C 199.748 183.389,198.967 183.560,198.417 183.631 C 197.550 183.742,197.423 183.803,197.466 184.088 C 197.540 184.573,198.125 186.604,198.522 187.750 C 199.460 190.459,199.637 191.433,199.329 192.178 C 198.525 194.119,196.000 193.466,196.000 191.316 C 196.000 191.013,195.780 190.125,195.511 189.341 C 195.241 188.558,194.712 186.792,194.334 185.417 C 193.462 182.244,192.330 178.631,192.144 178.425 C 192.065 178.338,192.000 178.150,191.999 178.008 C 191.998 177.866,191.893 177.549,191.765 177.303 C 191.636 177.057,191.478 176.614,191.413 176.318 C 191.218 175.430,190.216 173.057,188.991 170.583 C 186.091 164.730,185.793 163.850,186.404 162.951 C 186.640 162.603,186.833 162.215,186.833 162.089 C 186.833 160.949,188.855 160.386,189.697 161.292 M182.897 163.841 C 183.132 164.120,183.406 164.664,183.505 165.049 C 183.605 165.435,183.865 166.237,184.084 166.833 C 184.534 168.061,185.828 171.958,186.754 174.875 C 187.177 176.209,187.453 176.833,187.621 176.833 C 188.560 176.833,189.219 178.364,188.725 179.398 C 188.451 179.973,188.454 179.985,189.415 182.529 C 189.945 183.934,190.585 185.646,190.836 186.333 C 191.087 187.021,191.650 188.483,192.086 189.583 C 194.022 194.469,194.326 196.039,193.521 197.003 C 192.389 198.359,191.070 197.640,190.506 195.360 C 190.309 194.566,189.773 192.942,189.314 191.750 C 188.856 190.558,188.221 188.871,187.904 188.000 C 187.587 187.129,187.225 186.192,187.100 185.917 C 186.974 185.642,186.661 184.842,186.404 184.140 L 185.936 182.863 185.058 183.612 C 184.365 184.205,184.213 184.419,184.335 184.639 C 184.686 185.274,186.880 190.612,187.840 193.167 C 189.950 198.785,190.118 199.730,189.148 200.539 C 187.833 201.637,186.878 200.983,186.169 198.500 C 185.681 196.790,184.052 192.405,183.167 190.417 C 183.085 190.233,182.860 189.708,182.667 189.250 C 182.473 188.792,182.247 188.267,182.164 188.083 C 182.082 187.900,181.633 186.813,181.167 185.667 C 180.701 184.521,180.251 183.433,180.167 183.250 C 179.549 181.905,177.090 175.815,176.263 173.583 C 176.025 172.942,175.759 172.267,175.673 172.083 C 175.586 171.900,175.136 170.775,174.673 169.583 C 174.211 168.392,173.757 167.286,173.666 167.127 C 172.856 165.714,174.396 164.171,175.922 164.866 C 176.467 165.114,176.716 165.601,178.091 169.109 C 178.697 170.653,179.443 172.554,179.749 173.333 C 180.056 174.112,180.660 175.650,181.092 176.750 C 181.524 177.850,182.044 179.125,182.248 179.583 C 182.451 180.042,182.669 180.559,182.730 180.733 C 182.839 181.042,182.851 181.041,183.213 180.716 C 183.417 180.533,183.828 180.171,184.127 179.912 C 184.526 179.567,184.645 179.349,184.573 179.096 C 184.519 178.906,184.135 177.700,183.719 176.417 C 183.303 175.133,182.790 173.521,182.579 172.833 C 182.367 172.146,181.844 170.608,181.416 169.417 C 180.988 168.225,180.568 166.987,180.482 166.667 C 180.397 166.346,180.242 165.806,180.139 165.467 C 179.621 163.759,181.765 162.495,182.897 163.841 M194.083 173.667 C 194.141 173.896,194.246 174.233,194.317 174.417 C 194.388 174.600,194.653 175.350,194.906 176.083 C 195.159 176.817,195.609 178.092,195.905 178.917 L 196.444 180.417 197.403 180.364 C 199.208 180.266,199.211 180.355,197.294 177.745 C 196.353 176.464,195.376 175.116,195.124 174.750 C 194.871 174.383,194.510 173.896,194.321 173.667 L 193.979 173.250 194.083 173.667 M162.439 177.519 C 163.392 178.310,163.905 179.860,165.013 185.294 C 165.092 185.685,165.235 186.149,165.329 186.325 C 166.100 187.765,164.549 189.471,163.079 188.801 C 162.519 188.546,162.270 188.051,161.899 186.456 C 161.576 185.068,161.535 185.027,160.905 185.439 C 160.590 185.646,160.250 185.690,159.506 185.623 C 158.500 185.532,158.398 185.626,158.835 186.250 C 159.662 187.431,160.287 190.735,159.842 191.567 C 158.927 193.277,156.370 192.647,156.547 190.756 C 156.619 189.985,156.514 189.394,156.160 188.583 C 155.762 187.670,155.100 185.995,154.249 183.742 C 153.094 180.686,153.014 179.850,153.813 179.136 C 154.941 178.128,155.626 178.325,157.528 180.204 C 158.263 180.930,158.886 181.500,158.913 181.471 C 158.940 181.441,159.045 180.786,159.147 180.015 C 159.477 177.533,161.033 176.352,162.439 177.519 M145.124 183.122 C 145.538 183.632,145.600 184.169,145.309 184.713 C 145.120 185.066,145.123 185.067,145.553 184.785 C 146.600 184.099,147.907 184.684,148.334 186.031 C 148.570 186.774,149.019 187.519,149.553 188.053 C 150.072 188.572,150.047 188.251,149.484 187.142 C 148.525 185.256,148.824 183.926,150.290 183.559 C 151.333 183.297,152.033 184.115,153.375 187.167 C 153.596 187.671,154.090 188.444,154.472 188.885 C 155.997 190.645,154.481 192.959,152.655 191.658 C 152.247 191.368,152.119 191.348,151.796 191.523 C 150.660 192.142,148.446 191.624,147.188 190.444 C 145.913 189.250,144.625 186.520,144.943 185.687 C 145.107 185.258,145.079 185.265,143.405 186.071 L 141.700 186.892 142.063 187.488 C 142.661 188.469,144.167 192.231,144.167 192.745 C 144.167 193.336,144.614 194.029,144.849 193.803 C 146.281 192.431,148.167 192.904,148.167 194.634 C 148.167 195.472,147.568 196.124,145.976 197.021 C 145.426 197.330,144.888 197.660,144.780 197.754 C 141.755 200.384,141.153 200.638,140.128 199.714 C 139.276 198.947,140.217 196.333,141.345 196.333 C 141.804 196.333,140.695 192.348,139.548 189.875 L 139.142 189.000 138.063 189.000 C 136.300 189.000,135.485 188.272,135.738 186.923 C 135.875 186.190,136.366 185.814,138.750 184.616 C 143.640 182.159,144.229 182.020,145.124 183.122 M134.587 188.258 C 136.863 188.920,137.844 190.480,138.344 194.233 C 138.833 197.907,136.819 202.293,134.678 202.215 C 134.259 202.200,133.559 202.187,133.121 202.186 C 132.221 202.184,131.333 201.509,131.333 200.826 C 131.333 200.625,130.730 199.187,129.993 197.631 C 126.645 190.565,126.633 190.446,129.117 189.217 C 131.393 188.092,133.028 187.805,134.587 188.258 M132.333 191.532 C 130.837 191.856,130.792 191.618,133.339 196.872 L 134.287 198.827 134.665 197.552 C 135.541 194.602,134.700 191.081,133.183 191.351 C 133.128 191.361,132.746 191.442,132.333 191.532 M123.505 191.753 C 125.260 192.660,124.672 194.176,121.771 196.222 C 121.504 196.410,121.488 196.499,121.662 196.824 C 121.865 197.205,121.865 197.205,122.606 196.477 C 124.774 194.350,126.862 196.772,124.760 198.976 L 123.853 199.927 124.315 200.719 C 125.057 201.989,125.035 201.994,126.007 200.353 C 127.017 198.647,127.573 198.216,128.534 198.396 C 130.110 198.692,130.179 200.014,128.742 202.392 C 126.196 206.607,124.096 207.319,122.600 204.474 C 121.590 202.551,120.846 201.350,119.830 200.000 C 116.841 196.028,116.812 195.385,119.537 193.609 C 120.296 193.114,121.067 192.566,121.250 192.391 C 122.212 191.470,122.695 191.333,123.505 191.753 M114.850 196.126 C 115.409 196.500,116.149 197.320,116.948 198.450 C 117.751 199.585,119.597 202.100,119.830 202.375 C 119.927 202.490,120.389 203.099,120.858 203.729 C 121.326 204.360,121.988 205.147,122.329 205.479 C 123.881 206.993,123.499 208.667,121.602 208.667 C 120.552 208.667,119.657 207.800,117.083 204.289 C 115.313 201.875,115.167 201.735,115.167 202.463 C 115.167 203.763,113.408 204.594,112.100 203.913 C 111.834 203.774,111.592 203.686,111.562 203.716 C 111.318 203.960,113.718 207.936,115.008 209.426 C 116.777 211.470,114.603 213.770,112.701 211.868 C 111.227 210.394,107.833 204.536,107.833 203.466 C 107.833 203.338,107.769 203.162,107.691 203.075 C 107.269 202.606,106.593 199.528,106.740 198.743 C 107.074 196.966,108.588 196.930,110.495 198.652 C 112.081 200.084,111.973 200.082,111.872 198.671 C 111.707 196.359,113.241 195.048,114.850 196.126 " stroke="none" fill="#b4bcc4" fill-rule="evenodd"></path><path id="path4" d="M197.083 163.000 C 197.628 163.550,198.110 164.000,198.156 164.000 C 198.202 164.000,197.794 163.550,197.250 163.000 C 196.706 162.450,196.223 162.000,196.177 162.000 C 196.131 162.000,196.539 162.450,197.083 163.000 M216.667 163.385 C 216.667 163.414,216.910 163.658,217.208 163.927 L 217.750 164.417 217.260 163.875 C 216.804 163.370,216.667 163.257,216.667 163.385 M198.821 164.713 C 199.043 164.963,199.264 165.167,199.312 165.167 C 199.361 165.167,199.316 165.083,199.213 164.980 C 199.110 164.877,199.045 164.708,199.069 164.605 C 199.093 164.501,199.080 164.476,199.040 164.549 C 199.000 164.621,198.844 164.586,198.692 164.470 C 198.541 164.355,198.598 164.464,198.821 164.713 M216.583 170.500 C 216.941 170.867,217.272 171.167,217.318 171.167 C 217.363 171.167,217.108 170.867,216.750 170.500 C 216.392 170.133,216.062 169.833,216.016 169.833 C 215.970 169.833,216.225 170.133,216.583 170.500 M213.597 172.311 C 213.548 172.390,213.649 172.583,213.821 172.739 C 214.070 172.964,214.159 172.977,214.260 172.803 C 214.330 172.682,214.325 172.639,214.250 172.707 C 214.077 172.864,213.639 172.512,213.762 172.314 C 213.812 172.233,213.816 172.167,213.770 172.167 C 213.724 172.167,213.646 172.232,213.597 172.311 M215.000 173.719 C 215.000 173.748,215.244 173.991,215.542 174.260 L 216.083 174.750 215.594 174.208 C 215.138 173.703,215.000 173.590,215.000 173.719 M107.573 178.542 L 107.083 179.083 107.625 178.594 C 107.923 178.325,108.167 178.081,108.167 178.052 C 108.167 177.923,108.029 178.037,107.573 178.542 M145.215 184.771 C 145.272 184.828,145.154 185.020,144.951 185.197 L 144.583 185.520 145.040 185.242 C 145.432 185.003,145.533 184.667,145.212 184.667 C 145.157 184.667,145.158 184.713,145.215 184.771 M206.039 186.000 C 206.039 186.321,206.073 186.452,206.115 186.292 C 206.157 186.131,206.157 185.869,206.115 185.708 C 206.073 185.548,206.039 185.679,206.039 186.000 M196.039 191.500 C 196.039 191.821,196.073 191.952,196.115 191.792 C 196.157 191.631,196.157 191.369,196.115 191.208 C 196.073 191.048,196.039 191.179,196.039 191.500 M150.042 191.782 C 150.202 191.823,150.465 191.823,150.625 191.782 C 150.785 191.740,150.654 191.705,150.333 191.705 C 150.012 191.705,149.881 191.740,150.042 191.782 M233.461 206.121 C 233.761 206.158,234.211 206.157,234.461 206.119 C 234.712 206.081,234.467 206.051,233.917 206.052 C 233.367 206.053,233.162 206.084,233.461 206.121 M239.127 206.451 C 239.334 206.491,239.634 206.490,239.794 206.448 C 239.953 206.406,239.783 206.374,239.417 206.375 C 239.050 206.377,238.920 206.411,239.127 206.451 M177.458 213.451 C 177.665 213.491,178.002 213.491,178.208 213.451 C 178.415 213.411,178.246 213.379,177.833 213.379 C 177.421 213.379,177.252 213.411,177.458 213.451 " stroke="none" fill="#b4b4bc" fill-rule="evenodd"></path></g></svg>