<svg id="svg" version="1.1" xmlns="http://www.w3.org/2000/svg" xmlns:xlink="http://www.w3.org/1999/xlink" width="400" height="400" viewBox="0, 0, 400,400"><g id="svgg"><path id="path0" d="M204.263 114.625 C 204.211 114.785,203.545 116.117,202.782 117.583 C 199.384 124.117,196.913 127.659,190.342 135.415 C 179.609 148.083,172.609 154.680,165.857 158.494 C 164.835 159.071,164.000 159.556,164.000 159.572 C 164.000 159.588,164.266 160.385,164.592 161.342 C 164.917 162.300,165.710 164.883,166.353 167.083 C 168.576 174.683,170.175 179.742,170.946 181.610 C 171.281 182.420,171.801 183.758,172.103 184.583 C 172.573 185.871,172.668 186.024,172.772 185.667 C 173.431 183.397,174.800 181.750,176.028 181.750 C 177.384 181.750,177.972 182.666,179.081 186.500 C 179.413 187.646,180.350 190.646,181.163 193.167 C 182.449 197.151,184.195 203.445,184.673 205.819 C 184.758 206.239,184.939 207.101,185.077 207.733 C 185.214 208.366,185.445 209.603,185.591 210.483 C 185.940 212.600,185.973 212.697,186.305 212.596 C 186.933 212.407,192.227 211.817,195.459 211.577 C 198.981 211.316,201.013 211.011,207.135 209.826 C 219.806 207.372,221.971 207.027,225.917 206.837 C 227.567 206.758,229.217 206.598,229.583 206.483 C 230.265 206.268,234.926 206.201,239.111 206.346 C 241.467 206.428,241.459 206.432,241.087 205.384 C 240.873 204.783,240.780 203.795,240.712 201.417 C 240.564 196.192,241.005 194.291,242.650 193.063 C 243.551 192.391,243.536 192.294,242.500 192.090 C 240.613 191.716,236.778 190.328,234.789 189.298 C 231.896 187.799,229.822 183.986,231.167 182.641 C 231.442 182.366,231.667 182.064,231.667 181.969 C 231.667 181.047,233.414 179.035,235.739 177.279 C 237.265 176.127,242.852 173.775,245.667 173.100 C 246.262 172.957,247.425 172.649,248.250 172.417 C 249.075 172.184,250.313 171.881,251.000 171.744 C 252.755 171.393,253.333 171.180,253.333 170.886 C 253.333 170.711,253.242 170.667,253.042 170.745 C 248.344 172.576,245.955 168.933,249.329 165.083 C 250.090 164.215,250.293 163.911,250.000 164.080 C 248.320 165.046,246.723 166.525,244.962 168.750 C 241.975 172.523,237.776 174.567,231.961 175.077 C 230.784 175.180,229.114 174.898,227.991 174.405 C 227.406 174.149,227.387 174.153,226.521 174.736 C 224.916 175.816,223.609 175.849,223.078 174.824 C 222.554 173.810,222.912 173.002,224.111 172.488 C 224.518 172.314,225.228 171.783,225.690 171.309 C 226.152 170.835,226.954 170.170,227.473 169.831 C 229.545 168.478,230.181 167.672,236.068 158.937 C 237.785 156.391,238.115 155.810,237.803 155.886 C 236.680 156.159,227.478 157.953,226.092 158.170 C 221.005 158.963,217.454 157.521,219.487 155.487 C 220.029 154.945,220.135 154.930,221.646 155.175 C 222.908 155.380,222.836 155.425,222.673 154.534 C 221.979 150.749,223.832 143.073,226.725 137.750 C 229.622 132.418,230.208 130.894,229.999 129.241 C 229.909 128.528,229.812 127.923,229.783 127.895 C 229.755 127.866,229.211 128.333,228.574 128.931 C 226.241 131.123,224.016 131.276,222.730 129.333 C 221.559 127.564,222.041 125.840,224.959 121.364 C 228.269 116.286,228.185 116.498,226.723 116.924 C 218.348 119.370,211.414 122.082,209.699 123.585 C 209.672 123.609,209.765 124.294,209.907 125.106 C 210.313 127.428,209.998 128.167,208.598 128.167 C 207.371 128.167,207.160 127.760,206.570 124.250 C 206.415 123.333,206.040 121.346,205.736 119.833 C 204.602 114.195,204.507 113.860,204.263 114.625 M205.637 152.260 C 211.169 154.104,219.941 160.858,221.428 164.419 C 223.631 169.691,220.239 177.150,216.635 174.957 C 216.007 174.576,213.116 171.587,211.920 170.083 C 211.555 169.625,210.318 168.271,209.170 167.075 C 207.134 164.953,205.587 162.934,202.956 158.962 C 202.244 157.887,201.204 156.462,200.645 155.795 C 199.207 154.081,199.082 153.582,199.873 152.717 C 200.337 152.210,201.032 152.089,201.647 152.406 C 202.130 152.656,202.169 152.650,202.568 152.250 C 203.118 151.700,203.966 151.703,205.637 152.260 M205.567 157.213 C 206.309 158.338,207.109 159.519,207.343 159.838 C 209.455 162.705,210.356 163.811,211.752 165.250 C 212.642 166.167,213.669 167.292,214.035 167.750 C 215.601 169.711,217.854 171.885,218.072 171.646 C 219.096 170.521,219.283 167.430,218.439 165.585 C 217.225 162.933,210.661 157.836,205.547 155.574 C 204.124 154.945,204.125 155.028,205.567 157.213 M197.750 156.395 C 200.120 156.908,201.369 158.520,201.898 161.750 C 202.623 166.179,203.297 166.944,209.239 170.074 C 210.233 170.597,211.316 171.197,211.648 171.406 C 211.979 171.615,212.613 171.992,213.057 172.242 C 214.336 172.965,214.643 174.268,213.707 175.004 C 212.939 175.608,211.818 175.338,209.953 174.100 C 209.473 173.782,208.443 173.204,207.665 172.817 C 206.887 172.430,205.838 171.836,205.333 171.498 C 204.081 170.659,203.520 170.365,203.771 170.681 C 203.874 170.811,204.498 171.592,205.157 172.417 C 208.522 176.625,209.030 181.167,206.137 181.167 C 204.986 181.167,204.603 180.593,204.745 179.081 C 204.921 177.197,204.668 176.770,199.867 170.853 C 198.740 169.464,196.790 167.257,195.534 165.949 C 190.094 160.284,189.851 158.219,194.433 156.588 C 195.741 156.123,196.334 156.088,197.750 156.395 M195.341 159.596 C 194.583 159.925,194.595 159.900,194.938 160.444 C 195.496 161.331,199.346 165.498,199.326 165.193 C 199.322 165.133,199.248 164.746,199.162 164.333 C 199.076 163.921,198.929 163.028,198.837 162.349 C 198.493 159.831,197.181 158.798,195.341 159.596 M189.398 161.182 C 189.642 161.374,190.199 162.067,190.637 162.724 C 191.660 164.259,193.206 166.456,196.753 171.417 C 202.013 178.774,202.360 179.248,202.848 179.758 C 203.115 180.037,203.333 180.345,203.333 180.442 C 203.333 180.539,203.714 181.280,204.178 182.088 C 206.059 185.356,206.266 186.003,205.747 187.005 C 204.935 188.577,202.667 188.194,202.667 186.486 C 202.667 185.285,201.130 182.791,200.533 183.023 C 200.286 183.119,199.438 183.322,198.649 183.474 L 197.215 183.751 197.613 185.167 C 197.832 185.946,198.317 187.520,198.690 188.665 C 199.712 191.801,199.408 193.167,197.686 193.167 C 196.802 193.167,196.352 192.640,196.173 191.396 C 196.096 190.857,195.885 190.042,195.703 189.583 C 195.522 189.125,195.019 187.475,194.586 185.917 C 192.755 179.328,190.863 173.981,189.349 171.112 C 188.892 170.247,188.109 168.574,187.608 167.395 C 187.108 166.215,186.571 165.002,186.416 164.699 C 186.076 164.037,186.187 163.184,186.670 162.747 C 186.851 162.583,187.000 162.304,187.000 162.128 C 187.000 161.132,188.555 160.519,189.398 161.182 M182.824 163.907 C 183.017 164.112,183.321 164.761,183.499 165.349 C 183.677 165.936,184.575 168.662,185.494 171.406 C 186.414 174.150,187.167 176.493,187.167 176.612 C 187.167 176.731,187.419 176.934,187.728 177.063 C 188.764 177.496,189.110 178.482,188.584 179.499 C 188.346 179.960,188.377 180.094,189.268 182.449 C 189.781 183.806,190.523 185.779,190.917 186.833 C 191.311 187.887,191.834 189.237,192.080 189.833 C 194.235 195.049,194.319 197.409,192.352 197.409 C 191.367 197.409,191.086 197.032,190.492 194.915 C 190.209 193.908,189.455 191.733,188.815 190.083 C 188.175 188.433,187.382 186.371,187.052 185.500 C 186.722 184.629,186.331 183.641,186.184 183.304 L 185.917 182.692 185.014 183.509 L 184.112 184.326 185.236 186.954 C 187.679 192.670,189.667 198.244,189.667 199.381 C 189.667 200.455,188.382 201.126,187.349 200.591 C 186.837 200.326,186.818 200.287,185.930 197.500 C 185.169 195.113,183.842 191.745,181.004 185.000 C 179.790 182.112,177.908 177.500,176.824 174.750 C 175.739 172.000,174.585 169.076,174.259 168.251 C 173.331 165.902,173.585 164.833,175.073 164.833 C 175.964 164.833,176.517 165.334,176.979 166.559 C 178.062 169.426,181.862 178.977,182.447 180.301 L 182.838 181.186 183.835 180.318 C 184.384 179.841,184.833 179.440,184.833 179.428 C 184.833 179.416,183.820 176.339,182.581 172.591 C 181.342 168.842,180.284 165.503,180.231 165.170 C 180.003 163.746,181.835 162.854,182.824 163.907 M193.610 172.750 C 193.757 173.117,194.158 174.242,194.500 175.250 C 194.843 176.258,195.390 177.833,195.716 178.750 L 196.308 180.417 197.466 180.395 C 199.389 180.359,199.426 180.511,196.517 176.491 C 195.087 174.515,193.788 172.715,193.630 172.491 C 193.355 172.101,193.354 172.112,193.610 172.750 " stroke="none" fill="#b3bbc3" fill-rule="evenodd"></path><path id="path1" d="M164.542 151.331 C 164.045 151.924,163.002 152.731,160.277 154.633 C 159.712 155.027,157.376 156.294,155.085 157.449 C 152.794 158.603,150.131 160.035,149.168 160.630 C 148.205 161.226,146.626 162.103,145.659 162.579 C 143.616 163.587,142.628 164.144,141.267 165.054 C 139.337 166.347,135.577 167.892,133.696 168.167 C 133.176 168.243,131.852 168.465,130.755 168.661 C 128.372 169.087,128.105 169.024,126.038 167.553 C 123.430 165.698,120.833 162.506,120.833 161.156 C 120.833 159.554,120.000 160.617,116.511 166.667 C 110.134 177.724,103.200 183.722,92.417 187.507 C 91.042 187.990,89.887 188.409,89.850 188.439 C 89.505 188.724,92.723 192.160,96.297 195.322 C 97.973 196.805,99.872 198.641,100.517 199.403 C 101.738 200.844,101.987 200.992,103.631 201.252 C 105.542 201.554,106.018 203.332,104.555 204.706 C 103.895 205.327,101.872 205.833,100.057 205.833 C 99.237 205.833,98.667 205.902,98.667 206.001 C 98.667 206.311,99.440 207.737,100.608 209.583 C 101.246 210.592,102.176 212.129,102.675 213.000 C 103.173 213.871,104.257 215.596,105.082 216.834 C 106.828 219.453,106.944 219.678,107.745 222.000 C 108.649 224.622,108.230 224.442,112.025 223.835 C 113.799 223.552,115.962 223.212,116.833 223.081 C 120.841 222.477,122.400 222.227,132.417 220.581 C 138.283 219.616,143.796 218.716,144.667 218.581 C 150.466 217.677,162.901 215.581,164.465 215.243 C 168.948 214.274,172.850 213.737,177.083 213.507 C 183.334 213.168,182.943 213.312,182.588 211.482 C 182.439 210.713,182.251 209.746,182.171 209.333 C 181.866 207.766,181.439 205.860,181.051 204.333 C 180.829 203.463,180.424 201.850,180.149 200.750 C 179.875 199.650,178.979 196.688,178.159 194.167 C 177.338 191.646,176.508 188.965,176.315 188.208 C 175.880 186.506,175.896 186.504,174.993 188.358 C 172.967 192.518,171.191 191.973,169.441 186.654 C 169.037 185.423,168.446 183.817,168.129 183.083 C 167.324 181.219,165.088 174.168,163.262 167.732 C 162.843 166.255,162.076 163.818,161.559 162.315 C 161.041 160.813,160.471 159.149,160.292 158.619 C 159.655 156.730,161.200 155.024,162.593 156.078 C 163.057 156.429,163.195 156.401,164.321 155.731 L 165.333 155.128 165.356 153.772 C 165.407 150.659,165.321 150.401,164.542 151.331 M162.475 177.726 C 163.319 178.496,163.781 179.824,164.749 184.264 C 165.463 187.541,165.467 187.725,164.846 188.346 C 163.520 189.672,162.253 188.527,161.758 185.555 L 161.642 184.860 161.048 185.263 C 160.363 185.728,159.542 185.783,158.825 185.412 C 158.239 185.109,158.241 185.095,158.685 186.111 C 159.885 188.858,160.224 190.583,159.747 191.505 C 158.948 193.051,156.595 192.598,156.658 190.911 C 156.671 190.547,156.684 190.121,156.685 189.963 C 156.687 189.805,156.415 189.017,156.080 188.213 C 155.746 187.408,155.181 185.963,154.826 185.000 C 154.470 184.037,153.988 182.740,153.756 182.117 C 153.114 180.398,153.292 179.300,154.285 178.848 C 155.294 178.388,156.157 178.836,158.077 180.814 C 159.129 181.899,159.110 181.907,159.199 180.366 C 159.354 177.685,160.987 176.369,162.475 177.726 M144.846 182.987 C 145.403 183.544,145.497 184.358,145.074 184.962 C 144.844 185.292,142.221 186.667,141.823 186.667 C 141.574 186.667,141.628 186.830,142.320 188.161 C 142.679 188.851,143.306 190.412,143.713 191.629 C 144.603 194.294,144.452 194.130,145.439 193.499 C 146.355 192.914,146.967 192.921,147.608 193.523 C 148.594 194.450,148.201 195.468,146.416 196.612 C 145.726 197.055,144.445 197.998,143.570 198.708 C 141.743 200.192,141.032 200.380,140.242 199.591 C 139.507 198.855,139.657 197.932,140.668 196.983 L 141.503 196.199 141.350 195.115 C 141.168 193.830,140.239 191.074,139.564 189.813 L 139.083 188.917 137.833 188.833 C 136.397 188.738,136.213 188.652,135.915 187.938 C 135.407 186.722,135.929 186.124,138.736 184.713 C 143.413 182.361,144.042 182.183,144.846 182.987 M151.763 184.196 C 151.972 184.409,152.489 185.371,152.913 186.333 C 153.346 187.314,153.990 188.445,154.380 188.908 C 155.526 190.267,155.143 191.833,153.665 191.833 C 153.134 191.833,152.333 191.522,152.333 191.315 C 152.333 191.243,152.073 191.292,151.755 191.425 C 149.138 192.519,145.427 189.686,145.048 186.304 C 144.791 184.021,147.589 184.109,148.422 186.411 C 148.717 187.225,149.878 188.678,150.075 188.481 C 150.130 188.425,149.911 187.828,149.588 187.153 C 148.831 185.573,148.811 184.830,149.508 184.133 C 150.125 183.516,151.125 183.544,151.763 184.196 M135.072 188.510 C 136.787 189.152,137.732 190.718,138.183 193.667 C 138.743 197.332,136.940 202.115,134.973 202.181 C 132.818 202.253,131.333 201.596,131.333 200.570 C 131.333 200.344,131.022 199.542,130.643 198.788 C 126.793 191.146,126.699 190.472,129.314 189.213 C 131.575 188.124,133.434 187.897,135.072 188.510 M131.783 191.603 C 130.825 191.897,130.792 191.685,132.286 194.819 C 132.879 196.065,133.554 197.492,133.785 197.991 L 134.206 198.899 134.437 198.459 C 135.180 197.040,135.306 194.592,134.735 192.667 C 134.342 191.344,133.551 191.059,131.783 191.603 M123.846 192.154 C 124.847 193.155,124.328 194.326,122.247 195.759 C 121.248 196.448,121.245 196.453,121.565 196.875 C 121.862 197.266,121.867 197.264,122.750 196.500 C 123.732 195.650,124.456 195.597,125.179 196.321 C 126.014 197.155,125.830 197.865,124.443 199.167 L 123.750 199.818 124.250 200.756 C 125.012 202.183,125.028 202.182,125.937 200.630 C 126.967 198.870,127.359 198.500,128.199 198.500 C 129.957 198.500,130.113 199.839,128.646 202.342 C 126.259 206.417,124.112 207.159,122.651 204.417 C 121.554 202.358,120.828 201.200,119.519 199.417 C 117.019 196.012,117.017 195.341,119.500 193.750 C 120.113 193.357,120.870 192.814,121.182 192.544 C 122.389 191.499,123.089 191.397,123.846 192.154 M114.447 196.011 C 115.161 196.280,115.733 196.897,117.295 199.083 C 118.082 200.183,119.047 201.496,119.441 202.000 C 119.835 202.504,120.454 203.321,120.818 203.815 C 121.182 204.309,121.859 205.114,122.323 205.603 C 123.365 206.703,123.461 207.398,122.679 208.179 C 121.459 209.400,120.532 208.745,117.205 204.310 C 115.271 201.732,115.249 201.710,115.154 202.254 C 114.866 203.897,113.392 204.543,111.795 203.727 C 111.348 203.499,111.343 203.503,111.495 203.904 C 112.013 205.266,113.784 208.115,115.061 209.641 C 116.049 210.821,115.747 212.098,114.399 212.436 C 111.697 213.114,105.264 200.043,107.299 198.009 C 108.197 197.111,109.143 197.348,110.583 198.833 C 111.962 200.254,112.001 200.247,111.956 198.602 C 111.896 196.442,112.880 195.418,114.447 196.011 " stroke="none" fill="#fb7304" fill-rule="evenodd"></path><path id="path2" d="M204.062 108.324 C 203.589 108.536,203.326 108.790,203.169 109.187 C 202.144 111.787,199.213 117.563,197.443 120.473 C 196.960 121.267,196.521 122.029,196.468 122.167 C 196.391 122.362,193.837 125.958,193.212 126.750 C 193.140 126.842,192.669 127.441,192.165 128.082 C 191.105 129.432,190.682 129.951,190.333 130.326 C 190.196 130.474,189.664 131.117,189.151 131.756 C 188.638 132.394,187.953 133.217,187.628 133.583 C 187.303 133.950,186.270 135.150,185.333 136.250 C 181.133 141.179,175.625 146.957,172.583 149.626 C 170.772 151.216,168.755 152.691,168.710 152.458 C 168.688 152.344,168.588 151.237,168.488 150.000 C 168.119 145.424,168.114 145.392,167.679 144.930 C 167.082 144.294,165.986 144.322,165.318 144.990 C 165.049 145.259,164.683 145.525,164.505 145.582 C 164.028 145.733,163.333 146.631,163.333 147.096 C 163.333 147.318,163.263 147.500,163.178 147.500 C 163.092 147.500,162.971 147.663,162.908 147.862 C 162.844 148.061,162.726 148.305,162.644 148.404 C 162.563 148.503,162.341 148.790,162.152 149.043 C 161.963 149.295,161.157 149.963,160.362 150.526 C 159.567 151.089,158.879 151.596,158.833 151.653 C 158.645 151.889,157.614 152.471,155.167 153.725 C 153.746 154.453,152.171 155.262,151.667 155.522 C 151.162 155.783,150.695 155.997,150.628 155.998 C 150.561 155.999,150.016 156.300,149.417 156.667 C 148.818 157.033,148.294 157.333,148.252 157.333 C 148.211 157.333,147.649 157.675,147.005 158.092 C 146.360 158.509,145.026 159.236,144.041 159.707 C 142.270 160.555,140.219 161.719,139.250 162.428 C 137.976 163.359,134.353 164.770,132.589 165.022 C 128.493 165.606,128.850 165.635,127.583 164.626 C 123.935 161.724,123.192 159.698,123.670 153.962 C 123.745 153.064,123.719 152.976,123.219 152.476 C 122.272 151.528,120.333 151.943,120.333 153.093 C 120.333 153.225,120.267 153.333,120.186 153.333 C 120.037 153.333,118.864 155.639,118.151 157.333 C 117.789 158.194,116.395 160.650,116.165 160.833 C 116.025 160.945,114.004 164.331,113.330 165.583 C 112.405 167.304,110.620 169.997,109.134 171.917 C 107.661 173.819,105.151 176.339,102.654 178.422 C 99.354 181.174,90.132 185.500,87.565 185.500 C 87.218 185.500,86.734 185.669,86.369 185.917 C 86.032 186.146,85.684 186.333,85.596 186.333 C 85.408 186.333,81.762 187.495,75.917 189.417 C 73.625 190.170,70.400 191.177,68.750 191.655 C 67.100 192.132,65.563 192.587,65.333 192.665 C 65.104 192.744,64.354 192.970,63.667 193.167 C 62.979 193.364,62.229 193.589,62.000 193.667 C 61.771 193.745,61.021 193.970,60.333 194.167 C 59.646 194.364,58.896 194.589,58.667 194.667 C 58.438 194.745,57.725 194.961,57.083 195.146 C 56.442 195.332,55.017 195.757,53.917 196.091 C 52.817 196.425,51.523 196.803,51.042 196.932 C 49.369 197.380,48.411 197.647,47.500 197.920 C 46.183 198.314,45.249 198.568,41.500 199.551 C 40.629 199.779,39.354 200.053,38.667 200.160 C 34.803 200.762,34.303 201.762,35.411 206.684 C 35.656 207.770,35.958 209.568,36.417 212.667 C 36.546 213.537,36.768 214.963,36.911 215.833 C 37.053 216.704,37.241 217.942,37.328 218.583 C 37.553 220.250,38.251 224.233,38.744 226.667 C 39.883 232.285,40.485 235.078,40.901 236.667 C 41.032 237.171,41.297 238.183,41.488 238.917 C 41.999 240.879,43.093 241.550,44.336 240.665 C 45.209 240.043,50.670 238.398,56.250 237.074 C 58.814 236.467,59.470 236.320,60.750 236.066 C 61.483 235.921,62.571 235.703,63.167 235.583 C 63.762 235.463,64.887 235.238,65.667 235.083 C 66.446 234.928,67.571 234.703,68.167 234.583 C 71.022 234.008,73.485 233.557,76.333 233.087 C 77.112 232.959,79.100 232.619,80.750 232.333 C 82.400 232.047,84.425 231.702,85.250 231.567 C 86.075 231.432,87.388 231.214,88.167 231.083 C 91.399 230.542,93.709 230.160,97.250 229.585 C 98.075 229.451,99.425 229.230,100.250 229.094 C 101.075 228.957,102.425 228.734,103.250 228.598 C 104.075 228.462,105.200 228.272,105.750 228.176 C 106.300 228.080,107.111 228.001,107.553 228.001 C 107.994 228.000,108.489 227.928,108.652 227.841 C 108.816 227.754,109.429 227.600,110.016 227.500 C 112.401 227.092,114.167 226.805,115.708 226.576 C 116.602 226.442,118.065 226.224,118.958 226.091 C 121.190 225.758,125.668 225.048,128.417 224.591 C 129.242 224.454,130.610 224.228,131.458 224.088 C 135.241 223.464,136.005 223.335,137.417 223.086 C 139.800 222.665,141.793 222.336,143.500 222.083 C 145.540 221.781,147.851 221.416,149.792 221.091 C 153.364 220.493,154.474 220.312,155.500 220.161 C 156.096 220.074,157.221 219.891,158.000 219.755 C 158.779 219.620,160.129 219.389,161.000 219.244 C 161.871 219.098,163.296 218.830,164.167 218.648 C 166.745 218.109,168.154 217.849,169.870 217.597 C 170.762 217.466,171.550 217.322,171.621 217.278 C 171.737 217.206,173.190 217.091,181.402 216.504 C 182.832 216.402,183.660 216.407,183.870 216.520 C 184.248 216.722,185.141 216.559,185.529 216.217 C 185.686 216.079,186.565 215.866,187.529 215.733 C 188.476 215.602,189.775 215.420,190.417 215.329 C 191.058 215.237,193.121 215.049,195.000 214.910 C 198.582 214.646,199.881 214.497,202.083 214.095 C 203.764 213.789,206.072 213.366,207.583 213.089 C 208.225 212.971,209.575 212.711,210.583 212.512 C 213.597 211.915,214.670 211.710,216.333 211.415 C 217.204 211.260,218.442 211.032,219.083 210.908 C 219.725 210.784,220.700 210.634,221.250 210.576 C 221.800 210.518,222.549 210.394,222.915 210.301 C 223.280 210.209,224.817 210.111,226.331 210.085 C 228.301 210.051,229.391 209.955,230.167 209.746 C 231.126 209.488,231.717 209.469,235.333 209.578 C 237.579 209.646,239.604 209.706,239.833 209.711 C 241.662 209.756,244.342 209.502,244.731 209.247 C 245.601 208.677,245.614 206.733,244.756 205.667 C 244.051 204.790,243.788 202.526,243.978 198.958 C 244.148 195.751,244.069 195.925,245.852 194.896 C 248.482 193.379,249.366 191.831,248.306 190.599 C 247.893 190.119,247.644 190.031,244.225 189.167 C 242.124 188.636,239.500 187.847,239.250 187.671 C 239.158 187.607,238.596 187.377,238.000 187.159 C 235.885 186.389,234.386 185.152,234.143 183.978 C 233.833 182.484,238.428 179.006,242.583 177.590 C 243.317 177.340,244.142 177.033,244.417 176.908 C 244.692 176.784,245.517 176.524,246.250 176.331 C 246.983 176.138,248.146 175.824,248.833 175.633 C 249.521 175.442,250.908 175.112,251.917 174.898 C 255.536 174.133,256.176 173.526,256.901 170.167 C 257.609 166.888,256.082 165.332,253.635 166.837 C 252.157 167.746,251.013 167.983,251.809 167.215 C 252.224 166.814,254.000 164.386,254.001 164.217 C 254.001 164.144,254.226 163.746,254.500 163.333 C 255.447 161.909,254.946 160.359,253.449 160.078 C 251.058 159.630,247.548 161.259,244.663 164.157 C 243.160 165.665,242.953 165.903,241.885 167.343 C 240.750 168.875,238.019 170.564,236.000 170.984 C 235.588 171.070,234.511 171.296,233.609 171.487 C 232.706 171.677,231.593 171.833,231.136 171.833 L 230.303 171.833 231.140 171.172 C 231.600 170.808,232.243 170.152,232.569 169.714 C 232.895 169.275,233.228 168.836,233.309 168.739 C 233.562 168.433,234.893 166.505,236.351 164.333 C 237.120 163.188,237.791 162.212,237.842 162.167 C 237.893 162.121,238.114 161.783,238.333 161.417 C 238.553 161.050,238.778 160.712,238.833 160.667 C 238.889 160.621,239.115 160.283,239.336 159.917 C 239.557 159.550,239.841 159.144,239.967 159.015 C 240.093 158.886,240.388 158.473,240.622 158.098 C 241.291 157.027,242.620 155.403,243.688 154.352 C 245.787 152.285,244.358 150.212,241.646 151.389 C 241.153 151.602,240.075 151.945,239.250 152.149 C 238.425 152.354,237.458 152.598,237.101 152.691 C 236.745 152.785,236.107 152.922,235.685 152.996 C 235.262 153.070,234.167 153.283,233.250 153.470 C 225.159 155.117,226.051 155.055,225.918 153.975 C 225.792 152.945,226.075 148.900,226.343 147.917 C 226.730 146.496,227.202 144.902,227.331 144.583 C 227.405 144.400,227.709 143.575,228.007 142.750 C 228.522 141.320,229.062 140.218,230.400 137.859 C 230.730 137.277,231.000 136.772,231.000 136.737 C 231.000 136.701,231.229 136.202,231.510 135.628 C 233.298 131.966,233.484 131.249,233.233 129.000 C 232.626 123.574,230.311 121.569,228.075 124.531 C 227.100 125.823,226.396 126.590,225.782 127.033 L 225.313 127.370 225.582 126.727 C 225.873 126.030,226.654 124.635,226.829 124.500 C 226.888 124.454,227.230 123.929,227.588 123.333 C 227.946 122.737,228.628 121.681,229.104 120.986 C 230.157 119.447,231.667 116.536,231.667 116.045 C 231.667 115.848,231.742 115.640,231.833 115.583 C 231.925 115.527,232.000 115.103,232.000 114.641 C 232.000 113.171,230.941 112.278,229.750 112.742 C 229.475 112.849,228.800 113.035,228.250 113.154 C 227.700 113.273,226.800 113.503,226.250 113.665 C 225.700 113.827,224.950 114.042,224.583 114.143 C 223.551 114.426,220.205 115.487,219.000 115.912 C 214.675 117.438,214.409 117.537,212.833 118.215 C 212.421 118.392,211.423 118.863,210.617 119.261 C 209.650 119.739,209.130 119.917,209.091 119.784 C 209.058 119.674,208.865 118.796,208.662 117.833 C 208.458 116.871,208.188 115.596,208.061 115.000 C 207.934 114.404,207.723 113.392,207.593 112.750 C 206.910 109.381,206.621 108.812,205.319 108.268 C 204.789 108.047,204.669 108.052,204.062 108.324 M205.816 119.917 C 206.087 121.292,206.470 123.354,206.668 124.500 C 207.234 127.784,207.439 128.167,208.628 128.167 C 209.884 128.167,210.200 127.270,209.816 124.796 C 209.599 123.394,209.553 123.451,211.833 122.269 C 214.677 120.796,221.187 118.396,225.667 117.169 C 226.629 116.905,227.563 116.633,227.741 116.564 C 228.168 116.399,227.645 117.332,225.346 120.833 C 222.178 125.658,221.665 127.185,222.611 128.984 C 223.158 130.026,223.969 130.547,225.061 130.561 C 226.540 130.579,226.956 130.383,228.412 128.985 C 229.975 127.485,229.886 127.458,230.095 129.507 C 230.227 130.805,229.928 131.627,227.871 135.620 C 225.548 140.129,225.194 140.908,224.367 143.337 C 223.009 147.327,222.755 148.734,222.753 152.311 L 222.750 155.372 221.750 155.248 C 219.800 155.006,219.167 155.323,219.167 156.542 C 219.167 158.029,220.266 158.442,223.818 158.289 C 225.903 158.199,226.472 158.102,234.793 156.434 C 237.854 155.821,238.307 155.764,238.126 156.017 C 238.011 156.178,236.987 157.684,235.851 159.363 C 229.815 168.284,229.754 168.359,227.114 170.152 C 226.673 170.452,226.013 171.021,225.648 171.417 C 225.283 171.813,224.669 172.286,224.284 172.467 C 222.865 173.135,222.468 174.310,223.393 175.105 C 224.165 175.770,225.335 175.552,226.893 174.454 L 227.370 174.118 228.477 174.517 C 231.431 175.583,237.756 174.455,240.999 172.284 C 243.046 170.914,243.429 170.561,245.068 168.527 C 246.890 166.267,247.798 165.431,249.910 164.068 C 250.514 163.679,250.402 163.901,249.396 165.090 C 246.257 168.801,248.083 172.244,252.458 170.864 C 253.031 170.683,253.500 170.588,253.500 170.652 C 253.500 170.982,253.003 171.338,252.333 171.487 C 251.921 171.579,250.533 171.920,249.250 172.245 C 247.967 172.570,246.579 172.919,246.167 173.021 C 243.926 173.573,238.035 175.827,236.792 176.607 C 234.408 178.105,231.667 180.989,231.667 182.001 C 231.667 182.106,231.442 182.417,231.167 182.692 C 230.345 183.514,230.764 185.082,232.403 187.314 C 233.597 188.941,238.114 191.076,242.333 192.007 C 243.689 192.306,243.819 192.413,243.214 192.725 C 242.480 193.105,241.425 194.371,241.190 195.153 C 240.412 197.752,240.546 204.082,241.424 206.231 C 241.548 206.533,241.465 206.539,239.151 206.408 C 235.063 206.176,230.936 206.249,229.333 206.582 C 228.467 206.762,227.042 206.889,225.667 206.909 C 222.867 206.950,219.088 207.552,207.833 209.750 C 200.490 211.185,198.941 211.416,195.010 211.666 C 192.419 211.831,190.954 211.989,187.952 212.428 C 185.773 212.747,185.891 212.772,185.781 211.958 C 185.508 209.923,184.592 205.435,184.009 203.277 C 183.816 202.558,183.398 200.945,183.082 199.693 C 182.766 198.441,181.978 195.842,181.331 193.917 C 180.683 191.992,179.859 189.356,179.498 188.060 C 178.230 183.500,177.608 182.172,176.581 181.832 C 175.299 181.410,174.228 182.284,173.316 184.497 C 172.627 186.168,172.607 186.176,172.181 184.966 C 171.977 184.389,171.558 183.316,171.250 182.582 C 170.297 180.310,169.005 176.290,166.912 169.083 C 166.406 167.342,165.526 164.460,164.956 162.680 C 164.326 160.712,163.989 159.420,164.097 159.384 C 165.266 158.995,170.327 155.633,173.167 153.361 C 175.560 151.445,182.339 144.572,186.179 140.167 C 196.310 128.544,198.810 125.095,203.178 116.715 L 204.581 114.022 204.953 115.720 C 205.157 116.653,205.546 118.542,205.816 119.917 M165.461 153.727 L 165.417 155.203 164.201 155.871 C 163.106 156.473,162.958 156.514,162.701 156.289 C 161.678 155.391,160.166 156.135,160.167 157.536 C 160.168 157.837,160.698 159.621,161.345 161.500 C 161.993 163.379,163.080 166.829,163.762 169.167 C 164.444 171.504,165.260 174.279,165.575 175.333 C 166.351 177.930,168.133 183.113,168.497 183.833 C 168.659 184.154,169.112 185.392,169.504 186.583 C 170.680 190.166,171.133 190.833,172.386 190.833 C 173.400 190.833,173.910 190.340,174.859 188.442 C 175.324 187.512,175.734 186.719,175.769 186.681 C 175.908 186.531,176.031 186.865,176.597 188.935 C 176.921 190.117,177.742 192.771,178.422 194.833 C 179.103 196.896,179.848 199.315,180.080 200.208 C 180.311 201.102,180.691 202.565,180.924 203.458 C 181.657 206.267,182.833 212.074,182.833 212.881 C 182.833 213.184,182.201 213.260,176.977 213.585 C 173.354 213.810,167.922 214.509,166.000 214.998 C 164.918 215.273,161.230 215.983,159.567 216.237 C 158.659 216.376,156.079 216.795,153.833 217.169 C 151.587 217.542,147.650 218.179,145.083 218.582 C 142.517 218.986,136.817 219.918,132.417 220.654 C 128.017 221.390,121.942 222.369,118.917 222.829 C 113.439 223.663,109.504 224.285,108.968 224.402 C 108.626 224.477,108.189 223.610,107.416 221.324 C 106.893 219.779,105.798 217.800,104.514 216.083 C 104.172 215.625,103.678 214.875,103.418 214.417 C 102.335 212.508,100.723 209.841,99.995 208.750 C 99.312 207.727,98.501 206.155,98.500 205.854 C 98.499 205.797,98.989 205.775,99.587 205.806 C 101.823 205.921,104.276 205.174,104.958 204.169 C 105.883 202.808,105.225 201.569,103.417 201.267 C 103.050 201.205,102.544 201.114,102.292 201.065 C 101.988 201.004,101.403 200.489,100.549 199.529 C 99.233 198.049,98.359 197.218,94.924 194.177 C 92.953 192.432,90.499 189.813,89.964 188.882 L 89.678 188.384 91.297 187.833 C 103.149 183.802,110.353 177.611,116.917 165.819 C 117.283 165.160,118.000 163.975,118.510 163.186 C 119.019 162.396,119.657 161.356,119.927 160.875 C 120.541 159.778,120.512 159.768,120.952 161.210 C 121.653 163.510,123.531 165.768,126.302 167.644 C 128.106 168.865,128.756 169.040,130.167 168.685 C 130.487 168.604,131.425 168.448,132.250 168.339 C 135.246 167.943,138.601 166.664,141.409 164.849 C 142.238 164.313,143.914 163.375,145.134 162.765 C 146.353 162.155,148.191 161.142,149.217 160.515 C 150.244 159.887,152.733 158.549,154.750 157.540 C 159.949 154.941,163.698 152.476,164.749 150.967 L 165.248 150.250 165.377 151.250 C 165.447 151.800,165.485 152.914,165.461 153.727 M203.083 151.991 C 202.900 152.066,202.609 152.284,202.437 152.475 C 202.155 152.789,202.091 152.799,201.775 152.578 C 200.847 151.928,199.500 152.600,199.500 153.713 C 199.500 154.282,199.633 154.495,201.152 156.351 C 201.557 156.845,202.509 158.188,203.267 159.333 C 206.011 163.478,207.309 165.135,209.856 167.750 C 210.749 168.667,211.701 169.723,211.971 170.097 C 212.807 171.257,216.307 174.783,216.902 175.065 C 219.179 176.146,221.834 173.050,221.972 169.153 C 222.118 165.068,221.012 162.724,217.576 159.833 C 213.681 156.558,213.160 156.187,209.833 154.334 C 206.016 152.208,204.142 151.558,203.083 151.991 M205.263 155.403 C 206.175 155.775,207.170 156.302,210.000 157.910 C 212.061 159.082,216.064 162.340,217.468 163.990 C 219.057 165.858,219.511 168.808,218.532 170.901 C 218.249 171.505,217.984 172.000,217.943 172.000 C 217.811 172.000,215.560 169.617,214.725 168.593 C 214.280 168.048,212.942 166.580,211.750 165.330 C 209.663 163.142,207.832 160.751,205.285 156.889 C 204.256 155.330,204.071 155.000,204.221 155.000 C 204.251 155.000,204.720 155.181,205.263 155.403 M195.296 156.347 C 194.954 156.427,194.202 156.708,193.624 156.970 C 189.955 158.633,190.342 160.344,195.667 166.000 C 197.644 168.099,198.137 168.669,201.003 172.167 C 204.245 176.123,205.239 177.859,204.860 178.905 C 204.140 180.898,206.505 182.083,207.597 180.277 C 208.707 178.444,207.533 175.249,204.383 171.537 C 203.219 170.164,203.319 170.115,205.023 171.221 C 205.789 171.719,207.054 172.446,207.833 172.835 C 208.612 173.225,209.550 173.749,209.917 173.999 C 212.042 175.452,213.210 175.649,213.953 174.681 C 214.602 173.836,214.011 172.747,212.500 171.999 C 212.088 171.795,211.637 171.531,211.500 171.412 C 211.362 171.294,210.500 170.805,209.583 170.326 C 206.381 168.652,203.158 166.455,202.752 165.670 C 202.626 165.427,202.366 164.409,202.173 163.406 C 201.421 159.493,201.048 158.573,199.684 157.266 C 198.911 156.526,196.593 156.041,195.296 156.347 M198.046 160.031 C 198.554 160.635,198.661 160.987,199.044 163.333 C 199.187 164.204,199.355 165.067,199.418 165.250 C 199.590 165.750,195.843 161.884,195.136 160.831 L 194.522 159.917 195.136 159.619 C 196.127 159.139,197.454 159.327,198.046 160.031 M187.913 161.066 C 187.450 161.268,187.000 161.911,187.000 162.372 C 187.000 162.476,186.845 162.727,186.656 162.928 C 185.982 163.645,186.558 165.429,189.048 170.333 C 190.897 173.976,192.849 179.399,194.597 185.750 C 195.026 187.308,195.549 189.071,195.760 189.667 C 195.971 190.262,196.192 191.116,196.252 191.563 C 196.488 193.337,198.344 193.784,199.075 192.243 C 199.451 191.452,199.404 191.042,198.684 188.785 C 198.326 187.666,197.872 186.188,197.674 185.500 C 197.476 184.813,197.278 184.127,197.235 183.976 C 197.170 183.754,197.366 183.667,198.286 183.512 C 198.908 183.406,199.778 183.203,200.219 183.060 C 200.660 182.917,201.045 182.826,201.074 182.858 C 201.521 183.354,202.667 185.902,202.667 186.402 C 202.667 188.289,205.014 188.507,205.782 186.691 C 206.139 185.848,205.250 183.612,203.642 181.308 C 203.472 181.064,203.333 180.742,203.333 180.592 C 203.333 180.441,203.129 180.115,202.880 179.867 C 202.179 179.170,192.055 165.026,190.112 162.029 C 189.836 161.602,189.413 161.210,189.078 161.070 C 188.413 160.793,188.539 160.793,187.913 161.066 M180.742 163.909 C 180.066 164.586,180.187 165.146,182.604 172.473 L 184.876 179.363 183.985 180.265 C 182.868 181.396,182.814 181.391,182.300 180.125 C 181.474 178.091,179.199 172.368,177.911 169.083 C 176.306 164.989,175.530 164.117,174.319 165.047 C 173.388 165.761,173.439 166.090,175.140 170.373 C 175.951 172.414,176.996 175.058,177.464 176.250 C 177.931 177.442,179.524 181.304,181.003 184.833 C 183.973 191.917,185.552 195.958,186.332 198.470 C 187.133 201.048,188.764 201.686,189.513 199.715 C 189.870 198.776,188.105 193.736,184.482 185.354 C 184.048 184.350,184.058 184.314,185.014 183.420 C 186.027 182.472,185.907 182.360,186.999 185.250 C 187.484 186.533,188.352 188.783,188.928 190.250 C 189.504 191.717,190.173 193.629,190.415 194.500 C 191.157 197.168,191.269 197.333,192.333 197.333 C 194.398 197.333,194.291 195.670,191.810 189.250 C 188.003 179.396,188.231 180.086,188.557 179.401 C 189.032 178.405,188.698 177.398,187.836 177.225 C 187.361 177.130,187.317 177.022,185.222 170.689 C 183.765 166.286,182.974 164.131,182.720 163.875 C 182.202 163.353,181.283 163.368,180.742 163.909 M196.399 176.237 C 199.495 180.533,199.395 180.237,197.835 180.500 C 196.302 180.758,196.363 180.802,195.740 178.991 C 195.088 177.098,193.597 172.883,193.415 172.417 C 193.177 171.809,193.592 172.340,196.399 176.237 M160.252 177.695 C 159.623 178.189,159.384 178.844,159.244 180.459 C 159.098 182.128,159.263 182.137,157.427 180.360 C 155.398 178.398,154.214 178.214,153.568 179.761 C 153.200 180.642,153.221 180.713,155.709 187.000 C 156.434 188.830,156.738 189.826,156.754 190.417 C 156.786 191.592,156.796 191.629,157.167 192.000 C 157.658 192.491,158.824 192.458,159.311 191.940 C 160.318 190.869,160.134 189.741,158.213 185.191 C 158.137 185.010,158.212 185.014,158.601 185.210 C 159.697 185.763,160.507 185.695,161.265 184.985 L 161.612 184.660 161.990 186.205 C 162.449 188.078,162.539 188.259,163.182 188.591 C 164.435 189.239,165.599 188.045,165.183 186.537 C 164.923 185.596,164.550 183.928,164.317 182.667 C 163.508 178.293,161.936 176.370,160.252 177.695 M139.716 184.328 C 136.180 186.070,135.833 186.344,135.833 187.399 C 135.833 188.277,136.486 188.721,137.926 188.824 L 139.230 188.917 139.680 189.833 C 140.299 191.094,141.318 194.131,141.502 195.263 L 141.654 196.199 140.789 196.995 C 138.388 199.203,140.682 200.995,143.191 198.871 C 143.865 198.300,144.938 197.515,145.576 197.127 C 147.976 195.666,148.603 194.543,147.559 193.575 C 146.958 193.019,146.230 193.046,145.317 193.659 C 144.427 194.257,144.518 194.357,143.734 191.917 C 143.380 190.817,142.739 189.215,142.310 188.357 L 141.529 186.797 143.080 186.072 C 145.307 185.032,145.801 184.247,144.902 183.179 C 144.156 182.293,143.596 182.417,139.716 184.328 M150.083 183.828 C 148.924 184.289,148.802 185.462,149.725 187.288 C 150.434 188.691,150.427 188.660,150.017 188.553 C 149.403 188.392,148.739 187.481,148.089 185.904 C 147.132 183.585,144.490 184.724,145.324 187.096 C 146.502 190.450,149.103 192.287,151.463 191.435 C 152.133 191.194,152.210 191.198,152.713 191.505 C 153.457 191.958,153.944 191.915,154.513 191.346 C 155.287 190.572,155.178 189.994,153.974 188.475 C 153.731 188.168,153.216 187.204,152.831 186.333 C 151.880 184.185,151.062 183.440,150.083 183.828 M131.417 188.474 C 126.666 189.915,126.612 190.229,129.935 197.141 C 130.699 198.732,131.372 200.288,131.431 200.601 C 131.583 201.410,132.395 202.061,133.108 201.945 C 133.407 201.896,133.867 201.938,134.130 202.037 C 137.564 203.333,139.693 193.808,136.847 189.879 C 135.817 188.457,133.473 187.850,131.417 188.474 M87.382 190.458 C 87.784 191.077,88.832 192.371,89.712 193.333 C 91.183 194.944,91.904 195.617,95.755 198.968 C 96.491 199.609,97.569 200.707,98.150 201.410 L 99.207 202.687 97.775 202.571 C 94.277 202.287,94.162 205.264,97.474 210.396 C 98.014 211.232,99.094 213.004,99.875 214.333 C 100.655 215.662,101.938 217.712,102.727 218.887 C 103.515 220.062,104.242 221.327,104.342 221.699 C 104.442 222.070,104.742 222.941,105.009 223.634 C 105.276 224.327,105.473 224.916,105.446 224.943 C 105.419 224.970,102.852 225.409,99.740 225.918 C 78.861 229.339,72.467 230.446,65.018 231.933 C 56.597 233.614,52.808 234.517,47.655 236.068 C 45.953 236.581,44.516 237.000,44.460 237.000 C 44.221 237.000,43.666 234.761,42.519 229.167 C 42.246 227.838,41.906 226.188,41.764 225.500 C 41.400 223.740,40.333 217.167,39.329 210.500 C 39.046 208.621,38.669 206.467,38.491 205.714 C 38.015 203.703,38.037 203.534,38.792 203.423 C 41.220 203.064,50.159 200.603,61.333 197.215 C 63.304 196.618,65.179 196.055,65.500 195.965 C 69.363 194.881,76.997 192.485,84.250 190.078 C 85.442 189.683,86.469 189.354,86.534 189.346 C 86.598 189.339,86.980 189.840,87.382 190.458 M134.192 191.520 C 135.034 191.950,135.439 195.557,134.857 197.440 C 134.323 199.167,134.257 199.211,133.779 198.157 C 133.552 197.658,132.797 196.053,132.100 194.590 C 130.695 191.636,130.689 191.830,132.192 191.432 C 133.056 191.204,133.622 191.229,134.192 191.520 M121.307 192.556 C 120.817 192.954,119.918 193.593,119.309 193.977 C 117.152 195.336,117.173 196.056,119.464 199.209 C 120.355 200.435,121.421 202.058,121.833 202.816 C 123.636 206.128,123.936 206.347,125.633 205.585 C 126.901 205.016,127.052 204.849,128.487 202.429 C 130.044 199.805,129.955 198.591,128.205 198.591 C 127.340 198.591,127.157 198.762,126.054 200.611 C 124.950 202.461,125.162 202.406,124.349 201.050 L 123.680 199.932 124.590 198.979 C 126.737 196.728,124.727 194.636,122.480 196.782 L 121.877 197.358 121.521 196.906 L 121.165 196.453 122.126 195.754 C 123.430 194.805,124.161 194.047,124.193 193.612 C 124.328 191.759,122.922 191.245,121.307 192.556 M112.542 196.591 L 111.952 197.182 112.048 198.674 C 112.165 200.473,112.232 200.462,110.536 198.920 C 108.725 197.273,107.718 197.106,107.075 198.349 C 105.816 200.784,111.614 212.333,114.097 212.333 C 115.545 212.333,115.952 210.847,114.865 209.523 C 113.484 207.840,110.982 203.629,111.221 203.390 C 111.250 203.361,111.565 203.487,111.922 203.669 C 113.383 204.414,114.852 203.736,115.097 202.202 L 115.205 201.527 117.012 203.940 C 120.132 208.107,120.543 208.506,121.700 208.495 C 123.318 208.479,123.555 207.071,122.191 205.578 C 121.300 204.604,118.978 201.568,117.222 199.083 C 114.988 195.922,113.829 195.305,112.542 196.591 M82.217 199.489 C 81.726 199.792,81.167 201.002,81.167 201.761 C 81.167 202.413,80.595 203.674,80.347 203.570 C 77.198 202.238,75.167 202.440,75.167 204.083 C 75.167 204.952,75.692 205.394,77.102 205.713 C 78.440 206.015,80.167 206.733,80.167 206.987 C 80.167 207.081,80.374 207.265,80.627 207.396 C 80.972 207.575,81.230 207.983,81.656 209.026 C 81.968 209.791,82.916 211.811,83.763 213.515 C 85.442 216.895,85.833 217.883,85.833 218.743 C 85.833 220.160,87.362 220.831,88.346 219.846 C 89.356 218.836,88.919 217.007,86.524 212.223 C 85.705 210.588,84.730 208.517,84.357 207.620 C 83.984 206.724,83.568 205.833,83.434 205.640 C 83.215 205.328,83.224 205.200,83.520 204.449 C 84.939 200.850,84.251 198.232,82.217 199.489 M71.278 202.042 C 67.902 205.447,66.745 208.909,68.251 211.096 C 69.122 212.360,69.769 212.813,72.759 214.249 C 76.984 216.279,77.965 218.132,76.386 221.106 C 75.260 223.228,76.858 224.949,78.464 223.344 C 81.745 220.062,80.056 214.411,75.083 212.036 C 70.698 209.941,70.334 209.621,70.746 208.230 C 71.056 207.188,71.984 205.761,73.314 204.284 C 75.483 201.873,73.553 199.747,71.278 202.042 M56.249 207.736 C 55.550 208.435,55.563 208.827,56.377 211.727 C 56.793 213.206,57.484 215.692,57.912 217.250 C 58.341 218.808,58.917 220.826,59.192 221.735 C 59.467 222.643,59.760 223.797,59.841 224.299 C 60.236 226.722,62.829 226.488,62.895 224.024 C 62.915 223.266,62.973 223.166,63.873 222.344 L 64.830 221.470 66.123 222.651 C 67.690 224.083,68.275 224.329,69.043 223.880 C 70.347 223.118,70.108 222.307,67.942 220.142 C 66.023 218.224,65.261 217.235,62.358 212.896 C 58.815 207.602,57.497 206.488,56.249 207.736 M50.167 210.150 C 44.929 212.250,44.290 213.090,45.386 216.441 C 45.712 217.436,46.286 219.396,46.662 220.798 C 47.412 223.591,48.115 225.614,48.785 226.909 C 49.126 227.567,49.213 227.955,49.184 228.689 C 49.103 230.784,50.209 230.840,53.590 228.911 C 57.101 226.908,57.674 226.148,56.533 225.008 C 55.849 224.323,55.317 224.356,54.000 225.167 C 52.755 225.933,52.658 225.951,52.250 225.500 C 52.084 225.317,51.812 225.167,51.645 225.167 C 51.282 225.167,51.019 224.682,50.437 222.939 C 49.946 221.468,49.908 221.168,50.208 221.163 C 50.644 221.157,54.079 219.650,54.447 219.304 C 55.019 218.768,54.990 217.648,54.394 217.179 C 53.757 216.677,53.228 216.744,51.146 217.592 C 49.004 218.464,49.174 218.531,48.588 216.583 C 48.341 215.758,48.099 214.955,48.051 214.799 C 47.983 214.572,48.366 214.325,49.932 213.587 C 52.609 212.324,53.025 211.843,52.432 210.697 C 52.012 209.885,51.273 209.706,50.167 210.150 M62.371 219.539 L 61.867 220.043 61.431 218.616 C 60.631 215.992,60.665 215.904,61.833 217.559 L 62.875 219.035 62.371 219.539 " stroke="none" fill="#040404" fill-rule="evenodd"></path><path id="path3" d="M84.583 190.075 C 81.124 191.216,70.870 194.495,69.750 194.818 C 69.108 195.003,65.546 196.063,61.833 197.173 C 47.838 201.355,39.989 203.500,38.675 203.500 C 38.087 203.500,38.081 203.537,38.430 205.000 C 38.681 206.053,39.521 210.904,39.743 212.583 C 39.803 213.042,39.994 214.317,40.166 215.417 C 41.342 222.915,41.391 223.190,42.827 230.205 C 43.363 232.824,44.332 237.000,44.404 237.000 C 44.428 237.000,44.891 236.846,45.432 236.658 C 45.974 236.471,46.904 236.177,47.500 236.006 C 48.096 235.835,49.221 235.510,50.000 235.284 C 53.530 234.259,57.657 233.303,64.167 232.001 C 68.756 231.084,71.502 230.575,78.083 229.423 C 80.373 229.022,96.791 226.302,102.466 225.383 C 104.818 225.003,105.335 224.871,105.273 224.667 C 104.434 221.919,103.259 219.558,101.736 217.556 C 101.446 217.175,100.812 216.162,100.327 215.306 C 99.071 213.090,98.068 211.427,97.174 210.083 C 94.051 205.384,94.394 201.835,97.908 202.484 C 98.448 202.584,98.919 202.636,98.955 202.600 C 99.139 202.417,96.505 199.742,93.880 197.443 C 90.793 194.741,88.362 192.177,87.288 190.489 C 86.558 189.343,86.727 189.368,84.583 190.075 M84.013 199.654 C 84.692 200.333,84.581 201.752,83.645 204.346 L 83.310 205.275 83.643 205.846 C 83.827 206.160,84.199 206.979,84.472 207.667 C 84.744 208.354,85.758 210.514,86.724 212.467 C 89.151 217.369,89.499 219.155,88.224 220.158 C 87.106 221.037,85.924 220.240,85.677 218.440 C 85.546 217.490,85.182 216.600,83.526 213.190 C 82.429 210.931,81.436 208.807,81.319 208.469 C 80.910 207.281,78.073 205.667,76.396 205.667 C 75.835 205.667,75.000 204.822,75.000 204.255 C 75.000 202.529,76.432 202.126,79.212 203.070 C 80.663 203.563,80.678 203.553,81.089 201.695 C 81.646 199.175,82.758 198.399,84.013 199.654 M74.013 201.487 C 74.847 202.321,74.680 202.971,73.231 204.545 C 71.728 206.176,70.667 207.978,70.667 208.898 C 70.667 209.637,71.589 210.292,74.566 211.664 C 77.528 213.029,79.014 214.507,79.831 216.901 C 81.016 220.373,78.621 225.179,76.423 223.739 C 75.619 223.212,75.567 222.085,76.298 221.042 C 78.013 218.598,76.689 216.126,72.706 214.333 C 69.792 213.022,68.375 211.897,67.729 210.380 C 66.324 207.085,71.825 199.300,74.013 201.487 M59.169 208.456 C 59.772 209.082,61.247 211.066,62.483 212.917 C 65.444 217.347,66.171 218.286,68.144 220.224 C 69.957 222.006,70.198 222.467,69.759 223.316 C 69.035 224.715,67.997 224.508,66.000 222.565 L 64.917 221.511 63.958 222.353 C 63.060 223.141,63.000 223.241,63.000 223.939 C 63.000 225.292,62.400 226.000,61.253 226.000 C 60.451 226.000,59.833 225.396,59.833 224.612 C 59.833 224.298,59.723 223.728,59.588 223.345 C 59.333 222.623,58.430 219.463,57.084 214.583 C 56.654 213.025,56.160 211.273,55.985 210.691 C 54.970 207.312,56.818 206.016,59.169 208.456 M52.199 210.281 C 53.379 211.411,52.802 212.323,50.107 213.589 L 48.029 214.565 48.256 215.157 C 48.381 215.483,48.644 216.294,48.841 216.958 C 49.263 218.383,49.068 218.341,51.205 217.465 C 53.283 216.613,54.032 216.559,54.601 217.221 C 55.788 218.602,54.264 220.054,50.385 221.238 C 49.674 221.455,50.911 224.734,51.845 225.107 C 52.191 225.246,52.516 225.469,52.567 225.602 C 52.676 225.885,53.323 225.608,54.315 224.854 C 55.840 223.695,57.710 225.112,56.829 226.759 C 56.430 227.503,51.321 230.500,50.449 230.500 C 49.603 230.500,48.940 229.648,49.048 228.700 C 49.123 228.047,49.047 227.723,48.588 226.750 C 47.869 225.227,47.228 223.287,46.182 219.475 C 45.714 217.765,45.218 216.099,45.082 215.772 C 44.254 213.791,44.980 212.452,47.522 211.269 C 48.197 210.955,49.163 210.504,49.667 210.267 C 50.874 209.700,51.597 209.704,52.199 210.281 M61.057 216.917 C 61.110 217.100,61.304 217.804,61.489 218.482 C 61.895 219.970,61.856 219.925,62.319 219.432 C 62.746 218.977,62.690 218.784,61.780 217.583 C 61.057 216.631,60.947 216.529,61.057 216.917 " stroke="none" fill="#fbbb04" fill-rule="evenodd"></path><path id="path4" d="M210.039 126.667 C 210.039 126.987,210.073 127.119,210.115 126.958 C 210.157 126.798,210.157 126.535,210.115 126.375 C 210.073 126.215,210.039 126.346,210.039 126.667 M228.906 128.542 L 228.417 129.083 228.958 128.594 C 229.463 128.138,229.577 128.000,229.448 128.000 C 229.419 128.000,229.175 128.244,228.906 128.542 M182.409 144.375 L 181.750 145.083 182.458 144.425 C 183.117 143.812,183.243 143.667,183.117 143.667 C 183.090 143.667,182.771 143.985,182.409 144.375 M165.332 153.867 C 165.287 154.665,165.310 155.258,165.382 155.185 C 165.455 155.112,165.492 154.459,165.464 153.734 L 165.414 152.417 165.332 153.867 M219.039 156.500 C 219.039 156.821,219.073 156.952,219.115 156.792 C 219.157 156.631,219.157 156.369,219.115 156.208 C 219.073 156.048,219.039 156.179,219.039 156.500 M219.333 161.583 C 219.644 161.904,219.936 162.167,219.982 162.167 C 220.028 162.167,219.811 161.904,219.500 161.583 C 219.189 161.262,218.897 161.000,218.851 161.000 C 218.805 161.000,219.022 161.262,219.333 161.583 M196.167 162.219 C 196.167 162.248,196.410 162.491,196.708 162.760 L 197.250 163.250 196.760 162.708 C 196.304 162.203,196.167 162.090,196.167 162.219 M216.417 163.000 C 216.775 163.367,217.105 163.667,217.151 163.667 C 217.197 163.667,216.941 163.367,216.583 163.000 C 216.225 162.633,215.895 162.333,215.849 162.333 C 215.803 162.333,216.059 162.633,216.417 163.000 M210.167 163.719 C 210.167 163.748,210.410 163.991,210.708 164.260 L 211.250 164.750 210.760 164.208 C 210.304 163.703,210.167 163.590,210.167 163.719 M194.833 165.250 C 195.144 165.571,195.436 165.833,195.482 165.833 C 195.528 165.833,195.311 165.571,195.000 165.250 C 194.689 164.929,194.397 164.667,194.351 164.667 C 194.305 164.667,194.522 164.929,194.833 165.250 M222.058 168.667 C 222.058 169.446,222.087 169.765,222.122 169.375 C 222.157 168.985,222.157 168.348,222.122 167.958 C 222.087 167.569,222.058 167.887,222.058 168.667 M216.493 170.542 C 217.184 171.278,217.333 171.410,217.333 171.285 C 217.333 171.258,216.977 170.902,216.542 170.493 L 215.750 169.750 216.493 170.542 M250.375 171.282 C 250.535 171.323,250.798 171.323,250.958 171.282 C 251.119 171.240,250.987 171.205,250.667 171.205 C 250.346 171.205,250.215 171.240,250.375 171.282 M215.167 173.719 C 215.167 173.748,215.410 173.991,215.708 174.260 L 216.250 174.750 215.760 174.208 C 215.304 173.703,215.167 173.590,215.167 173.719 M230.794 175.118 C 231.001 175.158,231.301 175.156,231.460 175.115 C 231.620 175.073,231.450 175.040,231.083 175.042 C 230.717 175.044,230.586 175.078,230.794 175.118 M107.912 178.042 L 106.750 179.250 107.958 178.088 C 109.081 177.008,109.243 176.833,109.121 176.833 C 109.095 176.833,108.551 177.377,107.912 178.042 M157.702 180.581 C 158.409 181.307,159.010 181.867,159.038 181.826 C 159.066 181.784,158.488 181.190,157.753 180.505 L 156.417 179.260 157.702 180.581 M183.406 180.708 L 182.917 181.250 183.458 180.760 C 183.963 180.304,184.077 180.167,183.948 180.167 C 183.919 180.167,183.675 180.410,183.406 180.708 M196.313 180.547 C 196.394 180.627,196.675 180.666,196.938 180.633 C 197.379 180.578,197.367 180.566,196.792 180.487 C 196.434 180.437,196.229 180.463,196.313 180.547 M143.542 182.615 C 143.702 182.657,143.965 182.657,144.125 182.615 C 144.285 182.573,144.154 182.539,143.833 182.539 C 143.512 182.539,143.381 182.573,143.542 182.615 M185.073 183.375 L 184.583 183.917 185.125 183.427 C 185.630 182.971,185.743 182.833,185.615 182.833 C 185.586 182.833,185.342 183.077,185.073 183.375 M148.833 187.552 C 148.833 187.581,149.077 187.825,149.375 188.094 L 149.917 188.583 149.427 188.042 C 148.971 187.537,148.833 187.423,148.833 187.552 M91.667 191.052 C 91.667 191.081,91.910 191.325,92.208 191.594 L 92.750 192.083 92.260 191.542 C 91.804 191.037,91.667 190.923,91.667 191.052 M122.542 191.782 C 122.702 191.823,122.965 191.823,123.125 191.782 C 123.285 191.740,123.154 191.705,122.833 191.705 C 122.513 191.705,122.381 191.740,122.542 191.782 M157.875 192.448 C 158.035 192.490,158.298 192.490,158.458 192.448 C 158.619 192.406,158.487 192.372,158.167 192.372 C 157.846 192.372,157.715 192.406,157.875 192.448 M89.417 193.167 C 89.775 193.533,90.105 193.833,90.151 193.833 C 90.197 193.833,89.941 193.533,89.583 193.167 C 89.225 192.800,88.895 192.500,88.849 192.500 C 88.803 192.500,89.059 192.800,89.417 193.167 M95.000 194.219 C 95.000 194.248,95.244 194.491,95.542 194.760 L 96.083 195.250 95.594 194.708 C 95.138 194.203,95.000 194.090,95.000 194.219 M141.372 195.167 C 141.372 195.487,141.406 195.619,141.448 195.458 C 141.490 195.298,141.490 195.035,141.448 194.875 C 141.406 194.715,141.372 194.846,141.372 195.167 M92.000 195.719 C 92.000 195.748,92.244 195.991,92.542 196.260 L 93.083 196.750 92.594 196.208 C 92.138 195.703,92.000 195.590,92.000 195.719 M112.487 196.458 L 112.083 196.917 112.583 196.500 C 112.858 196.271,113.115 196.065,113.153 196.042 C 113.191 196.019,113.148 196.000,113.057 196.000 C 112.966 196.000,112.710 196.206,112.487 196.458 M115.417 196.833 C 115.775 197.200,116.105 197.500,116.151 197.500 C 116.197 197.500,115.941 197.200,115.583 196.833 C 115.225 196.467,114.895 196.167,114.849 196.167 C 114.803 196.167,115.059 196.467,115.417 196.833 M98.333 197.250 C 98.644 197.571,98.936 197.833,98.982 197.833 C 99.028 197.833,98.811 197.571,98.500 197.250 C 98.189 196.929,97.897 196.667,97.851 196.667 C 97.805 196.667,98.022 196.929,98.333 197.250 M140.406 197.208 L 139.917 197.750 140.458 197.260 C 140.756 196.991,141.000 196.748,141.000 196.719 C 141.000 196.590,140.862 196.703,140.406 197.208 M125.539 197.333 C 125.539 197.654,125.573 197.785,125.615 197.625 C 125.657 197.465,125.657 197.202,125.615 197.042 C 125.573 196.881,125.539 197.012,125.539 197.333 M111.875 198.083 C 111.877 198.450,111.911 198.580,111.951 198.373 C 111.991 198.166,111.990 197.866,111.948 197.706 C 111.906 197.547,111.874 197.717,111.875 198.083 M110.250 198.667 C 110.701 199.125,111.108 199.500,111.154 199.500 C 111.200 199.500,110.868 199.125,110.417 198.667 C 109.965 198.208,109.558 197.833,109.513 197.833 C 109.467 197.833,109.799 198.208,110.250 198.667 M94.667 198.052 C 94.667 198.081,94.910 198.325,95.208 198.594 L 95.750 199.083 95.260 198.542 C 94.804 198.037,94.667 197.923,94.667 198.052 M96.750 200.000 C 97.201 200.458,97.608 200.833,97.654 200.833 C 97.700 200.833,97.368 200.458,96.917 200.000 C 96.465 199.542,96.058 199.167,96.013 199.167 C 95.967 199.167,96.299 199.542,96.750 200.000 M112.023 199.635 C 112.008 199.891,111.930 199.980,111.792 199.902 C 111.626 199.809,111.626 199.830,111.789 200.006 C 112.059 200.297,112.212 200.127,112.119 199.639 L 112.045 199.250 112.023 199.635 M72.627 201.118 C 72.834 201.158,73.134 201.156,73.294 201.115 C 73.453 201.073,73.283 201.040,72.917 201.042 C 72.550 201.044,72.420 201.078,72.627 201.118 M96.708 202.448 C 96.869 202.490,97.131 202.490,97.292 202.448 C 97.452 202.406,97.321 202.372,97.000 202.372 C 96.679 202.372,96.548 202.406,96.708 202.448 M76.460 202.618 C 76.668 202.658,76.968 202.656,77.127 202.615 C 77.286 202.573,77.117 202.540,76.750 202.542 C 76.383 202.544,76.253 202.578,76.460 202.618 M73.324 204.292 L 72.750 204.917 73.375 204.342 C 73.957 203.808,74.077 203.667,73.949 203.667 C 73.922 203.667,73.640 203.948,73.324 204.292 M240.833 206.333 L 240.250 206.456 240.875 206.478 C 241.219 206.490,241.500 206.425,241.500 206.333 C 241.500 206.242,241.481 206.177,241.458 206.189 C 241.435 206.201,241.154 206.266,240.833 206.333 M58.833 208.219 C 58.833 208.248,59.077 208.491,59.375 208.760 L 59.917 209.250 59.427 208.708 C 58.971 208.203,58.833 208.090,58.833 208.219 M121.375 208.615 C 121.535 208.657,121.798 208.657,121.958 208.615 C 122.119 208.573,121.987 208.539,121.667 208.539 C 121.346 208.539,121.215 208.573,121.375 208.615 M115.500 210.880 C 115.500 211.180,115.381 211.611,115.237 211.838 L 114.973 212.250 115.320 211.857 C 115.624 211.512,115.828 210.333,115.583 210.333 C 115.537 210.333,115.500 210.579,115.500 210.880 M112.167 211.219 C 112.167 211.248,112.410 211.491,112.708 211.760 L 113.250 212.250 112.760 211.708 C 112.304 211.203,112.167 211.090,112.167 211.219 M195.627 211.618 C 195.834 211.658,196.134 211.656,196.294 211.615 C 196.453 211.573,196.283 211.540,195.917 211.542 C 195.550 211.544,195.420 211.578,195.627 211.618 M175.877 213.620 C 176.131 213.658,176.506 213.657,176.711 213.617 C 176.916 213.578,176.708 213.546,176.250 213.548 C 175.792 213.549,175.624 213.581,175.877 213.620 M75.500 215.917 C 75.811 216.237,76.103 216.500,76.149 216.500 C 76.195 216.500,75.978 216.237,75.667 215.917 C 75.356 215.596,75.064 215.333,75.018 215.333 C 74.972 215.333,75.189 215.596,75.500 215.917 M60.833 216.444 C 60.833 216.628,60.944 216.778,61.081 216.778 C 61.280 216.778,61.289 216.726,61.128 216.514 C 61.018 216.369,60.906 216.219,60.880 216.181 C 60.855 216.142,60.833 216.261,60.833 216.444 M54.875 218.250 C 54.877 218.617,54.911 218.747,54.951 218.540 C 54.991 218.332,54.990 218.032,54.948 217.873 C 54.906 217.714,54.874 217.883,54.875 218.250 M66.500 218.713 C 66.500 218.738,67.081 219.319,67.792 220.004 L 69.083 221.250 67.838 219.958 C 66.680 218.759,66.500 218.591,66.500 218.713 M77.042 223.948 C 77.202 223.990,77.465 223.990,77.625 223.948 C 77.785 223.906,77.654 223.872,77.333 223.872 C 77.012 223.872,76.881 223.906,77.042 223.948 M49.042 228.917 C 49.044 229.283,49.078 229.414,49.118 229.206 C 49.158 228.999,49.156 228.699,49.115 228.540 C 49.073 228.380,49.040 228.550,49.042 228.917 " stroke="none" fill="#815211" fill-rule="evenodd"></path></g></svg>