<svg id="svg" version="1.1" xmlns="http://www.w3.org/2000/svg" xmlns:xlink="http://www.w3.org/1999/xlink" width="400" height="400" viewBox="0, 0, 400,400"><g id="svgg"><path id="path0" d="M204.062 108.324 C 203.589 108.536,203.326 108.790,203.169 109.187 C 202.144 111.787,199.213 117.563,197.443 120.473 C 196.960 121.267,196.521 122.029,196.468 122.167 C 196.391 122.362,193.837 125.958,193.212 126.750 C 193.140 126.842,192.669 127.441,192.165 128.082 C 191.105 129.432,190.682 129.951,190.333 130.326 C 190.196 130.474,189.664 131.117,189.151 131.756 C 188.638 132.394,187.953 133.217,187.628 133.583 C 187.303 133.950,186.270 135.150,185.333 136.250 C 181.133 141.179,175.625 146.957,172.583 149.626 C 170.772 151.216,168.755 152.691,168.710 152.458 C 168.688 152.344,168.588 151.237,168.488 150.000 C 168.119 145.424,168.114 145.392,167.679 144.930 C 167.082 144.294,165.986 144.322,165.318 144.990 C 165.049 145.259,164.683 145.525,164.505 145.582 C 164.028 145.733,163.333 146.631,163.333 147.096 C 163.333 147.318,163.263 147.500,163.178 147.500 C 163.092 147.500,162.971 147.663,162.908 147.862 C 162.844 148.061,162.726 148.305,162.644 148.404 C 162.563 148.503,162.341 148.790,162.152 149.043 C 161.963 149.295,161.157 149.963,160.362 150.526 C 159.567 151.089,158.879 151.596,158.833 151.653 C 158.645 151.889,157.614 152.471,155.167 153.725 C 153.746 154.453,152.171 155.262,151.667 155.522 C 151.162 155.783,150.695 155.997,150.628 155.998 C 150.561 155.999,150.016 156.300,149.417 156.667 C 148.818 157.033,148.294 157.333,148.252 157.333 C 148.211 157.333,147.649 157.675,147.005 158.092 C 146.360 158.509,145.026 159.236,144.041 159.707 C 142.270 160.555,140.219 161.719,139.250 162.428 C 137.976 163.359,134.353 164.770,132.589 165.022 C 128.493 165.606,128.850 165.635,127.583 164.626 C 123.935 161.724,123.192 159.698,123.670 153.962 C 123.745 153.064,123.719 152.976,123.219 152.476 C 122.272 151.528,120.333 151.943,120.333 153.093 C 120.333 153.225,120.267 153.333,120.186 153.333 C 120.037 153.333,118.864 155.639,118.151 157.333 C 117.789 158.194,116.395 160.650,116.165 160.833 C 116.025 160.945,114.004 164.331,113.330 165.583 C 112.405 167.304,110.620 169.997,109.134 171.917 C 107.661 173.819,105.151 176.339,102.654 178.422 C 99.354 181.174,90.132 185.500,87.565 185.500 C 87.218 185.500,86.734 185.669,86.369 185.917 C 86.032 186.146,85.684 186.333,85.596 186.333 C 85.408 186.333,81.762 187.495,75.917 189.417 C 73.625 190.170,70.400 191.177,68.750 191.655 C 67.100 192.132,65.563 192.587,65.333 192.665 C 65.104 192.744,64.354 192.970,63.667 193.167 C 62.979 193.364,62.229 193.589,62.000 193.667 C 61.771 193.745,61.021 193.970,60.333 194.167 C 59.646 194.364,58.896 194.589,58.667 194.667 C 58.438 194.745,57.725 194.961,57.083 195.146 C 56.442 195.332,55.017 195.757,53.917 196.091 C 52.817 196.425,51.523 196.803,51.042 196.932 C 49.369 197.380,48.411 197.647,47.500 197.920 C 46.183 198.314,45.249 198.568,41.500 199.551 C 40.629 199.779,39.354 200.053,38.667 200.160 C 34.803 200.762,34.303 201.762,35.411 206.684 C 35.656 207.770,35.958 209.568,36.417 212.667 C 36.546 213.537,36.768 214.963,36.911 215.833 C 37.053 216.704,37.241 217.942,37.328 218.583 C 37.553 220.250,38.251 224.233,38.744 226.667 C 39.883 232.285,40.485 235.078,40.901 236.667 C 41.032 237.171,41.297 238.183,41.488 238.917 C 41.999 240.879,43.093 241.550,44.336 240.665 C 45.209 240.043,50.670 238.398,56.250 237.074 C 58.814 236.467,59.470 236.320,60.750 236.066 C 61.483 235.921,62.571 235.703,63.167 235.583 C 63.762 235.463,64.887 235.238,65.667 235.083 C 66.446 234.928,67.571 234.703,68.167 234.583 C 71.022 234.008,73.485 233.557,76.333 233.087 C 77.112 232.959,79.100 232.619,80.750 232.333 C 82.400 232.047,84.425 231.702,85.250 231.567 C 86.075 231.432,87.388 231.214,88.167 231.083 C 91.399 230.542,93.709 230.160,97.250 229.585 C 98.075 229.451,99.425 229.230,100.250 229.094 C 101.075 228.957,102.425 228.734,103.250 228.598 C 104.075 228.462,105.200 228.272,105.750 228.176 C 106.300 228.080,107.111 228.001,107.553 228.001 C 107.994 228.000,108.489 227.928,108.652 227.841 C 108.816 227.754,109.429 227.600,110.016 227.500 C 112.401 227.092,114.167 226.805,115.708 226.576 C 116.602 226.442,118.065 226.224,118.958 226.091 C 121.190 225.758,125.668 225.048,128.417 224.591 C 129.242 224.454,130.610 224.228,131.458 224.088 C 135.241 223.464,136.005 223.335,137.417 223.086 C 139.800 222.665,141.793 222.336,143.500 222.083 C 145.540 221.781,147.851 221.416,149.792 221.091 C 153.364 220.493,154.474 220.312,155.500 220.161 C 156.096 220.074,157.221 219.891,158.000 219.755 C 158.779 219.620,160.129 219.389,161.000 219.244 C 161.871 219.098,163.296 218.830,164.167 218.648 C 166.745 218.109,168.154 217.849,169.870 217.597 C 170.762 217.466,171.550 217.322,171.621 217.278 C 171.737 217.206,173.190 217.091,181.402 216.504 C 182.832 216.402,183.660 216.407,183.870 216.520 C 184.248 216.722,185.141 216.559,185.529 216.217 C 185.686 216.079,186.565 215.866,187.529 215.733 C 188.476 215.602,189.775 215.420,190.417 215.329 C 191.058 215.237,193.121 215.049,195.000 214.910 C 198.582 214.646,199.881 214.497,202.083 214.095 C 203.764 213.789,206.072 213.366,207.583 213.089 C 208.225 212.971,209.575 212.711,210.583 212.512 C 213.597 211.915,214.670 211.710,216.333 211.415 C 217.204 211.260,218.442 211.032,219.083 210.908 C 219.725 210.784,220.700 210.634,221.250 210.576 C 221.800 210.518,222.549 210.394,222.915 210.301 C 223.280 210.209,224.817 210.111,226.331 210.085 C 228.301 210.051,229.391 209.955,230.167 209.746 C 231.126 209.488,231.717 209.469,235.333 209.578 C 237.579 209.646,239.604 209.706,239.833 209.711 C 241.662 209.756,244.342 209.502,244.731 209.247 C 245.601 208.677,245.614 206.733,244.756 205.667 C 244.051 204.790,243.788 202.526,243.978 198.958 C 244.148 195.751,244.069 195.925,245.852 194.896 C 248.482 193.379,249.366 191.831,248.306 190.599 C 247.893 190.119,247.644 190.031,244.225 189.167 C 242.124 188.636,239.500 187.847,239.250 187.671 C 239.158 187.607,238.596 187.377,238.000 187.159 C 235.885 186.389,234.386 185.152,234.143 183.978 C 233.833 182.484,238.428 179.006,242.583 177.590 C 243.317 177.340,244.142 177.033,244.417 176.908 C 244.692 176.784,245.517 176.524,246.250 176.331 C 246.983 176.138,248.146 175.824,248.833 175.633 C 249.521 175.442,250.908 175.112,251.917 174.898 C 255.536 174.133,256.176 173.526,256.901 170.167 C 257.609 166.888,256.082 165.332,253.635 166.837 C 252.157 167.746,251.013 167.983,251.809 167.215 C 252.224 166.814,254.000 164.386,254.001 164.217 C 254.001 164.144,254.226 163.746,254.500 163.333 C 255.447 161.909,254.946 160.359,253.449 160.078 C 251.058 159.630,247.548 161.259,244.663 164.157 C 243.160 165.665,242.953 165.903,241.885 167.343 C 240.750 168.875,238.019 170.564,236.000 170.984 C 235.588 171.070,234.511 171.296,233.609 171.487 C 232.706 171.677,231.593 171.833,231.136 171.833 L 230.303 171.833 231.140 171.172 C 231.600 170.808,232.243 170.152,232.569 169.714 C 232.895 169.275,233.228 168.836,233.309 168.739 C 233.562 168.433,234.893 166.505,236.351 164.333 C 237.120 163.188,237.791 162.212,237.842 162.167 C 237.893 162.121,238.114 161.783,238.333 161.417 C 238.553 161.050,238.778 160.712,238.833 160.667 C 238.889 160.621,239.115 160.283,239.336 159.917 C 239.557 159.550,239.841 159.144,239.967 159.015 C 240.093 158.886,240.388 158.473,240.622 158.098 C 241.291 157.027,242.620 155.403,243.688 154.352 C 245.787 152.285,244.358 150.212,241.646 151.389 C 241.153 151.602,240.075 151.945,239.250 152.149 C 238.425 152.354,237.458 152.598,237.101 152.691 C 236.745 152.785,236.107 152.922,235.685 152.996 C 235.262 153.070,234.167 153.283,233.250 153.470 C 225.159 155.117,226.051 155.055,225.918 153.975 C 225.792 152.945,226.075 148.900,226.343 147.917 C 226.730 146.496,227.202 144.902,227.331 144.583 C 227.405 144.400,227.709 143.575,228.007 142.750 C 228.522 141.320,229.062 140.218,230.400 137.859 C 230.730 137.277,231.000 136.772,231.000 136.737 C 231.000 136.701,231.229 136.202,231.510 135.628 C 233.298 131.966,233.484 131.249,233.233 129.000 C 232.626 123.574,230.311 121.569,228.075 124.531 C 227.100 125.823,226.396 126.590,225.782 127.033 L 225.313 127.370 225.582 126.727 C 225.873 126.030,226.654 124.635,226.829 124.500 C 226.888 124.454,227.230 123.929,227.588 123.333 C 227.946 122.737,228.628 121.681,229.104 120.986 C 230.157 119.447,231.667 116.536,231.667 116.045 C 231.667 115.848,231.742 115.640,231.833 115.583 C 231.925 115.527,232.000 115.103,232.000 114.641 C 232.000 113.171,230.941 112.278,229.750 112.742 C 229.475 112.849,228.800 113.035,228.250 113.154 C 227.700 113.273,226.800 113.503,226.250 113.665 C 225.700 113.827,224.950 114.042,224.583 114.143 C 223.551 114.426,220.205 115.487,219.000 115.912 C 214.675 117.438,214.409 117.537,212.833 118.215 C 212.421 118.392,211.423 118.863,210.617 119.261 C 209.650 119.739,209.130 119.917,209.091 119.784 C 209.058 119.674,208.865 118.796,208.662 117.833 C 208.458 116.871,208.188 115.596,208.061 115.000 C 207.934 114.404,207.723 113.392,207.593 112.750 C 206.910 109.381,206.621 108.812,205.319 108.268 C 204.789 108.047,204.669 108.052,204.062 108.324 M205.818 119.917 C 206.090 121.292,206.470 123.354,206.664 124.500 C 207.214 127.753,207.435 128.167,208.628 128.167 C 209.884 128.167,210.200 127.270,209.816 124.796 C 209.638 123.645,209.644 123.602,210.024 123.307 C 211.816 121.920,219.305 118.973,225.441 117.241 C 226.554 116.927,227.601 116.618,227.766 116.554 C 228.164 116.402,227.589 117.418,225.346 120.833 C 222.178 125.658,221.665 127.185,222.611 128.984 C 223.158 130.026,223.969 130.547,225.061 130.561 C 226.540 130.579,226.956 130.383,228.412 128.985 C 229.975 127.485,229.886 127.458,230.095 129.507 C 230.227 130.805,229.928 131.627,227.871 135.620 C 225.548 140.129,225.194 140.908,224.367 143.337 C 223.009 147.327,222.755 148.734,222.753 152.311 L 222.750 155.372 221.750 155.248 C 219.873 155.015,219.163 155.350,219.131 156.482 C 219.073 158.508,222.917 158.932,229.083 157.580 C 229.725 157.439,232.057 156.967,234.266 156.532 L 238.282 155.740 236.032 159.078 C 229.864 168.229,229.766 168.351,227.114 170.152 C 226.673 170.452,226.013 171.021,225.648 171.417 C 225.283 171.813,224.669 172.286,224.284 172.467 C 222.850 173.142,222.468 174.309,223.414 175.123 C 224.103 175.716,225.111 175.592,226.419 174.756 C 227.335 174.170,227.447 174.138,227.913 174.328 C 231.101 175.633,237.462 174.653,240.944 172.322 C 243.030 170.925,243.447 170.549,244.790 168.853 C 246.637 166.520,248.252 165.036,250.167 163.911 C 250.479 163.728,250.236 164.088,249.303 165.196 C 246.309 168.748,248.028 172.066,252.269 170.918 C 253.428 170.604,253.671 170.639,253.250 171.059 C 252.975 171.334,252.797 171.388,250.167 171.995 C 245.227 173.135,238.787 175.354,236.805 176.599 C 234.404 178.107,231.667 180.986,231.667 182.004 C 231.667 182.112,231.442 182.410,231.167 182.667 C 230.311 183.466,230.732 185.038,232.417 187.333 C 233.597 188.941,238.137 191.081,242.333 192.007 C 243.689 192.306,243.819 192.413,243.214 192.725 C 242.480 193.105,241.425 194.371,241.190 195.153 C 240.412 197.752,240.546 204.082,241.424 206.231 C 241.548 206.533,241.465 206.539,239.151 206.408 C 235.002 206.173,230.935 206.248,229.333 206.591 C 228.378 206.795,227.346 206.882,226.167 206.859 C 225.204 206.839,223.667 206.941,222.750 207.084 C 218.264 207.783,215.827 208.219,207.833 209.752 C 202.521 210.772,199.052 211.332,197.083 211.489 C 192.418 211.860,189.067 212.214,186.565 212.599 L 185.881 212.704 185.786 211.977 C 185.236 207.771,183.165 199.377,181.330 193.917 C 180.683 191.992,179.859 189.356,179.498 188.060 C 178.230 183.500,177.608 182.172,176.581 181.832 C 175.299 181.410,174.228 182.284,173.316 184.497 C 172.627 186.168,172.607 186.176,172.181 184.966 C 171.977 184.389,171.558 183.316,171.250 182.582 C 170.269 180.243,168.948 176.118,166.741 168.500 C 166.144 166.438,165.264 163.557,164.786 162.099 C 164.222 160.379,163.982 159.425,164.104 159.384 C 165.415 158.935,170.576 155.472,173.512 153.070 C 177.741 149.611,186.971 139.639,194.017 130.917 C 197.685 126.376,200.384 122.178,203.417 116.297 L 204.583 114.035 204.954 115.726 C 205.158 116.656,205.547 118.542,205.818 119.917 M165.485 153.527 L 165.500 155.138 164.319 155.819 C 162.997 156.581,162.952 156.593,162.680 156.266 C 162.144 155.620,160.834 155.860,160.409 156.682 C 160.017 157.440,160.108 157.909,161.346 161.500 C 162.367 164.460,163.233 167.285,165.334 174.503 C 166.061 177.003,167.668 181.803,168.206 183.083 C 168.475 183.725,169.054 185.301,169.492 186.586 C 170.748 190.276,171.128 190.833,172.386 190.833 C 173.418 190.833,173.907 190.346,174.934 188.300 C 175.440 187.291,175.879 186.492,175.910 186.524 C 175.941 186.557,176.206 187.483,176.500 188.583 C 176.794 189.683,177.660 192.496,178.425 194.833 C 179.189 197.171,179.963 199.683,180.144 200.417 C 180.325 201.150,180.697 202.612,180.972 203.667 C 181.246 204.721,181.704 206.746,181.988 208.167 C 182.273 209.588,182.579 211.112,182.669 211.554 C 183.036 213.354,183.517 213.182,176.981 213.588 C 172.963 213.838,168.531 214.439,164.910 215.226 C 162.169 215.822,160.391 216.125,147.667 218.172 C 145.971 218.445,139.821 219.452,134.000 220.410 C 128.179 221.368,121.167 222.495,118.417 222.913 C 113.095 223.722,109.445 224.299,108.944 224.409 C 108.589 224.487,108.161 223.628,107.414 221.333 C 106.940 219.879,105.882 217.949,104.614 216.226 C 104.219 215.689,103.682 214.875,103.420 214.417 C 102.279 212.415,100.714 209.827,99.995 208.750 C 99.304 207.714,98.500 206.153,98.500 205.846 C 98.500 205.784,98.980 205.765,99.567 205.802 C 101.761 205.942,104.243 205.194,104.927 204.187 C 105.916 202.733,105.233 201.535,103.248 201.243 C 101.951 201.053,101.784 200.945,100.484 199.470 C 99.249 198.068,98.584 197.435,94.776 194.037 C 92.704 192.187,90.526 189.853,89.964 188.880 L 89.678 188.384 91.297 187.833 C 103.280 183.757,109.940 178.006,117.065 165.583 C 117.644 164.575,118.615 162.962,119.224 162.000 C 119.833 161.037,120.332 160.194,120.332 160.125 C 120.336 159.659,120.638 160.176,120.903 161.102 C 122.047 165.095,127.314 169.412,130.147 168.677 C 130.479 168.591,131.425 168.435,132.250 168.331 C 135.200 167.957,138.723 166.609,141.506 164.789 C 142.288 164.278,143.928 163.361,145.151 162.752 C 146.373 162.143,148.159 161.158,149.120 160.564 C 150.082 159.970,152.566 158.634,154.642 157.595 C 159.954 154.938,163.688 152.489,164.750 150.967 L 165.250 150.250 165.360 151.083 C 165.421 151.542,165.477 152.641,165.485 153.527 M202.627 152.317 C 202.134 152.750,202.042 152.776,201.756 152.567 C 200.868 151.918,199.500 152.612,199.500 153.713 C 199.500 154.282,199.633 154.495,201.152 156.351 C 201.557 156.845,202.451 158.112,203.140 159.167 C 203.828 160.221,204.590 161.346,204.831 161.667 C 205.073 161.987,205.828 163.000,206.509 163.917 C 207.189 164.833,208.647 166.529,209.748 167.684 C 210.849 168.840,212.113 170.228,212.558 170.768 C 214.879 173.592,216.913 175.333,217.889 175.333 C 219.870 175.333,221.864 172.318,221.974 169.153 C 222.138 164.417,220.992 162.519,215.083 157.740 C 213.581 156.525,212.453 155.794,209.833 154.334 C 205.390 151.859,203.690 151.384,202.627 152.317 M208.583 157.124 C 211.350 158.676,212.061 159.173,214.775 161.450 C 218.102 164.242,218.821 165.383,218.959 168.093 C 219.044 169.750,219.030 169.836,218.517 170.932 L 217.988 172.062 216.902 170.989 C 216.304 170.399,215.388 169.395,214.866 168.758 C 214.344 168.121,212.942 166.578,211.750 165.331 C 210.558 164.083,208.946 162.167,208.167 161.073 C 206.609 158.884,204.167 155.233,204.167 155.093 C 204.167 154.864,206.322 155.855,208.583 157.124 M194.626 156.570 C 189.869 158.249,190.038 160.055,195.489 165.833 C 197.625 168.097,198.444 169.037,200.935 172.083 C 204.264 176.155,205.241 177.853,204.860 178.905 C 204.140 180.898,206.505 182.083,207.597 180.277 C 208.619 178.590,207.441 175.033,204.914 172.173 C 203.141 170.166,203.201 170.051,205.314 171.414 C 205.920 171.805,207.054 172.444,207.833 172.834 C 208.612 173.224,209.550 173.749,209.917 173.999 C 211.627 175.169,212.681 175.515,213.386 175.139 C 214.701 174.439,214.406 172.967,212.785 172.144 C 212.399 171.948,211.783 171.583,211.417 171.332 C 211.050 171.082,210.066 170.534,209.231 170.115 C 207.583 169.288,204.676 167.460,203.542 166.537 C 202.739 165.883,202.353 164.894,201.997 162.580 C 201.368 158.489,200.245 156.931,197.551 156.416 C 195.907 156.101,195.964 156.098,194.626 156.570 M198.046 160.031 C 198.554 160.635,198.661 160.987,199.044 163.333 C 199.187 164.204,199.357 165.067,199.423 165.250 C 199.614 165.783,196.736 162.877,195.653 161.444 C 194.504 159.922,194.497 159.894,195.208 159.572 C 196.144 159.147,197.486 159.365,198.046 160.031 M187.836 161.125 C 187.413 161.338,187.210 161.581,187.086 162.025 C 186.993 162.359,186.773 162.792,186.597 162.985 C 185.984 163.662,186.601 165.514,189.048 170.333 C 190.898 173.979,192.854 179.412,194.596 185.750 C 195.025 187.308,195.553 189.061,195.771 189.645 C 195.989 190.229,196.167 190.925,196.167 191.192 C 196.167 193.167,198.275 193.929,199.075 192.243 C 199.451 191.452,199.404 191.042,198.684 188.785 C 198.326 187.666,197.872 186.188,197.674 185.500 C 197.476 184.813,197.278 184.127,197.235 183.976 C 197.170 183.754,197.366 183.667,198.286 183.512 C 198.908 183.406,199.778 183.203,200.219 183.060 C 200.660 182.917,201.043 182.826,201.070 182.858 C 201.564 183.462,202.667 185.911,202.667 186.405 C 202.667 188.289,205.015 188.505,205.782 186.691 C 206.139 185.848,205.250 183.612,203.642 181.308 C 203.472 181.064,203.333 180.740,203.333 180.586 C 203.333 180.433,203.123 180.098,202.867 179.841 C 202.196 179.170,193.245 166.696,190.622 162.777 C 189.905 161.705,189.483 161.239,189.073 161.068 C 188.391 160.783,188.530 160.777,187.836 161.125 M180.742 163.909 C 180.065 164.586,180.187 165.145,182.603 172.474 L 184.874 179.365 183.984 180.266 C 182.968 181.295,182.811 181.343,182.555 180.708 C 180.806 176.378,178.958 171.747,177.915 169.084 C 176.229 164.778,175.415 163.964,174.106 165.273 C 173.449 165.930,173.522 166.276,175.234 170.613 C 176.096 172.796,177.069 175.272,177.397 176.113 C 178.061 177.816,181.643 186.462,183.061 189.781 C 184.178 192.396,185.806 196.746,186.393 198.679 C 186.985 200.630,187.729 201.209,188.818 200.566 C 190.149 199.779,189.449 197.043,185.588 187.945 C 183.928 184.031,183.971 184.373,185.015 183.435 C 186.055 182.500,185.909 182.367,186.999 185.250 C 187.484 186.533,188.352 188.783,188.928 190.250 C 189.504 191.717,190.173 193.629,190.415 194.500 C 191.157 197.168,191.269 197.333,192.333 197.333 C 194.403 197.333,194.270 195.512,191.724 189.000 C 188.220 180.037,188.234 180.080,188.557 179.401 C 189.030 178.409,188.779 177.640,187.830 177.181 C 187.297 176.922,187.241 176.783,185.160 170.507 C 183.583 165.753,182.938 164.020,182.665 163.799 C 182.127 163.362,181.238 163.414,180.742 163.909 M195.351 174.790 C 196.384 176.232,197.662 178.005,198.193 178.730 C 199.326 180.276,199.332 180.247,197.835 180.500 C 196.302 180.758,196.364 180.802,195.738 178.991 C 194.719 176.042,193.554 172.751,193.426 172.458 C 193.118 171.758,193.593 172.333,195.351 174.790 M160.252 177.695 C 159.623 178.189,159.384 178.844,159.244 180.459 C 159.098 182.128,159.263 182.137,157.427 180.360 C 155.398 178.398,154.214 178.214,153.568 179.761 C 153.200 180.642,153.182 180.582,155.680 186.917 C 156.427 188.811,156.738 189.825,156.754 190.417 C 156.786 191.592,156.796 191.629,157.167 192.000 C 157.661 192.495,158.825 192.458,159.318 191.933 C 160.306 190.881,160.110 189.682,158.213 185.191 C 158.139 185.015,158.225 185.022,158.613 185.222 C 159.538 185.701,160.461 185.652,161.129 185.089 L 161.617 184.679 161.989 186.214 C 162.421 187.997,162.624 188.373,163.306 188.656 C 164.512 189.155,165.572 187.946,165.179 186.521 C 164.923 185.595,164.549 183.922,164.317 182.667 C 163.508 178.293,161.936 176.370,160.252 177.695 M139.717 184.328 C 136.180 186.067,135.833 186.341,135.833 187.399 C 135.833 188.277,136.486 188.721,137.926 188.824 L 139.230 188.917 139.680 189.833 C 140.302 191.101,141.318 194.133,141.505 195.279 L 141.659 196.230 140.792 197.007 C 138.363 199.183,140.689 200.990,143.191 198.871 C 143.865 198.300,144.938 197.515,145.576 197.127 C 147.494 195.960,148.065 195.321,147.951 194.472 C 147.772 193.143,146.617 192.786,145.317 193.659 C 144.427 194.257,144.518 194.357,143.734 191.917 C 143.380 190.817,142.739 189.215,142.310 188.357 L 141.529 186.797 143.056 186.083 C 145.299 185.035,145.804 184.251,144.917 183.197 C 144.157 182.295,143.616 182.412,139.717 184.328 M150.083 183.828 C 148.924 184.289,148.802 185.462,149.725 187.288 C 150.434 188.691,150.427 188.660,150.017 188.553 C 149.403 188.392,148.739 187.481,148.089 185.904 C 147.366 184.151,145.167 184.346,145.167 186.163 C 145.167 189.217,148.915 192.355,151.463 191.435 C 152.133 191.194,152.210 191.198,152.713 191.505 C 153.457 191.958,153.944 191.915,154.513 191.346 C 155.287 190.572,155.178 189.994,153.974 188.475 C 153.731 188.168,153.216 187.204,152.831 186.333 C 151.880 184.185,151.062 183.440,150.083 183.828 M131.417 188.474 C 126.666 189.915,126.612 190.229,129.935 197.141 C 130.699 198.732,131.372 200.288,131.431 200.601 C 131.583 201.410,132.395 202.061,133.108 201.945 C 133.407 201.896,133.867 201.938,134.130 202.037 C 136.311 202.860,138.678 198.250,138.171 194.167 C 137.573 189.361,135.170 187.335,131.417 188.474 M87.380 190.458 C 88.061 191.508,91.422 195.342,91.910 195.623 C 92.030 195.693,92.541 196.125,93.046 196.583 C 93.550 197.042,94.578 197.942,95.331 198.583 C 96.481 199.564,97.604 200.732,98.990 202.391 C 99.237 202.687,99.192 202.694,97.748 202.582 C 94.288 202.314,94.181 205.293,97.466 210.383 C 98.010 211.226,99.094 213.004,99.875 214.333 C 100.655 215.662,101.938 217.712,102.727 218.887 C 103.515 220.062,104.242 221.327,104.342 221.699 C 104.442 222.070,104.742 222.941,105.009 223.634 C 105.276 224.327,105.474 224.915,105.449 224.940 C 105.424 224.964,101.057 225.701,95.744 226.576 C 66.421 231.405,56.520 233.359,47.838 236.031 C 44.066 237.192,44.345 237.235,43.885 235.417 C 43.676 234.592,43.273 232.792,42.988 231.417 C 42.704 230.042,42.252 227.867,41.984 226.583 C 41.424 223.897,40.621 219.042,39.326 210.500 C 39.041 208.621,38.664 206.481,38.487 205.745 C 37.970 203.585,38.044 203.333,39.190 203.333 C 40.261 203.333,50.311 200.557,61.333 197.215 C 63.304 196.618,65.179 196.055,65.500 195.965 C 69.363 194.881,76.997 192.485,84.250 190.078 C 85.442 189.683,86.469 189.354,86.534 189.346 C 86.598 189.339,86.979 189.840,87.380 190.458 M134.192 191.520 C 135.034 191.950,135.439 195.557,134.857 197.440 C 134.323 199.167,134.257 199.211,133.779 198.157 C 133.552 197.658,132.797 196.053,132.100 194.590 C 130.695 191.636,130.689 191.830,132.192 191.432 C 133.056 191.204,133.622 191.229,134.192 191.520 M121.307 192.556 C 120.817 192.954,119.918 193.593,119.309 193.977 C 117.247 195.276,117.211 196.070,119.098 198.675 C 120.802 201.028,121.359 201.889,122.341 203.696 C 123.330 205.518,123.548 205.781,124.178 205.919 C 124.870 206.071,126.554 205.276,127.148 204.516 C 129.828 201.092,130.266 198.591,128.187 198.591 C 127.342 198.591,127.171 198.754,126.067 200.604 C 124.958 202.462,125.164 202.409,124.349 201.050 L 123.680 199.932 124.590 198.979 C 126.737 196.728,124.727 194.636,122.480 196.782 L 121.877 197.358 121.521 196.906 L 121.165 196.453 122.126 195.754 C 123.437 194.800,124.163 194.045,124.186 193.612 C 124.285 191.743,122.923 191.244,121.307 192.556 M112.628 196.487 L 112.083 196.975 112.095 198.571 C 112.109 200.481,112.225 200.455,110.536 198.920 C 108.725 197.273,107.718 197.106,107.075 198.349 C 105.818 200.781,111.617 212.333,114.097 212.333 C 115.536 212.333,115.931 210.914,114.870 209.557 C 113.347 207.608,110.989 203.622,111.221 203.390 C 111.250 203.361,111.565 203.487,111.922 203.669 C 113.383 204.414,114.852 203.736,115.097 202.202 L 115.205 201.527 117.012 203.940 C 120.136 208.112,120.536 208.500,121.713 208.500 C 123.248 208.500,123.497 207.007,122.199 205.587 C 121.374 204.684,118.452 200.853,116.780 198.481 C 115.044 196.019,113.812 195.427,112.628 196.487 M82.217 199.489 C 81.726 199.792,81.167 201.002,81.167 201.761 C 81.167 202.413,80.595 203.674,80.347 203.569 C 77.222 202.248,75.167 202.452,75.167 204.083 C 75.167 204.969,75.691 205.398,77.177 205.729 C 78.463 206.016,80.167 206.715,80.167 206.956 C 80.167 207.033,80.381 207.221,80.642 207.376 C 80.947 207.556,81.223 207.942,81.411 208.453 C 81.572 208.891,82.516 210.914,83.508 212.947 C 85.462 216.951,85.833 217.876,85.833 218.743 C 85.833 220.160,87.362 220.831,88.346 219.846 C 89.355 218.838,88.963 217.172,86.592 212.384 C 85.721 210.624,84.709 208.466,84.343 207.587 C 83.978 206.709,83.568 205.833,83.434 205.640 C 83.216 205.329,83.222 205.205,83.489 204.520 C 84.930 200.830,84.270 198.220,82.217 199.489 M71.781 201.527 C 70.592 202.414,68.618 205.215,67.982 206.917 C 66.789 210.113,67.934 211.919,72.577 214.164 C 77.026 216.314,77.953 218.004,76.384 221.099 C 75.732 222.383,75.723 222.889,76.338 223.504 C 78.105 225.272,80.807 220.832,79.941 217.583 C 79.117 214.496,77.560 213.018,73.092 211.085 C 69.796 209.659,69.830 208.184,73.245 204.367 C 74.461 203.009,74.621 202.411,73.988 201.606 C 73.543 201.040,72.484 201.003,71.781 201.527 M56.249 207.736 C 55.412 208.573,55.250 207.742,58.508 219.270 C 59.237 221.848,59.834 224.136,59.834 224.354 C 59.838 226.671,62.833 226.349,62.895 224.024 C 62.915 223.266,62.973 223.166,63.873 222.344 L 64.830 221.470 66.040 222.586 C 67.631 224.054,68.150 224.284,68.970 223.883 C 70.397 223.184,70.150 222.366,67.792 219.984 C 65.899 218.070,64.909 216.770,61.967 212.333 C 58.871 207.662,57.458 206.526,56.249 207.736 M50.417 210.072 C 50.050 210.191,48.869 210.716,47.792 211.239 C 44.707 212.736,44.424 213.339,45.386 216.373 C 45.713 217.405,46.288 219.396,46.663 220.796 C 47.417 223.609,48.082 225.522,48.773 226.865 C 49.137 227.570,49.221 227.940,49.189 228.689 C 49.100 230.743,50.203 230.826,53.417 229.007 C 57.067 226.941,57.680 226.154,56.533 225.008 C 55.849 224.323,55.317 224.356,54.000 225.167 C 52.755 225.933,52.658 225.951,52.250 225.500 C 52.084 225.317,51.812 225.167,51.645 225.167 C 51.282 225.167,51.019 224.682,50.437 222.939 C 49.894 221.311,49.895 221.229,50.456 221.088 C 53.908 220.222,55.683 218.502,54.424 217.242 C 53.844 216.662,53.292 216.720,51.185 217.583 C 50.177 217.996,49.293 218.333,49.218 218.332 C 49.144 218.331,48.872 217.600,48.614 216.707 C 48.356 215.814,48.105 214.956,48.056 214.801 C 47.984 214.575,48.388 214.318,50.052 213.528 C 52.460 212.384,52.847 211.967,52.491 210.890 C 52.329 210.398,51.496 209.758,51.130 209.844 C 51.104 209.851,50.783 209.953,50.417 210.072 M62.774 218.919 C 62.811 219.016,62.622 219.307,62.353 219.565 L 61.864 220.033 61.430 218.611 C 60.635 216.005,60.660 215.910,61.745 217.412 C 62.274 218.143,62.736 218.821,62.774 218.919 " stroke="none" fill="#050404" fill-rule="evenodd"></path><path id="path1" d="M247.250 104.194 C 246.182 104.782,244.095 107.713,241.337 112.500 C 240.011 114.802,238.551 117.190,237.461 118.842 C 237.186 119.259,236.744 119.724,236.479 119.876 C 234.689 120.904,236.001 123.740,238.001 123.166 C 238.738 122.955,242.098 118.486,242.625 117.016 C 242.678 116.870,242.850 116.563,243.008 116.333 C 243.165 116.104,243.462 115.617,243.666 115.250 C 244.827 113.167,246.410 110.648,246.461 110.801 C 246.519 110.975,246.418 111.550,245.912 113.917 C 244.594 120.088,244.603 121.212,245.972 121.784 C 247.414 122.387,248.031 121.604,248.493 118.583 C 248.675 117.392,248.930 115.929,249.059 115.333 C 250.699 107.781,250.778 105.444,249.431 104.416 C 248.840 103.965,247.848 103.864,247.250 104.194 M272.300 123.675 C 271.116 124.791,267.662 127.212,261.000 131.595 C 258.339 133.346,256.054 134.703,255.167 135.060 C 253.772 135.620,253.586 135.754,253.397 136.333 C 252.772 138.247,254.646 139.208,256.833 138.094 C 257.858 137.573,261.371 135.497,261.500 135.336 C 261.546 135.279,261.883 135.053,262.250 134.833 C 262.617 134.614,262.954 134.388,263.000 134.332 C 263.046 134.276,263.546 133.951,264.112 133.611 C 264.677 133.271,266.234 132.250,267.570 131.342 C 268.907 130.435,270.000 129.706,270.000 129.722 C 270.000 129.824,269.566 131.113,268.673 133.667 C 267.480 137.079,266.786 139.158,265.921 141.917 C 265.576 143.017,265.124 144.442,264.917 145.083 C 264.710 145.725,264.148 147.487,263.667 149.000 C 263.187 150.512,262.308 153.175,261.715 154.917 C 260.248 159.225,260.218 159.673,261.361 160.264 C 263.132 161.180,263.587 160.441,266.084 152.583 C 266.695 150.658,267.369 148.558,267.581 147.917 C 267.793 147.275,268.206 145.962,268.499 145.000 C 269.312 142.336,272.908 131.598,273.328 130.583 C 275.270 125.888,275.590 123.920,274.515 123.285 C 273.709 122.809,273.106 122.916,272.300 123.675 M268.075 171.850 C 266.958 172.410,267.047 174.234,268.223 174.863 C 268.676 175.106,270.968 175.306,276.500 175.585 C 281.312 175.828,287.846 176.205,292.333 176.500 C 293.571 176.581,294.919 176.652,295.330 176.657 C 296.060 176.666,293.281 178.510,287.858 181.615 C 287.458 181.843,286.274 182.548,285.225 183.182 C 284.176 183.815,283.287 184.333,283.250 184.333 C 283.212 184.333,282.784 184.568,282.299 184.856 C 281.814 185.143,281.042 185.582,280.583 185.832 C 280.125 186.082,279.037 186.682,278.167 187.167 C 277.296 187.651,276.096 188.308,275.500 188.626 C 274.904 188.944,274.042 189.413,273.583 189.667 C 268.366 192.558,262.612 195.370,258.750 196.916 C 256.668 197.750,256.503 197.844,256.236 198.361 C 255.130 200.499,258.114 201.512,260.583 199.837 C 260.675 199.775,261.125 199.586,261.583 199.417 C 263.734 198.625,271.135 194.944,275.888 192.302 C 277.367 191.480,277.954 191.158,280.083 190.002 C 280.633 189.703,281.666 189.129,282.377 188.725 C 283.089 188.321,284.027 187.796,284.461 187.558 C 287.318 185.991,300.497 177.952,301.167 177.367 C 302.306 176.374,302.481 175.323,301.668 174.360 C 301.051 173.629,300.527 173.562,291.167 173.003 C 289.654 172.913,287.292 172.761,285.917 172.666 C 284.542 172.571,281.842 172.418,279.917 172.328 C 275.564 172.123,271.118 171.882,269.583 171.766 C 268.925 171.716,268.268 171.753,268.075 171.850 M85.830 189.755 C 85.511 189.874,84.350 190.250,83.250 190.592 C 82.150 190.933,79.375 191.832,77.083 192.590 C 74.792 193.347,72.654 194.043,72.333 194.136 C 71.157 194.478,66.393 195.872,65.625 196.099 C 64.867 196.323,64.107 196.551,62.375 197.071 C 61.002 197.484,58.315 198.290,56.500 198.833 C 55.538 199.122,54.413 199.459,54.000 199.583 C 52.869 199.923,48.237 201.222,45.417 201.990 C 44.042 202.365,42.654 202.743,42.333 202.831 C 40.816 203.249,39.589 203.500,39.065 203.500 C 38.297 203.500,38.216 203.784,38.570 205.231 C 38.729 205.883,38.963 207.092,39.091 207.917 C 39.218 208.742,39.442 210.204,39.589 211.167 C 39.736 212.129,39.966 213.629,40.100 214.500 C 40.235 215.371,40.450 216.796,40.580 217.667 C 40.963 220.231,41.611 223.953,42.003 225.833 C 42.204 226.796,42.437 227.958,42.520 228.417 C 42.604 228.875,42.742 229.550,42.827 229.917 C 42.912 230.283,43.141 231.333,43.338 232.250 C 44.398 237.209,44.261 236.981,45.854 236.440 C 48.630 235.499,54.651 233.909,58.592 233.078 C 61.626 232.438,68.516 231.067,70.667 230.675 C 71.721 230.484,72.808 230.285,73.083 230.235 C 73.358 230.184,74.183 230.040,74.917 229.913 C 75.650 229.787,77.600 229.450,79.250 229.165 C 80.900 228.880,82.906 228.538,83.708 228.407 C 84.510 228.275,85.823 228.057,86.625 227.923 C 91.163 227.165,93.839 226.721,95.750 226.410 C 96.575 226.276,97.925 226.057,98.750 225.923 C 101.121 225.538,103.166 225.198,104.250 225.009 C 104.800 224.914,105.263 224.835,105.279 224.834 C 105.295 224.834,105.139 224.402,104.933 223.874 C 104.726 223.346,104.420 222.480,104.253 221.949 C 104.076 221.386,103.443 220.243,102.732 219.201 C 101.494 217.387,100.839 216.329,99.202 213.500 C 98.699 212.629,97.933 211.392,97.502 210.750 C 93.952 205.472,94.068 202.021,97.782 202.402 L 98.870 202.513 98.107 201.620 C 97.324 200.703,95.095 198.528,94.292 197.896 C 91.394 195.617,86.833 190.675,86.833 189.813 C 86.833 189.576,86.383 189.550,85.830 189.755 M84.006 199.482 C 84.818 200.161,84.761 201.215,83.742 204.313 C 83.470 205.142,83.468 205.249,83.714 205.730 C 83.861 206.016,84.255 206.925,84.590 207.750 C 84.925 208.575,85.869 210.585,86.687 212.216 C 89.615 218.052,89.768 220.500,87.207 220.500 C 86.281 220.500,85.855 219.989,85.660 218.646 C 85.476 217.379,85.230 216.787,83.045 212.333 C 82.123 210.454,81.271 208.635,81.151 208.292 C 81.031 207.948,80.842 207.667,80.731 207.667 C 80.620 207.667,80.354 207.459,80.140 207.205 C 79.699 206.682,78.749 206.280,76.876 205.824 C 75.384 205.459,75.009 205.108,75.004 204.064 C 74.994 202.334,76.798 202.016,79.884 203.202 C 80.514 203.444,80.623 203.301,81.011 201.732 C 81.684 199.008,82.608 198.314,84.006 199.482 M74.125 201.420 C 74.815 202.215,74.615 203.178,73.523 204.320 C 72.102 205.806,71.307 206.971,70.928 208.124 C 70.453 209.569,70.570 209.669,75.533 212.071 C 80.213 214.335,81.732 219.900,78.634 223.429 C 77.100 225.176,74.753 223.255,76.064 221.326 C 77.807 218.762,76.885 216.402,73.521 214.813 C 72.547 214.353,71.341 213.778,70.842 213.535 C 67.106 211.718,66.400 207.801,69.174 204.270 C 71.881 200.824,73.031 200.162,74.125 201.420 M58.155 207.411 C 58.414 207.545,59.067 208.174,59.605 208.810 C 60.587 209.969,61.112 210.710,63.067 213.689 C 64.918 216.509,66.427 218.419,68.237 220.233 C 70.146 222.147,70.361 222.627,69.736 223.581 C 68.997 224.709,67.822 224.445,66.019 222.745 L 64.828 221.621 63.942 222.436 C 63.098 223.211,63.055 223.291,63.049 224.093 C 63.030 226.793,60.038 226.955,59.658 224.275 C 59.573 223.674,59.392 222.898,59.256 222.550 C 59.121 222.201,58.937 221.617,58.850 221.250 C 58.762 220.883,58.569 220.171,58.422 219.667 C 58.274 219.162,58.008 218.225,57.830 217.583 C 56.848 214.045,56.609 213.174,56.411 212.417 C 56.291 211.958,56.037 211.041,55.846 210.377 C 55.130 207.881,56.258 206.430,58.155 207.411 M52.418 210.365 C 53.124 211.205,52.831 212.397,51.799 212.878 C 48.364 214.478,48.153 214.594,48.230 214.833 C 48.274 214.971,48.516 215.758,48.768 216.583 C 49.021 217.408,49.241 218.105,49.259 218.132 C 49.277 218.158,50.144 217.832,51.187 217.408 C 53.728 216.373,54.831 216.512,55.091 217.900 C 55.321 219.125,54.853 219.545,51.995 220.676 C 50.989 221.074,50.168 221.478,50.170 221.575 C 50.172 221.671,50.367 222.275,50.602 222.917 C 50.838 223.558,51.070 224.252,51.118 224.458 C 51.169 224.677,51.331 224.833,51.507 224.833 C 51.672 224.833,52.035 225.025,52.313 225.258 C 52.878 225.733,53.098 225.679,54.324 224.763 C 56.032 223.485,58.090 225.377,56.739 226.983 C 55.945 227.927,51.356 230.500,50.467 230.500 C 49.358 230.500,48.576 229.388,48.958 228.357 C 49.071 228.054,48.981 227.707,48.570 226.857 C 47.973 225.619,47.204 223.424,46.666 221.417 C 46.469 220.683,46.241 219.858,46.159 219.583 C 46.076 219.308,45.848 218.521,45.652 217.833 C 45.455 217.146,45.147 216.136,44.967 215.590 C 44.245 213.401,44.860 212.461,47.992 210.960 C 50.951 209.543,51.647 209.449,52.418 210.365 M61.242 217.375 C 61.304 217.581,61.470 218.162,61.610 218.667 C 61.913 219.760,61.922 219.772,62.246 219.503 C 62.630 219.184,62.559 218.859,61.889 217.887 C 61.224 216.921,61.066 216.797,61.242 217.375 " stroke="none" fill="#fccc43" fill-rule="evenodd"></path><path id="path2" d="M204.465 114.430 C 204.416 114.514,203.981 115.333,203.499 116.250 C 200.575 121.814,199.445 123.711,197.200 126.827 C 196.240 128.160,195.178 129.587,194.841 130.000 C 181.453 146.360,173.307 154.387,166.003 158.417 C 165.173 158.875,164.381 159.325,164.244 159.417 C 164.030 159.560,164.101 159.899,164.750 161.833 C 165.166 163.071,165.772 165.021,166.098 166.167 C 167.925 172.598,170.219 179.826,171.177 182.169 C 171.534 183.041,172.009 184.278,172.234 184.919 C 172.556 185.838,172.668 186.013,172.764 185.750 C 173.891 182.664,174.724 181.667,176.176 181.667 C 177.401 181.667,178.078 182.904,179.417 187.583 C 179.836 189.050,180.735 191.938,181.413 194.000 C 183.133 199.227,184.719 205.424,185.501 209.972 C 185.685 211.042,185.871 212.073,185.914 212.265 C 185.991 212.606,186.026 212.609,187.455 212.408 C 189.966 212.055,193.645 211.674,196.333 211.490 C 198.984 211.309,201.650 210.903,206.583 209.933 C 211.798 208.907,213.339 208.616,216.667 208.031 C 222.499 207.005,223.904 206.823,226.500 206.758 C 227.845 206.724,229.212 206.602,229.583 206.482 C 230.263 206.263,234.785 206.198,239.111 206.347 C 241.472 206.428,241.400 206.462,241.098 205.403 C 240.749 204.181,240.614 202.521,240.652 199.917 C 240.715 195.610,241.129 194.199,242.664 193.053 C 243.656 192.313,243.723 192.401,241.809 191.926 C 240.058 191.491,236.637 190.248,235.000 189.452 C 232.059 188.021,229.732 183.900,231.150 182.633 C 231.434 182.379,231.667 182.084,231.667 181.977 C 231.667 180.456,235.631 176.844,238.667 175.598 C 240.895 174.684,244.289 173.464,245.417 173.172 C 246.058 173.006,247.408 172.644,248.417 172.368 C 249.425 172.092,250.700 171.779,251.250 171.672 C 252.778 171.376,253.333 171.166,253.333 170.886 C 253.333 170.711,253.242 170.667,253.042 170.745 C 248.077 172.679,245.971 168.961,249.615 164.695 L 250.232 163.973 249.346 164.524 C 248.038 165.337,246.271 167.042,244.972 168.746 C 242.565 171.902,239.995 173.436,235.314 174.510 C 231.926 175.287,230.036 175.258,227.991 174.395 C 227.410 174.150,227.381 174.157,226.521 174.736 C 224.964 175.783,223.708 175.847,223.094 174.910 C 222.494 173.994,222.910 173.003,224.112 172.488 C 224.518 172.314,225.241 171.772,225.717 171.285 C 226.194 170.798,227.020 170.106,227.554 169.747 C 229.645 168.341,230.357 167.440,235.890 159.190 C 237.687 156.511,238.087 155.817,237.791 155.888 C 227.006 158.509,220.002 159.018,219.192 157.240 C 218.415 155.533,219.872 154.650,222.439 155.273 C 222.778 155.356,222.788 155.323,222.655 154.607 C 222.219 152.274,222.933 147.394,224.306 143.333 C 225.167 140.786,225.417 140.233,227.703 135.833 C 230.073 131.269,230.206 130.836,229.909 128.631 L 229.804 127.845 228.430 129.067 C 225.927 131.294,223.499 131.214,222.462 128.870 C 221.669 127.076,222.231 125.466,225.249 120.893 C 227.070 118.134,227.940 116.667,227.757 116.667 C 227.184 116.667,218.319 119.547,215.583 120.622 C 213.339 121.504,210.993 122.689,209.699 123.595 C 209.670 123.615,209.764 124.247,209.907 125.000 C 210.259 126.856,210.241 127.078,209.688 127.698 C 208.676 128.830,207.169 128.118,206.933 126.397 C 206.872 125.950,206.714 125.021,206.583 124.333 C 206.452 123.646,206.151 122.033,205.914 120.750 C 205.304 117.446,204.571 114.249,204.465 114.430 M205.441 152.186 C 210.548 153.761,219.337 160.312,221.159 163.901 C 223.782 169.069,220.511 177.228,216.709 175.000 C 216.054 174.617,213.078 171.569,211.928 170.104 C 211.559 169.634,210.458 168.425,209.481 167.417 C 207.037 164.895,205.960 163.500,202.793 158.750 C 201.998 157.558,200.942 156.121,200.446 155.556 C 199.389 154.353,199.221 153.871,199.587 153.100 C 200.001 152.228,200.796 151.966,201.667 152.417 C 202.125 152.654,202.174 152.645,202.568 152.250 C 203.096 151.722,203.881 151.705,205.441 152.186 M205.623 157.284 C 206.403 158.449,207.261 159.706,207.530 160.076 C 209.442 162.710,210.064 163.468,211.916 165.413 C 213.062 166.616,214.177 167.842,214.394 168.136 C 214.838 168.737,217.801 171.833,217.933 171.833 C 217.979 171.833,218.249 171.338,218.532 170.733 C 219.225 169.253,219.140 167.056,218.326 165.386 C 217.063 162.797,210.412 157.707,205.437 155.523 C 204.122 154.946,204.135 155.063,205.623 157.284 M197.589 156.349 C 200.025 156.799,201.413 158.542,201.917 161.781 C 202.328 164.427,202.658 165.518,203.234 166.139 C 203.848 166.799,207.036 168.930,208.527 169.675 C 209.577 170.200,212.174 171.683,213.382 172.447 C 214.450 173.123,214.594 174.305,213.696 175.014 C 213.050 175.523,212.103 175.370,210.709 174.530 C 210.090 174.157,208.833 173.464,207.917 172.991 C 207.000 172.517,205.838 171.851,205.333 171.509 C 203.699 170.403,203.515 170.347,204.176 171.158 C 207.530 175.275,208.630 178.003,207.768 180.067 C 206.869 182.217,204.542 181.397,204.745 179.002 L 204.851 177.750 204.115 176.470 C 203.710 175.766,202.743 174.416,201.966 173.470 C 201.190 172.524,199.923 170.964,199.152 170.004 C 198.381 169.044,196.731 167.198,195.486 165.903 C 191.100 161.339,190.212 159.188,192.115 157.737 C 193.709 156.522,195.739 156.007,197.589 156.349 M195.333 159.606 C 195.012 159.749,194.724 159.891,194.692 159.921 C 194.541 160.066,195.915 161.767,197.555 163.465 C 198.727 164.678,199.340 165.211,199.281 164.965 C 199.230 164.755,199.104 164.096,199.000 163.500 C 198.383 159.974,198.181 159.626,196.646 159.437 C 196.171 159.379,195.713 159.438,195.333 159.606 M189.401 161.184 C 189.646 161.377,190.233 162.108,190.705 162.809 C 193.275 166.623,202.250 179.144,202.766 179.633 C 202.987 179.843,203.272 180.256,203.398 180.549 C 203.524 180.843,204.161 182.058,204.813 183.249 C 206.063 185.529,206.210 186.110,205.759 186.984 C 204.931 188.584,202.667 188.231,202.667 186.502 C 202.667 186.128,202.565 185.655,202.440 185.452 C 202.316 185.249,201.940 184.582,201.605 183.969 L 200.996 182.855 200.274 183.101 C 199.877 183.236,199.024 183.437,198.378 183.548 L 197.204 183.750 198.029 186.417 C 198.483 187.883,198.966 189.458,199.103 189.917 C 199.439 191.039,199.323 192.228,198.828 192.755 C 197.901 193.743,196.167 192.962,196.167 191.557 C 196.167 191.236,195.908 190.210,195.592 189.278 C 195.275 188.346,194.711 186.458,194.337 185.083 C 192.819 179.504,190.832 174.019,189.049 170.489 C 188.426 169.256,187.736 167.797,187.515 167.248 C 187.295 166.699,186.901 165.801,186.640 165.252 C 186.058 164.026,186.045 163.503,186.583 162.864 C 186.813 162.591,187.000 162.217,187.000 162.032 C 187.000 161.104,188.586 160.543,189.401 161.184 M182.780 163.864 C 183.033 164.100,183.781 166.138,185.253 170.601 C 186.774 175.216,187.431 177.000,187.611 177.000 C 188.506 177.000,189.094 178.512,188.584 179.500 C 188.345 179.961,188.376 180.093,189.274 182.450 C 189.791 183.807,190.492 185.667,190.833 186.583 C 191.174 187.500,191.759 189.007,192.134 189.932 C 193.818 194.093,194.176 196.183,193.346 197.013 C 192.200 198.159,191.171 197.478,190.558 195.166 C 190.327 194.295,189.879 192.908,189.561 192.083 C 189.244 191.258,188.346 188.900,187.565 186.842 C 186.785 184.784,186.095 183.010,186.032 182.900 C 185.954 182.765,185.624 182.968,185.025 183.521 L 184.133 184.343 185.557 187.713 C 189.313 196.602,190.118 199.408,189.179 200.346 C 188.017 201.509,186.933 200.872,186.322 198.665 C 185.888 197.099,184.196 192.606,182.839 189.417 C 181.096 185.320,177.812 177.341,176.836 174.833 C 176.355 173.596,175.413 171.196,174.744 169.500 C 173.268 165.761,173.331 164.800,175.050 164.800 C 176.229 164.800,176.359 164.969,177.584 168.083 C 179.686 173.430,182.178 179.666,182.497 180.381 L 182.854 181.179 183.719 180.404 C 184.194 179.978,184.630 179.544,184.688 179.440 C 184.745 179.335,183.755 176.137,182.488 172.333 C 181.220 168.529,180.180 165.251,180.175 165.050 C 180.143 163.653,181.763 162.915,182.780 163.864 M194.344 174.792 C 194.785 176.052,195.409 177.833,195.731 178.750 L 196.317 180.417 196.950 180.465 C 197.788 180.529,198.917 180.285,198.917 180.040 C 198.917 179.868,193.711 172.500,193.590 172.500 C 193.564 172.500,193.904 173.531,194.344 174.792 " stroke="none" fill="#fb4304" fill-rule="evenodd"></path><path id="path3" d="M164.529 151.347 C 163.970 152.013,162.549 153.098,160.083 154.740 C 159.350 155.229,156.999 156.503,154.860 157.572 C 152.720 158.642,150.170 160.011,149.193 160.615 C 148.216 161.219,146.626 162.103,145.659 162.579 C 143.616 163.587,142.628 164.144,141.267 165.054 C 139.443 166.276,134.881 168.167,133.758 168.167 C 133.537 168.167,132.844 168.269,132.219 168.394 C 128.856 169.066,128.791 169.071,127.927 168.689 C 125.034 167.409,120.833 162.948,120.833 161.156 C 120.833 159.554,119.992 160.627,116.512 166.667 C 110.135 177.736,103.230 183.708,92.417 187.507 C 91.042 187.990,89.887 188.409,89.850 188.439 C 89.505 188.724,92.723 192.160,96.297 195.322 C 97.973 196.805,99.874 198.644,100.522 199.409 C 101.745 200.852,101.873 200.928,103.667 201.263 C 105.226 201.554,105.815 202.577,105.180 203.888 C 104.572 205.144,102.757 205.833,100.057 205.833 C 99.237 205.833,98.667 205.902,98.667 206.001 C 98.667 206.309,99.438 207.734,100.606 209.583 C 101.243 210.592,102.223 212.204,102.784 213.167 C 103.344 214.129,104.428 215.856,105.193 217.003 C 106.826 219.453,106.953 219.702,107.745 222.000 C 108.641 224.597,108.330 224.431,111.359 223.930 C 112.766 223.697,115.942 223.203,118.417 222.833 C 120.892 222.462,127.417 221.414,132.917 220.504 C 138.417 219.594,143.929 218.691,145.167 218.498 C 151.797 217.463,162.819 215.603,164.417 215.250 C 168.759 214.289,172.772 213.736,177.083 213.506 C 183.301 213.174,182.911 213.317,182.575 211.490 C 182.022 208.486,181.574 206.395,181.042 204.333 C 180.818 203.463,180.412 201.850,180.141 200.750 C 179.870 199.650,179.019 196.838,178.250 194.500 C 177.481 192.162,176.656 189.502,176.416 188.587 C 175.986 186.951,175.897 186.709,175.769 186.847 C 175.734 186.885,175.354 187.618,174.925 188.476 C 172.908 192.510,171.178 191.933,169.431 186.644 C 169.026 185.419,168.438 183.817,168.125 183.083 C 167.347 181.266,164.988 173.843,163.411 168.250 C 162.882 166.372,161.920 163.399,160.378 158.872 C 159.646 156.724,161.071 154.927,162.593 156.078 C 163.057 156.429,163.195 156.401,164.321 155.731 L 165.333 155.128 165.349 153.689 C 165.385 150.554,165.328 150.393,164.529 151.347 M162.467 177.711 C 163.303 178.491,163.710 179.615,164.627 183.667 C 165.472 187.406,165.486 187.706,164.841 188.351 C 163.514 189.678,162.202 188.492,161.749 185.555 L 161.642 184.860 161.048 185.263 C 160.363 185.728,159.542 185.783,158.825 185.412 C 158.239 185.109,158.241 185.095,158.685 186.111 C 159.358 187.651,160.000 189.733,160.000 190.373 C 160.000 192.123,158.338 193.095,157.154 192.037 C 156.644 191.582,156.587 191.368,156.675 190.246 C 156.698 189.964,156.444 189.085,156.097 188.246 C 153.160 181.131,152.846 179.503,154.285 178.848 C 155.294 178.388,156.157 178.836,158.077 180.814 C 159.116 181.885,159.167 181.879,159.167 180.697 C 159.167 177.853,160.919 176.267,162.467 177.711 M144.846 182.987 C 145.942 184.083,145.435 185.051,143.222 186.092 C 142.352 186.502,141.665 186.892,141.696 186.960 C 141.727 187.028,142.032 187.623,142.374 188.282 C 142.715 188.942,143.328 190.479,143.736 191.699 C 144.566 194.182,144.467 194.086,145.538 193.444 C 146.492 192.873,147.116 192.943,147.745 193.692 C 148.558 194.657,148.143 195.542,146.352 196.667 C 145.695 197.079,144.442 197.998,143.568 198.708 C 141.743 200.192,141.032 200.381,140.242 199.591 C 139.507 198.855,139.657 197.932,140.668 196.983 L 141.503 196.199 141.349 195.141 C 141.163 193.862,140.208 191.015,139.557 189.800 L 139.083 188.917 137.833 188.833 C 136.392 188.737,136.214 188.653,135.908 187.923 C 135.363 186.617,135.885 186.126,139.917 184.147 C 143.645 182.317,144.075 182.216,144.846 182.987 M151.763 184.196 C 151.972 184.409,152.489 185.371,152.913 186.333 C 153.346 187.314,153.990 188.445,154.380 188.908 C 155.526 190.267,155.143 191.833,153.665 191.833 C 153.134 191.833,152.333 191.522,152.333 191.315 C 152.333 191.243,152.073 191.292,151.755 191.425 C 149.164 192.508,145.505 189.755,145.052 186.383 C 144.729 183.974,147.531 184.003,148.415 186.417 C 148.698 187.187,149.900 188.655,150.092 188.464 C 150.138 188.417,149.911 187.828,149.588 187.153 C 148.831 185.573,148.811 184.830,149.508 184.133 C 150.125 183.516,151.125 183.544,151.763 184.196 M135.072 188.510 C 136.787 189.152,137.732 190.718,138.183 193.667 C 138.756 197.419,136.910 202.180,134.882 202.179 C 132.475 202.176,131.333 201.658,131.333 200.567 C 131.333 200.343,131.022 199.542,130.643 198.788 C 126.793 191.146,126.699 190.472,129.314 189.213 C 131.575 188.124,133.434 187.897,135.072 188.510 M131.783 191.603 C 130.806 191.903,130.735 191.593,132.724 195.728 L 134.237 198.872 134.519 198.209 C 135.224 196.548,135.299 194.569,134.730 192.650 C 134.342 191.345,133.544 191.061,131.783 191.603 M123.846 192.154 C 124.847 193.155,124.328 194.326,122.247 195.759 C 121.248 196.448,121.245 196.453,121.565 196.875 C 121.862 197.266,121.867 197.264,122.750 196.500 C 123.732 195.650,124.456 195.597,125.179 196.321 C 126.007 197.148,125.810 197.899,124.421 199.224 L 123.759 199.856 124.254 200.775 C 125.013 202.181,125.030 202.179,125.937 200.630 C 126.967 198.870,127.359 198.500,128.199 198.500 C 129.957 198.500,130.113 199.839,128.646 202.342 C 126.259 206.417,124.112 207.159,122.651 204.417 C 121.554 202.358,120.828 201.200,119.519 199.417 C 117.019 196.012,117.017 195.341,119.500 193.750 C 120.113 193.357,120.870 192.814,121.182 192.544 C 122.389 191.499,123.089 191.397,123.846 192.154 M89.500 193.385 C 89.500 193.414,89.744 193.658,90.042 193.927 L 90.583 194.417 90.094 193.875 C 89.638 193.370,89.500 193.257,89.500 193.385 M91.333 195.219 C 91.333 195.248,91.577 195.491,91.875 195.760 L 92.417 196.250 91.927 195.708 C 91.471 195.203,91.333 195.090,91.333 195.219 M114.646 196.073 C 115.294 196.408,116.010 197.241,117.879 199.833 C 120.350 203.261,121.360 204.570,122.304 205.568 C 123.367 206.692,123.468 207.391,122.679 208.179 C 121.451 209.408,120.549 208.772,117.216 204.326 C 115.271 201.733,115.249 201.710,115.154 202.254 C 114.866 203.897,113.392 204.543,111.795 203.727 C 111.348 203.499,111.343 203.503,111.495 203.904 C 112.013 205.266,113.784 208.115,115.061 209.641 C 116.049 210.821,115.747 212.098,114.399 212.436 C 111.722 213.108,105.273 200.064,107.258 197.991 C 108.134 197.077,108.890 197.254,110.489 198.750 C 112.120 200.275,112.002 200.287,111.955 198.598 C 111.894 196.379,113.082 195.264,114.646 196.073 M92.516 196.375 C 92.556 196.398,92.925 196.717,93.336 197.083 L 94.083 197.750 93.425 197.042 C 93.062 196.652,92.693 196.333,92.605 196.333 C 92.517 196.333,92.477 196.352,92.516 196.375 M82.145 199.252 C 81.904 199.383,81.655 199.623,81.593 199.787 C 81.506 200.014,81.561 199.996,81.828 199.710 C 82.219 199.291,82.842 199.087,83.336 199.216 C 83.518 199.263,83.625 199.234,83.574 199.151 C 83.434 198.925,82.643 198.981,82.145 199.252 M96.750 200.167 C 97.387 200.808,97.945 201.333,97.991 201.333 C 98.037 201.333,97.553 200.808,96.917 200.167 C 96.280 199.525,95.721 199.000,95.676 199.000 C 95.630 199.000,96.113 199.525,96.750 200.167 M71.161 201.958 L 70.250 202.917 71.246 202.000 C 71.794 201.496,72.275 201.065,72.316 201.042 C 72.356 201.019,72.318 201.000,72.230 201.000 C 72.143 201.000,71.662 201.431,71.161 201.958 M73.770 201.295 C 73.964 201.454,74.206 201.733,74.307 201.917 C 74.407 202.100,74.492 202.166,74.495 202.064 C 74.502 201.793,73.842 200.999,73.613 201.004 C 73.505 201.006,73.576 201.137,73.770 201.295 M38.167 203.917 C 38.167 204.146,38.195 204.333,38.231 204.333 C 38.266 204.333,38.330 204.146,38.374 203.917 C 38.418 203.688,38.389 203.500,38.310 203.500 C 38.231 203.500,38.167 203.688,38.167 203.917 M83.334 205.173 C 83.335 205.307,83.485 205.642,83.667 205.917 C 84.091 206.558,84.091 206.416,83.667 205.583 C 83.483 205.224,83.334 205.039,83.334 205.173 M80.203 207.255 C 80.453 207.518,80.686 207.699,80.723 207.658 C 80.760 207.617,80.556 207.402,80.270 207.181 L 79.750 206.779 80.203 207.255 M55.754 207.992 C 55.614 208.262,55.509 208.731,55.521 209.033 C 55.541 209.565,55.545 209.562,55.655 208.917 C 55.717 208.550,55.861 208.081,55.973 207.875 C 56.086 207.669,56.140 207.500,56.093 207.500 C 56.047 207.500,55.894 207.721,55.754 207.992 M58.833 208.083 C 59.144 208.404,59.436 208.667,59.482 208.667 C 59.528 208.667,59.311 208.404,59.000 208.083 C 58.689 207.762,58.397 207.500,58.351 207.500 C 58.305 207.500,58.522 207.762,58.833 208.083 M67.372 209.000 C 67.372 209.321,67.406 209.452,67.448 209.292 C 67.490 209.131,67.490 208.869,67.448 208.708 C 67.406 208.548,67.372 208.679,67.372 209.000 M81.345 208.750 C 81.345 208.842,81.452 209.104,81.583 209.333 C 81.714 209.563,81.822 209.675,81.822 209.583 C 81.822 209.492,81.714 209.229,81.583 209.000 C 81.452 208.771,81.345 208.658,81.345 208.750 M52.095 210.218 C 52.364 210.449,52.592 210.864,52.669 211.259 C 52.789 211.884,52.796 211.890,52.814 211.388 C 52.833 210.865,52.166 209.833,51.809 209.833 C 51.721 209.833,51.849 210.006,52.095 210.218 M68.833 212.083 C 69.144 212.404,69.436 212.667,69.482 212.667 C 69.528 212.667,69.311 212.404,69.000 212.083 C 68.689 211.762,68.397 211.500,68.351 211.500 C 68.305 211.500,68.522 211.762,68.833 212.083 M45.491 212.458 L 44.917 213.083 45.542 212.509 C 46.123 211.974,46.243 211.833,46.116 211.833 C 46.088 211.833,45.807 212.115,45.491 212.458 M77.750 213.667 C 78.201 214.125,78.608 214.500,78.654 214.500 C 78.700 214.500,78.368 214.125,77.917 213.667 C 77.465 213.208,77.058 212.833,77.013 212.833 C 76.967 212.833,77.299 213.208,77.750 213.667 M44.705 214.333 C 44.705 214.654,44.740 214.785,44.782 214.625 C 44.823 214.465,44.823 214.202,44.782 214.042 C 44.740 213.881,44.705 214.012,44.705 214.333 M54.496 217.162 C 54.677 217.343,54.871 217.700,54.927 217.954 C 55.096 218.719,55.175 218.791,55.092 218.104 C 55.018 217.491,54.612 216.833,54.308 216.833 C 54.230 216.833,54.315 216.981,54.496 217.162 M88.885 218.417 C 88.886 218.967,88.917 219.172,88.954 218.872 C 88.991 218.572,88.990 218.122,88.952 217.872 C 88.914 217.622,88.884 217.867,88.885 218.417 M80.209 218.917 C 80.211 219.283,80.245 219.414,80.285 219.206 C 80.324 218.999,80.323 218.699,80.281 218.540 C 80.239 218.380,80.207 218.550,80.209 218.917 M62.456 218.901 C 62.509 219.176,62.416 219.373,62.145 219.563 C 61.933 219.712,61.839 219.833,61.937 219.833 C 62.401 219.833,62.883 218.820,62.524 218.598 C 62.446 218.550,62.415 218.686,62.456 218.901 M102.616 219.013 C 102.781 219.295,103.023 219.614,103.153 219.721 C 103.284 219.829,103.180 219.598,102.923 219.208 C 102.383 218.390,102.171 218.255,102.616 219.013 M85.833 219.615 C 85.833 219.893,86.633 220.540,86.863 220.448 C 87.014 220.387,86.995 220.356,86.804 220.346 C 86.650 220.339,86.369 220.136,86.179 219.894 C 85.989 219.653,85.833 219.527,85.833 219.615 M88.083 220.178 C 87.808 220.354,87.669 220.499,87.773 220.499 C 87.878 220.500,88.140 220.352,88.357 220.172 C 88.852 219.759,88.733 219.762,88.083 220.178 M75.839 221.656 C 75.744 221.833,75.676 222.227,75.688 222.531 C 75.708 223.066,75.712 223.063,75.818 222.417 C 75.879 222.050,75.986 221.656,76.057 221.542 C 76.128 221.427,76.147 221.333,76.099 221.333 C 76.051 221.333,75.934 221.478,75.839 221.656 M63.910 222.375 L 63.083 223.250 63.959 222.422 L 64.834 221.595 65.876 222.589 L 66.917 223.583 65.922 222.542 C 64.729 221.292,64.919 221.308,63.910 222.375 M78.485 223.345 C 78.156 223.705,77.942 224.000,78.009 224.000 C 78.136 224.000,79.167 222.882,79.167 222.744 C 79.167 222.612,79.101 222.669,78.485 223.345 M75.926 223.380 C 76.062 223.734,77.041 224.219,77.423 224.122 C 77.674 224.058,77.646 224.034,77.304 224.019 C 77.059 224.009,76.628 223.806,76.345 223.568 C 76.063 223.330,75.874 223.246,75.926 223.380 M59.709 224.417 C 59.711 224.783,59.745 224.914,59.785 224.706 C 59.824 224.499,59.823 224.199,59.781 224.040 C 59.739 223.880,59.707 224.050,59.709 224.417 M54.552 224.625 C 54.377 224.785,54.317 224.863,54.418 224.798 C 54.519 224.733,54.785 224.607,55.009 224.517 C 55.267 224.414,55.316 224.351,55.143 224.344 C 54.993 224.338,54.727 224.465,54.552 224.625 M56.105 224.573 C 56.735 224.848,56.872 225.050,57.015 225.917 L 57.125 226.583 57.146 225.946 C 57.169 225.236,56.458 224.328,55.888 224.340 C 55.692 224.344,55.770 224.427,56.105 224.573 M51.563 225.006 C 51.828 225.085,52.206 225.285,52.405 225.450 C 52.603 225.615,52.555 225.544,52.297 225.292 C 52.039 225.040,51.661 224.840,51.456 224.848 C 51.141 224.860,51.158 224.884,51.563 225.006 M59.833 225.313 C 59.833 225.476,60.481 226.082,60.551 225.985 C 60.578 225.947,60.428 225.751,60.217 225.548 C 60.006 225.345,59.833 225.239,59.833 225.313 M61.042 226.115 C 61.202 226.157,61.465 226.157,61.625 226.115 C 61.785 226.073,61.654 226.039,61.333 226.039 C 61.012 226.039,60.881 226.073,61.042 226.115 M49.013 229.613 C 48.998 229.837,49.784 230.500,50.064 230.499 C 50.166 230.499,50.015 230.355,49.727 230.180 C 49.439 230.004,49.164 229.761,49.115 229.639 C 49.059 229.498,49.022 229.488,49.013 229.613 " stroke="none" fill="#fb7304" fill-rule="evenodd"></path><path id="path4" d="M210.042 126.583 C 210.044 126.950,210.078 127.080,210.118 126.873 C 210.158 126.666,210.156 126.366,210.115 126.206 C 210.073 126.047,210.040 126.217,210.042 126.583 M229.000 128.417 C 228.595 128.829,228.301 129.167,228.347 129.167 C 228.393 129.167,228.762 128.829,229.167 128.417 C 229.572 128.004,229.865 127.667,229.819 127.667 C 229.774 127.667,229.405 128.004,229.000 128.417 M230.039 129.833 C 230.039 130.154,230.073 130.285,230.115 130.125 C 230.157 129.965,230.157 129.702,230.115 129.542 C 230.073 129.381,230.039 129.512,230.039 129.833 M182.658 144.125 L 182.083 144.750 182.708 144.176 C 183.290 143.641,183.410 143.500,183.283 143.500 C 183.255 143.500,182.974 143.781,182.658 144.125 M165.332 153.951 C 165.287 154.703,165.310 155.258,165.383 155.185 C 165.456 155.111,165.493 154.496,165.465 153.817 L 165.414 152.583 165.332 153.951 M222.545 153.500 C 222.545 153.912,222.578 154.081,222.618 153.875 C 222.657 153.669,222.657 153.331,222.618 153.125 C 222.578 152.919,222.545 153.087,222.545 153.500 M219.333 161.583 C 219.644 161.904,219.936 162.167,219.982 162.167 C 220.028 162.167,219.811 161.904,219.500 161.583 C 219.189 161.262,218.897 161.000,218.851 161.000 C 218.805 161.000,219.022 161.262,219.333 161.583 M196.167 162.219 C 196.167 162.248,196.410 162.491,196.708 162.760 L 197.250 163.250 196.760 162.708 C 196.304 162.203,196.167 162.090,196.167 162.219 M216.417 163.000 C 216.775 163.367,217.105 163.667,217.151 163.667 C 217.197 163.667,216.941 163.367,216.583 163.000 C 216.225 162.633,215.895 162.333,215.849 162.333 C 215.803 162.333,216.059 162.633,216.417 163.000 M198.167 164.250 C 198.665 164.754,199.109 165.167,199.155 165.167 C 199.201 165.167,198.831 164.754,198.333 164.250 C 197.835 163.746,197.391 163.333,197.345 163.333 C 197.299 163.333,197.669 163.746,198.167 164.250 M210.167 163.719 C 210.167 163.748,210.410 163.991,210.708 164.260 L 211.250 164.750 210.760 164.208 C 210.304 163.703,210.167 163.590,210.167 163.719 M249.821 164.042 C 249.678 164.508,249.716 164.667,249.928 164.490 C 250.057 164.383,250.122 164.229,250.072 164.148 C 249.985 164.008,249.849 163.950,249.821 164.042 M180.205 165.000 C 180.205 165.321,180.240 165.452,180.282 165.292 C 180.323 165.131,180.323 164.869,180.282 164.708 C 180.240 164.548,180.205 164.679,180.205 165.000 M194.333 164.719 C 194.333 164.748,194.577 164.991,194.875 165.260 L 195.417 165.750 194.927 165.208 C 194.471 164.703,194.333 164.590,194.333 164.719 M222.059 168.750 C 222.059 169.575,222.087 169.934,222.122 169.547 C 222.157 169.160,222.157 168.485,222.123 168.047 C 222.088 167.609,222.060 167.925,222.059 168.750 M216.333 170.417 C 216.924 171.012,217.445 171.500,217.490 171.500 C 217.536 171.500,217.091 171.012,216.500 170.417 C 215.909 169.821,215.389 169.333,215.343 169.333 C 215.297 169.333,215.743 169.821,216.333 170.417 M250.294 171.285 C 250.501 171.324,250.801 171.323,250.960 171.281 C 251.120 171.239,250.950 171.207,250.583 171.209 C 250.217 171.211,250.086 171.245,250.294 171.285 M230.792 175.118 C 230.998 175.157,231.335 175.157,231.542 175.118 C 231.748 175.078,231.579 175.045,231.167 175.045 C 230.754 175.045,230.585 175.078,230.792 175.118 M107.912 178.042 L 106.750 179.250 107.958 178.088 C 109.081 177.008,109.243 176.833,109.121 176.833 C 109.095 176.833,108.551 177.377,107.912 178.042 M232.991 179.625 L 232.417 180.250 233.042 179.676 C 233.623 179.141,233.743 179.000,233.616 179.000 C 233.588 179.000,233.307 179.281,232.991 179.625 M157.785 180.665 C 158.447 181.345,159.011 181.867,159.039 181.826 C 159.067 181.784,158.526 181.227,157.837 180.589 L 156.583 179.428 157.785 180.665 M183.491 180.625 L 182.917 181.250 183.542 180.676 C 184.123 180.141,184.243 180.000,184.116 180.000 C 184.088 180.000,183.807 180.281,183.491 180.625 M196.313 180.547 C 196.394 180.627,196.675 180.666,196.938 180.633 C 197.379 180.578,197.367 180.566,196.792 180.487 C 196.434 180.437,196.229 180.463,196.313 180.547 M143.542 182.615 C 143.702 182.657,143.965 182.657,144.125 182.615 C 144.285 182.573,144.154 182.539,143.833 182.539 C 143.512 182.539,143.381 182.573,143.542 182.615 M184.906 183.542 L 184.417 184.083 184.958 183.594 C 185.463 183.138,185.577 183.000,185.448 183.000 C 185.419 183.000,185.175 183.244,184.906 183.542 M145.039 186.167 C 145.039 186.487,145.073 186.619,145.115 186.458 C 145.157 186.298,145.157 186.035,145.115 185.875 C 145.073 185.715,145.039 185.846,145.039 186.167 M148.833 187.552 C 148.833 187.581,149.077 187.825,149.375 188.094 L 149.917 188.583 149.427 188.042 C 148.971 187.537,148.833 187.423,148.833 187.552 M92.000 191.417 C 92.311 191.737,92.603 192.000,92.649 192.000 C 92.695 192.000,92.478 191.737,92.167 191.417 C 91.856 191.096,91.564 190.833,91.518 190.833 C 91.472 190.833,91.689 191.096,92.000 191.417 M157.875 192.448 C 158.035 192.490,158.298 192.490,158.458 192.448 C 158.619 192.406,158.487 192.372,158.167 192.372 C 157.846 192.372,157.715 192.406,157.875 192.448 M89.417 193.167 C 89.775 193.533,90.105 193.833,90.151 193.833 C 90.197 193.833,89.941 193.533,89.583 193.167 C 89.225 192.800,88.895 192.500,88.849 192.500 C 88.803 192.500,89.059 192.800,89.417 193.167 M141.372 195.167 C 141.372 195.487,141.406 195.619,141.448 195.458 C 141.490 195.298,141.490 195.035,141.448 194.875 C 141.406 194.715,141.372 194.846,141.372 195.167 M115.417 196.833 C 115.775 197.200,116.105 197.500,116.151 197.500 C 116.197 197.500,115.941 197.200,115.583 196.833 C 115.225 196.467,114.895 196.167,114.849 196.167 C 114.803 196.167,115.059 196.467,115.417 196.833 M98.333 197.250 C 98.644 197.571,98.936 197.833,98.982 197.833 C 99.028 197.833,98.811 197.571,98.500 197.250 C 98.189 196.929,97.897 196.667,97.851 196.667 C 97.805 196.667,98.022 196.929,98.333 197.250 M140.406 197.208 L 139.917 197.750 140.458 197.260 C 140.756 196.991,141.000 196.748,141.000 196.719 C 141.000 196.590,140.862 196.703,140.406 197.208 M125.539 197.333 C 125.539 197.654,125.573 197.785,125.615 197.625 C 125.657 197.465,125.657 197.202,125.615 197.042 C 125.573 196.881,125.539 197.012,125.539 197.333 M192.042 197.448 C 192.202 197.490,192.465 197.490,192.625 197.448 C 192.785 197.406,192.654 197.372,192.333 197.372 C 192.012 197.372,191.881 197.406,192.042 197.448 M111.872 198.167 C 111.872 198.487,111.906 198.619,111.948 198.458 C 111.990 198.298,111.990 198.035,111.948 197.875 C 111.906 197.715,111.872 197.846,111.872 198.167 M95.000 198.417 C 95.311 198.737,95.603 199.000,95.649 199.000 C 95.695 199.000,95.478 198.737,95.167 198.417 C 94.856 198.096,94.564 197.833,94.518 197.833 C 94.472 197.833,94.689 198.096,95.000 198.417 M110.500 198.917 C 110.811 199.237,111.103 199.500,111.149 199.500 C 111.195 199.500,110.978 199.237,110.667 198.917 C 110.356 198.596,110.064 198.333,110.018 198.333 C 109.972 198.333,110.189 198.596,110.500 198.917 M96.750 200.000 C 97.201 200.458,97.608 200.833,97.654 200.833 C 97.700 200.833,97.368 200.458,96.917 200.000 C 96.465 199.542,96.058 199.167,96.013 199.167 C 95.967 199.167,96.299 199.542,96.750 200.000 M72.627 201.118 C 72.834 201.158,73.134 201.156,73.294 201.115 C 73.453 201.073,73.283 201.040,72.917 201.042 C 72.550 201.044,72.420 201.078,72.627 201.118 M96.708 202.448 C 96.869 202.490,97.131 202.490,97.292 202.448 C 97.452 202.406,97.321 202.372,97.000 202.372 C 96.679 202.372,96.548 202.406,96.708 202.448 M76.460 202.618 C 76.668 202.658,76.968 202.656,77.127 202.615 C 77.286 202.573,77.117 202.540,76.750 202.542 C 76.383 202.544,76.253 202.578,76.460 202.618 M73.324 204.292 L 72.750 204.917 73.375 204.342 C 73.957 203.808,74.077 203.667,73.949 203.667 C 73.922 203.667,73.640 203.948,73.324 204.292 M231.375 206.282 C 231.535 206.323,231.798 206.323,231.958 206.282 C 232.119 206.240,231.987 206.205,231.667 206.205 C 231.346 206.205,231.215 206.240,231.375 206.282 M240.833 206.333 L 240.250 206.456 240.875 206.478 C 241.219 206.490,241.500 206.425,241.500 206.333 C 241.500 206.242,241.481 206.177,241.458 206.189 C 241.435 206.201,241.154 206.266,240.833 206.333 M58.833 208.219 C 58.833 208.248,59.077 208.491,59.375 208.760 L 59.917 209.250 59.427 208.708 C 58.971 208.203,58.833 208.090,58.833 208.219 M121.375 208.615 C 121.535 208.657,121.798 208.657,121.958 208.615 C 122.119 208.573,121.987 208.539,121.667 208.539 C 121.346 208.539,121.215 208.573,121.375 208.615 M70.667 209.385 C 70.667 209.414,70.910 209.658,71.208 209.927 L 71.750 210.417 71.260 209.875 C 70.804 209.370,70.667 209.257,70.667 209.385 M112.167 211.219 C 112.167 211.248,112.410 211.491,112.708 211.760 L 113.250 212.250 112.760 211.708 C 112.304 211.203,112.167 211.090,112.167 211.219 M195.460 211.618 C 195.668 211.658,195.968 211.656,196.127 211.615 C 196.286 211.573,196.117 211.540,195.750 211.542 C 195.383 211.544,195.253 211.578,195.460 211.618 M176.044 213.620 C 176.297 213.658,176.672 213.657,176.877 213.617 C 177.082 213.578,176.875 213.546,176.417 213.548 C 175.958 213.549,175.791 213.581,176.044 213.620 M75.500 215.917 C 75.811 216.237,76.103 216.500,76.149 216.500 C 76.195 216.500,75.978 216.237,75.667 215.917 C 75.356 215.596,75.064 215.333,75.018 215.333 C 74.972 215.333,75.189 215.596,75.500 215.917 M60.833 216.444 C 60.833 216.628,60.944 216.778,61.081 216.778 C 61.280 216.778,61.289 216.726,61.128 216.514 C 61.018 216.369,60.906 216.219,60.880 216.181 C 60.855 216.142,60.833 216.261,60.833 216.444 M54.872 218.333 C 54.872 218.654,54.906 218.785,54.948 218.625 C 54.990 218.465,54.990 218.202,54.948 218.042 C 54.906 217.881,54.872 218.012,54.872 218.333 M67.583 219.833 C 68.312 220.567,68.946 221.167,68.992 221.167 C 69.038 221.167,68.479 220.567,67.750 219.833 C 67.021 219.100,66.387 218.500,66.341 218.500 C 66.295 218.500,66.854 219.100,67.583 219.833 M77.042 223.948 C 77.202 223.990,77.465 223.990,77.625 223.948 C 77.785 223.906,77.654 223.872,77.333 223.872 C 77.012 223.872,76.881 223.906,77.042 223.948 M59.833 224.954 C 59.833 225.051,59.988 225.307,60.177 225.523 L 60.520 225.917 60.227 225.417 C 59.842 224.759,59.833 224.749,59.833 224.954 M49.042 228.917 C 49.044 229.283,49.078 229.414,49.118 229.206 C 49.158 228.999,49.156 228.699,49.115 228.540 C 49.073 228.380,49.040 228.550,49.042 228.917 " stroke="none" fill="#725404" fill-rule="evenodd"></path></g></svg>